<?xml version="1.0" encoding="UTF-8" standalone="no"?>
<!DOCTYPE svg PUBLIC "-//W3C//DTD SVG 1.0//EN" "http://www.w3.org/TR/2001/PR-SVG-20010719/DTD/svg10.dtd">
<svg width="29cm" height="16cm" viewBox="169 160 580 312" xmlns="http://www.w3.org/2000/svg" xmlns:xlink="http://www.w3.org/1999/xlink">
  <g id="Arrière-plan">
    <g>
      <line style="fill: none; stroke-opacity: 1; stroke-width: 2; stroke: #000000" x1="278" y1="285.35" x2="458" y2="285.35"/>
      <line style="fill: none; stroke-opacity: 1; stroke-width: 2; stroke: #000000" x1="458" y1="285.35" x2="458" y2="365.35"/>
      <line style="fill: none; stroke-opacity: 1; stroke-width: 2; stroke: #000000" x1="458" y1="365.35" x2="278" y2="365.35"/>
      <line style="fill: none; stroke-opacity: 1; stroke-width: 2; stroke: #000000" x1="278" y1="285.35" x2="278" y2="365.35"/>
      <text font-size="12.8" style="fill: #000000; fill-opacity: 1; stroke: none;text-anchor:start;font-family:sans-serif;font-style:normal;font-weight:normal" x="298" y="305.35">
        <tspan x="298" y="305.35">Vcc</tspan>
      </text>
      <text font-size="12.8" style="fill: #000000; fill-opacity: 1; stroke: none;text-anchor:start;font-family:sans-serif;font-style:normal;font-weight:normal" x="338" y="305.35">
        <tspan x="338" y="305.35">Pb2</tspan>
      </text>
      <text font-size="12.8" style="fill: #000000; fill-opacity: 1; stroke: none;text-anchor:start;font-family:sans-serif;font-style:normal;font-weight:normal" x="378" y="305.35">
        <tspan x="378" y="305.35">Pb1</tspan>
      </text>
      <text font-size="12.8" style="fill: #000000; fill-opacity: 1; stroke: none;text-anchor:start;font-family:sans-serif;font-style:normal;font-weight:normal" x="418" y="305.35">
        <tspan x="418" y="305.35">Pb0</tspan>
      </text>
      <text font-size="12.8" style="fill: #000000; fill-opacity: 1; stroke: none;text-anchor:start;font-family:sans-serif;font-style:normal;font-weight:normal" x="298" y="345.35">
        <tspan x="298" y="345.35">Rst</tspan>
      </text>
      <text font-size="12.8" style="fill: #000000; fill-opacity: 1; stroke: none;text-anchor:start;font-family:sans-serif;font-style:normal;font-weight:normal" x="338" y="345.35">
        <tspan x="338" y="345.35">Pb3</tspan>
      </text>
      <text font-size="12.8" style="fill: #000000; fill-opacity: 1; stroke: none;text-anchor:start;font-family:sans-serif;font-style:normal;font-weight:normal" x="378" y="345.35">
        <tspan x="378" y="345.35">Pb4</tspan>
      </text>
      <text font-size="12.8" style="fill: #000000; fill-opacity: 1; stroke: none;text-anchor:start;font-family:sans-serif;font-style:normal;font-weight:normal" x="418" y="345.35">
        <tspan x="418" y="345.35">Gnd</tspan>
      </text>
      <path style="fill: none; stroke-opacity: 1; stroke-width: 2; stroke: #000000" d="M 288,351.35 A 7.46033,7.46033 0 1 0 291,349.35"/>
    </g>
    <polyline style="fill: none; stroke-opacity: 1; stroke-width: 2; stroke: #000000" points="386,284.756 386,268.756 469,268.756 469,268.506 "/>
    <line style="fill: none; stroke-opacity: 1; stroke-width: 2; stroke: #000000" x1="640.852" y1="287.11" x2="641.088" y2="429.946"/>
    <polyline style="fill: none; stroke-opacity: 1; stroke-width: 2; stroke: #000000" points="422,365.35 422,429.966 641.088,429.966 641.088,429.952 "/>
    <g>
      <ellipse style="fill: #ffffff; fill-opacity: 1; stroke-opacity: 1; stroke-width: 2; stroke: #000000" cx="379.725" cy="400.676" rx="4.21429" ry="4.21429"/>
      <ellipse style="fill: #ffffff; fill-opacity: 1; stroke-opacity: 1; stroke-width: 2; stroke: #000000" cx="405.011" cy="400.676" rx="4.21429" ry="4.21429"/>
      <line style="fill: none; stroke-opacity: 1; stroke-width: 2; stroke: #000000" x1="375.511" y1="400.676" x2="362.868" y2="400.676"/>
      <line style="fill: none; stroke-opacity: 1; stroke-width: 2; stroke: #000000" x1="409.225" y1="400.676" x2="421.868" y2="400.676"/>
      <line style="fill: none; stroke-opacity: 1; stroke-width: 2; stroke: #000000" x1="375.511" y1="409.105" x2="409.225" y2="409.105"/>
      <line style="fill: none; stroke-opacity: 1; stroke-width: 2; stroke: #000000" x1="392.368" y1="409.105" x2="392.368" y2="417.533"/>
    </g>
    <polyline style="fill: none; stroke-opacity: 1; stroke-width: 2; stroke: #000000" points="386,365.35 386,382.534 362.868,382.534 362.868,400.676 "/>
    <g>
      <rect style="fill: #ffffff; fill-opacity: 1; stroke-opacity: 1; stroke-width: 2; stroke: #000000" x="219" y="375.35" width="40" height="40" rx="0" ry="0"/>
      <line style="fill: none; stroke-opacity: 1; stroke-width: 2; stroke: #000000" x1="259" y1="383.35" x2="267" y2="383.35"/>
      <line style="fill: none; stroke-opacity: 1; stroke-width: 2; stroke: #000000" x1="259" y1="407.35" x2="267" y2="407.35"/>
      <line style="fill: none; stroke-opacity: 1; stroke-width: 2; stroke: #000000" x1="219" y1="383.35" x2="211" y2="383.35"/>
      <line style="fill: none; stroke-opacity: 1; stroke-width: 2; stroke: #000000" x1="219" y1="407.35" x2="211" y2="407.35"/>
    </g>
    <polyline style="fill: none; stroke-opacity: 1; stroke-width: 2; stroke: #000000" points="267,407.35 314,407.35 314,429.96 641.088,429.96 "/>
    <polyline style="fill: none; stroke-opacity: 1; stroke-width: 2; stroke: #000000" points="267,383.35 267,274.35 314,274.35 314,285.35 "/>
    <g>
      <line style="fill: none; stroke-opacity: 1; stroke-width: 2; stroke-linecap: round; stroke: #000000" x1="641.042" y1="450.68" x2="641.042" y2="446.53"/>
      <line style="fill: none; stroke-opacity: 1; stroke-width: 2; stroke-linecap: round; stroke: #000000" x1="630.667" y1="450.68" x2="651.417" y2="450.68"/>
      <line style="fill: none; stroke-opacity: 1; stroke-width: 2; stroke-linecap: round; stroke: #000000" x1="633.572" y1="456.905" x2="648.512" y2="456.905"/>
      <line style="fill: none; stroke-opacity: 1; stroke-width: 2; stroke-linecap: round; stroke: #000000" x1="636.477" y1="463.13" x2="645.607" y2="463.13"/>
      <text font-size="12.8" style="fill: #000000; fill-opacity: 1; stroke: none;text-anchor:start;font-family:sans-serif;font-style:normal;font-weight:normal" x="659.642" y="464.936">
        <tspan x="659.642" y="464.936"></tspan>
      </text>
    </g>
    <g>
      <line style="fill: none; stroke-opacity: 1; stroke-width: 2; stroke: #000000" x1="189.5" y1="370.35" x2="189.5" y2="392.433"/>
      <line style="fill: none; stroke-opacity: 1; stroke-width: 2; stroke: #000000" x1="174" y1="392.433" x2="205" y2="392.433"/>
      <line style="fill: none; stroke-opacity: 1; stroke-width: 2; stroke: #000000" x1="181.75" y1="401.267" x2="197.25" y2="401.267"/>
      <line style="fill: none; stroke-opacity: 1; stroke-width: 2; stroke: #000000" x1="197.25" y1="379.183" x2="197.25" y2="388.017"/>
      <line style="fill: none; stroke-opacity: 1; stroke-width: 2; stroke: #000000" x1="193.375" y1="383.6" x2="201.125" y2="383.6"/>
      <line style="fill: none; stroke-opacity: 1; stroke-width: 2; stroke: #000000" x1="189.5" y1="401.267" x2="189.5" y2="423.35"/>
    </g>
    <polyline style="fill: none; stroke-opacity: 1; stroke-width: 2; stroke: #000000" points="189.642,312.372 189.642,312.372 211,312.372 211,383.35 "/>
    <polyline style="fill: none; stroke-opacity: 1; stroke-width: 2; stroke: #000000" points="189.5,423.35 189.5,429.96 641.088,429.96 "/>
    <polyline style="fill: none; stroke-opacity: 1; stroke-width: 2; stroke: #000000" points="640.694,161.288 189.642,161.288 189.642,312.372 "/>
    <g>
      <rect style="fill: #ffffff; fill-opacity: 1; stroke-opacity: 1; stroke-width: 2; stroke: #000000" x="716.86" y="303.405" width="17.5" height="13.3333" rx="0" ry="0"/>
      <polygon style="fill: #ffffff; fill-opacity: 1; stroke-opacity: 1; stroke-width: 2; stroke: #000000" fill-rule="evenodd" points="734.36,303.405 746.86,290.072 746.86,330.072 734.36,316.739 "/>
      <rect style="fill: #000000; fill-opacity: 1; stroke-opacity: 1; stroke-width: 2; stroke: #000000" x="732.86" y="300.739" width="1.5" height="18.6667" rx="0" ry="0"/>
    </g>
    <text font-size="12.8" style="fill: #000000; fill-opacity: 1; stroke: none;text-anchor:start;font-family:sans-serif;font-style:normal;font-weight:normal" x="227" y="408">
      <tspan x="227" y="408">5v</tspan>
      <tspan x="227" y="424">LM7805</tspan>
    </text>
    <text font-size="12.8" style="fill: #000000; fill-opacity: 1; stroke: none;text-anchor:start;font-family:sans-serif;font-style:normal;font-weight:normal" x="169" y="413.35">
      <tspan x="169" y="413.35">9v</tspan>
    </text>
    <polyline style="fill: none; stroke-opacity: 1; stroke-width: 2; stroke: #000000" points="641.062,438.684 641.062,429.918 724.36,429.918 724.36,316.74 "/>
    <text font-size="12.8" style="fill: #000000; fill-opacity: 1; stroke: none;text-anchor:start;font-family:sans-serif;font-style:normal;font-weight:normal" x="658.556" y="193.262">
      <tspan x="658.556" y="193.262">1 kΩ</tspan>
    </text>
    <g>
      <line style="fill: none; stroke-opacity: 1; stroke-width: 2; stroke: #000000" x1="640.694" y1="161.288" x2="640.694" y2="176.6"/>
      <rect style="fill: #ffffff; fill-opacity: 1; stroke-opacity: 1; stroke-width: 2; stroke: #000000" x="633.194" y="176.6" width="15" height="30.625" rx="0" ry="0"/>
      <line style="fill: none; stroke-opacity: 1; stroke-width: 2; stroke: #000000" x1="640.694" y1="207.225" x2="640.694" y2="222.538"/>
    </g>
    <text font-size="12.8" style="fill: #000000; fill-opacity: 1; stroke: none;text-anchor:start;font-family:sans-serif;font-style:normal;font-weight:normal" x="600" y="315.35">
      <tspan x="600" y="315.35">NPN</tspan>
    </text>
    <g transform="matrix(1,0,0,1,-14.1766,-1.09051)">
      <ellipse style="fill: #ffffff; fill-opacity: 1; stroke-opacity: 1; stroke-width: 2; stroke: #000000" cx="645.222" cy="269.734" rx="20" ry="20"/>
      <rect style="fill: #000000; fill-opacity: 1; stroke-opacity: 1; stroke-width: 2; stroke: #000000" x="630.222" y="259.734" width="2.5" height="20" rx="0" ry="0"/>
      <line style="fill: none; stroke-opacity: 1; stroke-width: 2; stroke: #000000" x1="630.222" y1="269.734" x2="620.222" y2="269.734"/>
      <line style="fill: none; stroke-opacity: 1; stroke-width: 2; stroke: #000000" x1="632.722" y1="269.734" x2="655.222" y2="252.234"/>
      <line style="fill: none; stroke-opacity: 1; stroke-width: 2; stroke: #000000" x1="632.722" y1="269.734" x2="655.222" y2="287.234"/>
      <polygon style="fill: #000000; fill-opacity: 1; stroke-opacity: 1; stroke-width: 2; stroke: #000000" fill-rule="evenodd" points="649.722,285.234 655.222,287.234 651.722,282.234 "/>
      <text font-size="12.8" style="fill: #000000; fill-opacity: 1; stroke: none;text-anchor:start;font-family:sans-serif;font-style:normal;font-weight:normal" x="647.722" y="300.734">
        <tspan x="647.722" y="300.734">E</tspan>
      </text>
      <text font-size="12.8" style="fill: #000000; fill-opacity: 1; stroke: none;text-anchor:start;font-family:sans-serif;font-style:normal;font-weight:normal" x="618.722" y="262.734">
        <tspan x="618.722" y="262.734">B</tspan>
      </text>
      <text font-size="12.8" style="fill: #000000; fill-opacity: 1; stroke: none;text-anchor:start;font-family:sans-serif;font-style:normal;font-weight:normal" x="643.722" y="247.734">
        <tspan x="643.722" y="247.734">C</tspan>
      </text>
    </g>
    <g>
      <line style="fill: none; stroke-opacity: 1; stroke-width: 2; stroke: #000000" x1="469" y1="269.1" x2="493" y2="269.1"/>
      <line style="fill: none; stroke-opacity: 1; stroke-width: 2; stroke: #000000" x1="493" y1="259.1" x2="493" y2="279.1"/>
      <line style="fill: none; stroke-opacity: 1; stroke-width: 2; stroke: #000000" x1="505" y1="259.1" x2="505" y2="279.1"/>
      <line style="fill: none; stroke-opacity: 1; stroke-width: 2; stroke: #000000" x1="505" y1="269.1" x2="529" y2="269.1"/>
    </g>
    <g>
      <line style="fill: none; stroke-opacity: 1; stroke-width: 2; stroke: #000000" x1="529.09" y1="310.206" x2="529.09" y2="325.206"/>
      <rect style="fill: #ffffff; fill-opacity: 1; stroke-opacity: 1; stroke-width: 2; stroke: #000000" x="519.09" y="325.206" width="20" height="30" rx="0" ry="0"/>
      <line style="fill: none; stroke-opacity: 1; stroke-width: 2; stroke: #000000" x1="529.09" y1="355.206" x2="529.09" y2="370.206"/>
    </g>
    <line style="fill: none; stroke-opacity: 1; stroke-width: 2; stroke: #000000" x1="529" y1="269.1" x2="529.09" y2="310.206"/>
    <polyline style="fill: none; stroke-opacity: 1; stroke-width: 2; stroke: #000000" points="529.09,370.206 529.09,430.1 641.062,430.1 641.062,447.268 "/>
    <text font-size="12.8" style="fill: #000000; fill-opacity: 1; stroke: none;text-anchor:start;font-family:sans-serif;font-style:normal;font-weight:normal" x="481" y="257.1">
      <tspan x="481" y="257.1">1µF</tspan>
    </text>
    <text font-size="12.8" style="fill: #000000; fill-opacity: 1; stroke: none;text-anchor:start;font-family:sans-serif;font-style:normal;font-weight:normal" x="547.274" y="344.752">
      <tspan x="547.274" y="344.752">1kΩ</tspan>
    </text>
    <text font-size="12.8" style="fill: #000000; fill-opacity: 1; stroke: none;text-anchor:start;font-family:sans-serif;font-style:normal;font-weight:normal" x="582" y="198.1">
      <tspan x="582" y="198.1"></tspan>
    </text>
    <text font-size="12.8" style="fill: #000000; fill-opacity: 1; stroke: none;text-anchor:start;font-family:sans-serif;font-style:normal;font-weight:normal" x="552.362" y="252.54">
      <tspan x="552.362" y="252.54">10 kΩ</tspan>
    </text>
    <text font-size="12.8" style="fill: #000000; fill-opacity: 1; stroke: none;text-anchor:start;font-family:sans-serif;font-style:normal;font-weight:normal" x="677.872" y="346.804">
      <tspan x="677.872" y="346.804">220 nF</tspan>
    </text>
    <g>
      <line style="fill: none; stroke-opacity: 1; stroke-width: 2; stroke: #000000" x1="664.464" y1="232.016" x2="679.464" y2="232.016"/>
      <rect style="fill: #ffffff; fill-opacity: 1; stroke-opacity: 1; stroke-width: 2; stroke: #000000" x="679.464" y="221.016" width="30" height="22" rx="0" ry="0"/>
      <line style="fill: none; stroke-opacity: 1; stroke-width: 2; stroke: #000000" x1="709.464" y1="232.016" x2="724.464" y2="232.016"/>
    </g>
    <line style="fill: none; stroke-opacity: 1; stroke-width: 2; stroke: #000000" x1="724.464" y1="232.016" x2="724.36" y2="303.406"/>
    <text font-size="12.8" style="fill: #000000; fill-opacity: 1; stroke: none;text-anchor:start;font-family:sans-serif;font-style:normal;font-weight:normal" x="679.928" y="216.05">
      <tspan x="679.928" y="216.05">68 Ω</tspan>
    </text>
    <g>
      <line style="fill: none; stroke-opacity: 1; stroke-width: 2; stroke: #000000" x1="273.784" y1="383.35" x2="283.784" y2="383.35"/>
      <rect style="fill: #ffffff; fill-opacity: 1; stroke-opacity: 1; stroke-width: 2; stroke: #000000" x="283.784" y="378.35" width="20" height="10" rx="0" ry="0"/>
      <line style="fill: none; stroke-opacity: 1; stroke-width: 2; stroke: #000000" x1="303.784" y1="383.35" x2="313.784" y2="383.35"/>
    </g>
    <line style="fill: none; stroke-opacity: 1; stroke-width: 2; stroke: #000000" x1="313.784" y1="383.35" x2="314" y2="365.35"/>
    <line style="fill: none; stroke-opacity: 1; stroke-width: 2; stroke: #000000" x1="267" y1="383.35" x2="273.784" y2="383.35"/>
    <text font-size="12.8" style="fill: #000000; fill-opacity: 1; stroke: none;text-anchor:start;font-family:sans-serif;font-style:normal;font-weight:normal" x="282" y="398.35">
      <tspan x="282" y="398.35">4,7 kΩ</tspan>
    </text>
    <text font-size="12.8" style="fill: #000000; fill-opacity: 1; stroke: none;text-anchor:middle;font-family:sans-serif;font-style:normal;font-weight:normal" x="497" y="252">
      <tspan x="497" y="252"></tspan>
    </text>
    <g>
      <line style="fill: none; stroke-opacity: 1; stroke-width: 2; stroke: #000000" x1="528.53" y1="269.39" x2="547.341" y2="269.39"/>
      <rect style="fill: #ffffff; fill-opacity: 1; stroke-opacity: 1; stroke-width: 2; stroke: #000000" x="547.341" y="259.848" width="37.6224" height="19.0838" rx="0" ry="0"/>
      <line style="fill: none; stroke-opacity: 1; stroke-width: 2; stroke: #000000" x1="584.964" y1="269.39" x2="603.775" y2="269.39"/>
    </g>
    <polyline style="fill: none; stroke-opacity: 1; stroke-width: 2; stroke: #000000" points="640.694,222.538 640.694,232.39 664.464,232.39 664.464,232.016 "/>
    <line style="fill: none; stroke-opacity: 1; stroke-width: 2; stroke: #000000" x1="640.694" y1="222.538" x2="640.622" y2="250.93"/>
    <line style="fill: none; stroke-opacity: 1; stroke-width: 2; stroke: #000000" x1="603.776" y1="269.39" x2="607.906" y2="267.832"/>
    <g>
      <line style="fill: none; stroke-opacity: 1; stroke-width: 2; stroke: #000000" x1="189.642" y1="312.372" x2="189.642" y2="333.242"/>
      <line style="fill: none; stroke-opacity: 1; stroke-width: 6; stroke: #000000" x1="179.642" y1="333.242" x2="199.642" y2="333.242"/>
      <polygon style="fill: #ffffff; fill-opacity: 1; stroke-opacity: 1; stroke-width: 2; stroke: #000000" fill-rule="evenodd" points="189.642,333.242 179.642,351.502 199.642,351.502 "/>
      <line style="fill: none; stroke-opacity: 1; stroke-width: 2; stroke: #000000" x1="189.642" y1="351.502" x2="189.642" y2="372.372"/>
    </g>
    <text font-size="12.7998" style="fill: #000000; fill-opacity: 1; stroke: none;text-anchor:start;font-family:sans-serif;font-style:normal;font-weight:normal" x="319" y="270">
      <tspan x="319" y="270">Attiny85+</tspan>
    </text>
    <text font-size="12.7998" style="fill: #000000; fill-opacity: 1; stroke: none;text-anchor:start;font-family:sans-serif;font-style:normal;font-weight:normal" x="677" y="329">
      <tspan x="677" y="329">buzzer</tspan>
    </text>
  </g>
</svg>
