#include "melody.h"

#ifdef __cplusplus
extern "C"
{
#endif

/* 440 Hz
const uint16_t frequencyTable[] PROGMEM =
{
 0,    // SILENT
// Too low frequencies for buzzer
// 31,   // NOTE_B0
// 33,   // NOTE_C1
// 35,   // NOTE_CS1
// 37,   // NOTE_D1
// 39,   // NOTE_DS1
// 41,   // NOTE_E1
// 44,   // NOTE_F1
// 46,   // NOTE_FS1
// 49,   // NOTE_G1
// 52,   // NOTE_GS1
// 55,   // NOTE_A1
// 58,   // NOTE_AS1
// 62,   // NOTE_B1
// 65,   // NOTE_C2
// 69,   // NOTE_CS2
// 73,   // NOTE_D2
// 78,   // NOTE_DS2
// 82,   // NOTE_E2
// 87,   // NOTE_F2
// 93,   // NOTE_FS2
// 98,   // NOTE_G2
// 104,  // NOTE_GS2
// 110,  // NOTE_A2
// 117,  // NOTE_AS2
// 123,  // NOTE_B2

// Good frequencies
 131,  // NOTE_C3
 139,  // NOTE_CS3
 147,  // NOTE_D3
 156,  // NOTE_DS3
 165,  // NOTE_E3
 175,  // NOTE_F3
 185,  // NOTE_FS3
 196,  // NOTE_G3
 208,  // NOTE_GS3
 220,  // NOTE_A3
 233,  // NOTE_AS3
 247,  // NOTE_B3
 262,  // NOTE_C4
 277,  // NOTE_CS4
 294,  // NOTE_D4
 311,  // NOTE_DS4
 330,  // NOTE_E4
 349,  // NOTE_F4
 370,  // NOTE_FS4
 392,  // NOTE_G4
 415,  // NOTE_GS4
 440,  // NOTE_A4
 466,  // NOTE_AS4
 494,  // NOTE_B4
 523,  // NOTE_C5
 554,  // NOTE_CS5
 587,  // NOTE_D5
 622,  // NOTE_DS5
 659,  // NOTE_E5
 698,  // NOTE_F5
 740,  // NOTE_FS5
 784,  // NOTE_G5
 831,  // NOTE_GS5
 880,  // NOTE_A5
 932,  // NOTE_AS5
 988,  // NOTE_B5
 1047, // NOTE_C6
 1109, // NOTE_CS6
 1175, // NOTE_D6
 1245, // NOTE_DS6
 1319, // NOTE_E6
 1397, // NOTE_F6
 1480, // NOTE_FS6
 1568, // NOTE_G6
 1661, // NOTE_GS6
 1760, // NOTE_A6
 1865, // NOTE_AS6
 1976, // NOTE_B6
 2093, // NOTE_C7
 2217, // NOTE_CS7
 2349, // NOTE_D7
 2489, // NOTE_DS7
 2637, // NOTE_E7

// Frequencies are two high for attiny with PWM
// 2794, // NOTE_F7
// 2960, // NOTE_FS7
// 3136, // NOTE_G7
// 3322, // NOTE_GS7
// 3520, // NOTE_A7
// 3729, // NOTE_AS7
// 3951, // NOTE_B7
// 4186, // NOTE_C8
// 4435, // NOTE_CS8
// 4699, // NOTE_D8
// 4978, // NOTE_DS8
};*/


/* 442 Hz */
const uint16_t frequencyTable[] PROGMEM =
{
	0,    // SILENT

	// Too low frequencies for buzzer
//	16,    // NOTE_C0 (16.43)
//	17,    // NOTE_CS0 (17.40)
//	18,    // NOTE_D0 (18.44)
//	20,    // NOTE_DS0 (19.53)
//	21,    // NOTE_E0 (20.70)
//	22,    // NOTE_F0 (21.93)
//	23,    // NOTE_FS0 (23.23)
//	25,    // NOTE_G0 (24.61)
//	26,    // NOTE_GS0 (26.07)
//	28,    // NOTE_A0 (27.62)
//	29,    // NOTE_AS0 (29.27)
//	31,    // NOTE_B0 (31.01)
//	33,    // NOTE_C1 (32.85)
//	35,    // NOTE_CS1 (34.81)
//	37,    // NOTE_D1 (36.87)
//	39,    // NOTE_DS1 (39.07)
//	41,    // NOTE_E1 (41.39)
//	44,    // NOTE_F1 (43.85)
//	46,    // NOTE_FS1 (46.46)
//	49,    // NOTE_G1 (49.22)
//	52,    // NOTE_GS1 (52.15)
//	55,    // NOTE_A1 (55.25)
//	59,    // NOTE_AS1 (58.54)
//	62,    // NOTE_B1 (62.02)
//	66,    // NOTE_C2 (65.70)
//	70,    // NOTE_CS2 (69.61)
//	74,    // NOTE_D2 (73.75)
//	78,    // NOTE_DS2 (78.14)
//	83,    // NOTE_E2 (82.78)
//	88,    // NOTE_F2 (87.70)
//	93,    // NOTE_FS2 (92.92)
//	98,    // NOTE_G2 (98.44)
//	104,   // NOTE_GS2 (104.30)
//	111,   // NOTE_A2 (110.50)
//	117,   // NOTE_AS2 (117.07)
//	124,   // NOTE_B2 (124.03)

// Good frequencies
	131,   // NOTE_C3 (131.41)
	139,   // NOTE_CS3 (139.22)
	148,   // NOTE_D3 (147.50)
	156,   // NOTE_DS3 (156.27)
	166,   // NOTE_E3 (165.56)
	175,   // NOTE_F3 (175.41)
	186,   // NOTE_FS3 (185.84)
	197,   // NOTE_G3 (196.89)
	209,   // NOTE_GS3 (208.60)
	221,   // NOTE_A3 (221.00)
	234,   // NOTE_AS3 (234.14)
	248,   // NOTE_B3 (248.06)
	263,   // NOTE_C4 (262.81)
	278,   // NOTE_CS4 (278.44)
	295,   // NOTE_D4 (295.00)
	313,   // NOTE_DS4 (312.54)
	331,   // NOTE_E4 (331.13)
	351,   // NOTE_F4 (350.82)
	372,   // NOTE_FS4 (371.68)
	394,   // NOTE_G4 (393.78)
	417,   // NOTE_GS4 (417.19)
	442,   // NOTE_A4 (442.00)
	468,   // NOTE_AS4 (468.28)
	496,   // NOTE_B4 (496.13)
	526,   // NOTE_C5 (525.63)
	557,   // NOTE_CS5 (556.88)
	590,   // NOTE_D5 (590.00)
	625,   // NOTE_DS5 (625.08)
	662,   // NOTE_E5 (662.25)
	702,   // NOTE_F5 (701.63)
	743,   // NOTE_FS5 (743.35)
	788,   // NOTE_G5 (787.55)
	834,   // NOTE_GS5 (834.38)
	884,   // NOTE_A5 (884.00)
	937,   // NOTE_AS5 (936.57)
	992,   // NOTE_B5 (992.26)
	1051,  // NOTE_C6 (1051.26)
	1114,  // NOTE_CS6 (1113.77)
	1180,  // NOTE_D6 (1180.00)
	1250,  // NOTE_DS6 (1250.16)
	1325,  // NOTE_E6 (1324.50)
	1403,  // NOTE_F6 (1403.26)
	1487,  // NOTE_FS6 (1486.70)
	1575,  // NOTE_G6 (1575.11)

	1669,  // NOTE_GS6 (1668.77)
	1768,  // NOTE_A6 (1768.00)
	1873,  // NOTE_AS6 (1873.13)
	1985,  // NOTE_B6 (1984.51)
	2103,  // NOTE_C7 (2102.52)
	2228,  // NOTE_CS7 (2227.54)
	2360,  // NOTE_D7 (2360.00)
	2500,  // NOTE_DS7 (2500.33)
	2649,  // NOTE_E7 (2649.01)

// Frequencies are two high for attiny with PWM
//	2807,  // NOTE_F7 (2806.52)
//	2973,  // NOTE_FS7 (2973.41)
//	3150,  // NOTE_G7 (3150.22)
//	3338,  // NOTE_GS7 (3337.54)
//	3536,  // NOTE_A7 (3536.00)
//	3746,  // NOTE_AS7 (3746.26)
//	3969,  // NOTE_B7 (3969.03)
//	4205,  // NOTE_C8 (4205.03)
//	4455,  // NOTE_CS8 (4455.08)
//	4720,  // NOTE_D8 (4719.99)
//	5001,  // NOTE_DS8 (5000.66)
//	5298,  // NOTE_E8 (5298.01)
//	5613,  // NOTE_F8 (5613.05)
//	5947,  // NOTE_FS8 (5946.82)
//	6300,  // NOTE_G8 (6300.44)
//	6675,  // NOTE_GS8 (6675.08)
//	7072,  // NOTE_A8 (7072.00)
//	7493,  // NOTE_AS8 (7492.52)
//	7938,  // NOTE_B8 (7938.05)
};


const Note pacman[] PROGMEM =
{
	{.frequency = NOTE_E5, .duration = 6},
	{.frequency = SILENT, .duration = 1},
	{.frequency = NOTE_E6, .duration = 6},
	{.frequency = SILENT, .duration = 1},
	{.frequency = NOTE_B5, .duration = 6},
	{.frequency = SILENT, .duration = 1},
	{.frequency = NOTE_GS5, .duration = 7},
	{.frequency = NOTE_E6, .duration = 5},
	{.frequency = NOTE_B5, .duration = 11},
	{.frequency = NOTE_GS5, .duration = 14},
	{.frequency = NOTE_F5, .duration = 6},
	{.frequency = SILENT, .duration = 1},
	{.frequency = NOTE_F6, .duration = 6},
	{.frequency = SILENT, .duration = 1},
	{.frequency = NOTE_C6, .duration = 6},
	{.frequency = SILENT, .duration = 1},
	{.frequency = NOTE_A5, .duration = 6},
	{.frequency = SILENT, .duration = 1},
	{.frequency = NOTE_F6, .duration = 5},
	{.frequency = NOTE_C6, .duration = 11},
	{.frequency = NOTE_A5, .duration = 14},
	{.frequency = NOTE_E5, .duration = 6},
	{.frequency = SILENT, .duration = 1},
	{.frequency = NOTE_E6, .duration = 6},
	{.frequency = SILENT, .duration = 4},
	{.frequency = NOTE_B5, .duration = 6},
	{.frequency = SILENT, .duration = 1},
	{.frequency = NOTE_GS5, .duration = 6},
	{.frequency = SILENT, .duration = 1},
	{.frequency = NOTE_E6, .duration = 5},
	{.frequency = NOTE_B5, .duration = 11},
	{.frequency = NOTE_GS5, .duration = 14},
	{.frequency = NOTE_GS5, .duration = 3},
	{.frequency = NOTE_A5, .duration = 3},
	{.frequency = NOTE_AS5, .duration = 6},
	{.frequency = SILENT, .duration = 1},
	{.frequency = NOTE_AS5, .duration = 3},
	{.frequency = NOTE_B5, .duration = 3},
	{.frequency = NOTE_C6, .duration = 6},
	{.frequency = SILENT, .duration = 1},
	{.frequency = NOTE_C6, .duration = 3},
	{.frequency = NOTE_CS6, .duration = 3},
	{.frequency = NOTE_D6, .duration = 6},
	{.frequency = SILENT, .duration = 1},
	{.frequency = NOTE_E6, .duration = 14},
	{.frequency = SILENT, .duration = 0},
};

const Note tetrisB[] PROGMEM =
{
	// note = 75 % , silence = 25 %
	// double = 10 [7 3] (pointe 6 4)
	// croche = 21 [16 5] (pointe 15 6)
	// noir = 43 [32 11]
	{.frequency = NOTE_E5, .duration = 16},
	{.frequency = SILENT, .duration = 5},
	{.frequency = NOTE_E5, .duration = 6},
	{.frequency = SILENT, .duration = 4},
	{.frequency = NOTE_E5, .duration = 6},
	{.frequency = SILENT, .duration = 4},
	{.frequency = NOTE_B4, .duration = 16},
	{.frequency = SILENT, .duration = 5},
	{.frequency = NOTE_B4, .duration = 16},
	{.frequency = SILENT, .duration = 5},
	{.frequency = NOTE_E5, .duration = 16},
	{.frequency = SILENT, .duration = 5},
	{.frequency = NOTE_E5, .duration = 6},
	{.frequency = SILENT, .duration = 4},
	{.frequency = NOTE_E5, .duration = 6},
	{.frequency = SILENT, .duration = 4},
	{.frequency = NOTE_B4, .duration = 16},
	{.frequency = SILENT, .duration = 5},
	{.frequency = NOTE_B4, .duration = 16},
	{.frequency = SILENT, .duration = 5},
	{.frequency = NOTE_E5, .duration = 16},
	{.frequency = SILENT, .duration = 5},
	{.frequency = NOTE_E5, .duration = 6},
	{.frequency = SILENT, .duration = 4},
	{.frequency = NOTE_E5, .duration = 6},
	{.frequency = SILENT, .duration = 4},
	{.frequency = NOTE_B4, .duration = 16},
	{.frequency = SILENT, .duration = 5},
	{.frequency = NOTE_B4, .duration = 16},
	{.frequency = SILENT, .duration = 5},
	{.frequency = NOTE_E5, .duration = 16},
	{.frequency = SILENT, .duration = 5},
	{.frequency = NOTE_E5, .duration = 6},
	{.frequency = SILENT, .duration = 4},
	{.frequency = NOTE_E5, .duration = 6},
	{.frequency = SILENT, .duration = 4},
	{.frequency = NOTE_B4, .duration = 16},
	{.frequency = SILENT, .duration = 5},
	{.frequency = NOTE_B4, .duration = 16},
	{.frequency = SILENT, .duration = 5},
	{.frequency = NOTE_E5, .duration = 16},
	{.frequency = SILENT, .duration = 5},
	{.frequency = NOTE_E5, .duration = 6},
	{.frequency = SILENT, .duration = 4},
	{.frequency = NOTE_E5, .duration = 6},
	{.frequency = SILENT, .duration = 4},
	{.frequency = NOTE_B4, .duration = 16},
	{.frequency = SILENT, .duration = 5},
	{.frequency = NOTE_B4, .duration = 16},
	{.frequency = SILENT, .duration = 5},
	{.frequency = NOTE_E5, .duration = 16},
	{.frequency = SILENT, .duration = 5},
	{.frequency = NOTE_E5, .duration = 6},
	{.frequency = SILENT, .duration = 4},
	{.frequency = NOTE_E5, .duration = 6},
	{.frequency = SILENT, .duration = 4},
	{.frequency = NOTE_B4, .duration = 16},
	{.frequency = SILENT, .duration = 5},
	{.frequency = NOTE_B4, .duration = 16},
	{.frequency = SILENT, .duration = 5},
	{.frequency = NOTE_E6, .duration = 15},
	{.frequency = SILENT, .duration = 6},
	{.frequency = NOTE_B6, .duration = 15},
	{.frequency = SILENT, .duration = 6},
	{.frequency = NOTE_E7, .duration = 15},
	{.frequency = SILENT, .duration = 6},
	{.frequency = NOTE_B6, .duration = 7},
	{.frequency = SILENT, .duration = 3},
	{.frequency = NOTE_B6, .duration = 7},
	{.frequency = SILENT, .duration = 3},
	{.frequency = NOTE_C7, .duration = 15},
	{.frequency = SILENT, .duration = 6},
	{.frequency = NOTE_A6, .duration = 15},
	{.frequency = SILENT, .duration = 6},
	{.frequency = NOTE_B6, .duration = 15},
	{.frequency = SILENT, .duration = 6},
	{.frequency = NOTE_G6, .duration = 7},
	{.frequency = SILENT, .duration = 3},
	{.frequency = NOTE_G6, .duration = 7},
	{.frequency = SILENT, .duration = 3},
	{.frequency = NOTE_A6, .duration = 15},
	{.frequency = SILENT, .duration = 6},
	{.frequency = NOTE_FS6, .duration = 15},
	{.frequency = SILENT, .duration = 6},
	{.frequency = NOTE_G6, .duration = 15},
	{.frequency = SILENT, .duration = 6},
	{.frequency = NOTE_E6, .duration = 7},
	{.frequency = SILENT, .duration = 3},
	{.frequency = NOTE_E6, .duration = 7},
	{.frequency = SILENT, .duration = 3},
	{.frequency = NOTE_FS6, .duration = 15},
	{.frequency = SILENT, .duration = 6},
	{.frequency = NOTE_DS6, .duration = 15},
	{.frequency = SILENT, .duration = 6},
	{.frequency = NOTE_E6, .duration = 15},
	{.frequency = SILENT, .duration = 6},
	{.frequency = NOTE_FS6, .duration = 7},
	{.frequency = SILENT, .duration = 3},
	{.frequency = NOTE_FS6, .duration = 7},
	{.frequency = SILENT, .duration = 3},
	{.frequency = NOTE_E6, .duration = 15},
	{.frequency = SILENT, .duration = 6},
	{.frequency = NOTE_B5, .duration = 16},
	{.frequency = SILENT, .duration = 5},
	{.frequency = NOTE_DS6, .duration = 16},
	{.frequency = SILENT, .duration = 5},
	{.frequency = NOTE_FS6, .duration = 16},
	{.frequency = SILENT, .duration = 5},
	{.frequency = NOTE_E6, .duration = 16},
	{.frequency = SILENT, .duration = 5},
	{.frequency = NOTE_B5, .duration = 16},
	{.frequency = SILENT, .duration = 5},
	{.frequency = NOTE_FS6, .duration = 16},
	{.frequency = SILENT, .duration = 5},
	{.frequency = NOTE_DS6, .duration = 16},
	{.frequency = SILENT, .duration = 5},
	{.frequency = NOTE_E6, .duration = 15},
	{.frequency = SILENT, .duration = 6},
	{.frequency = NOTE_B6, .duration = 15},
	{.frequency = SILENT, .duration = 6},
	{.frequency = NOTE_E7, .duration = 15},
	{.frequency = SILENT, .duration = 6},
	{.frequency = NOTE_B6, .duration = 7},
	{.frequency = SILENT, .duration = 3},
	{.frequency = NOTE_B6, .duration = 7},
	{.frequency = SILENT, .duration = 3},
	{.frequency = NOTE_C7, .duration = 15},
	{.frequency = SILENT, .duration = 6},
	{.frequency = NOTE_A6, .duration = 15},
	{.frequency = SILENT, .duration = 6},
	{.frequency = NOTE_B6, .duration = 15},
	{.frequency = SILENT, .duration = 6},
	{.frequency = NOTE_G6, .duration = 7},
	{.frequency = SILENT, .duration = 3},
	{.frequency = NOTE_G6, .duration = 7},
	{.frequency = SILENT, .duration = 3},
	{.frequency = NOTE_A6, .duration = 15},
	{.frequency = SILENT, .duration = 6},
	{.frequency = NOTE_FS6, .duration = 15},
	{.frequency = SILENT, .duration = 6},
	{.frequency = NOTE_G6, .duration = 15},
	{.frequency = SILENT, .duration = 6},
	{.frequency = NOTE_E6, .duration = 7},
	{.frequency = SILENT, .duration = 3},
	{.frequency = NOTE_E6, .duration = 7},
	{.frequency = SILENT, .duration = 3},
	{.frequency = NOTE_FS6, .duration = 15},
	{.frequency = SILENT, .duration = 6},
	{.frequency = NOTE_DS6, .duration = 15},
	{.frequency = SILENT, .duration = 6},
	{.frequency = NOTE_E6, .duration = 15},
	{.frequency = SILENT, .duration = 6},
	{.frequency = NOTE_FS6, .duration = 7},
	{.frequency = SILENT, .duration = 3},
	{.frequency = NOTE_FS6, .duration = 7},
	{.frequency = SILENT, .duration = 3},
	{.frequency = NOTE_E6, .duration = 15},
	{.frequency = SILENT, .duration = 6},
	{.frequency = NOTE_B5, .duration = 16},
	{.frequency = SILENT, .duration = 5},
	{.frequency = NOTE_DS6, .duration = 16},
	{.frequency = SILENT, .duration = 5},
	{.frequency = NOTE_FS6, .duration = 16},
	{.frequency = SILENT, .duration = 5},
	{.frequency = NOTE_E6, .duration = 16},
	{.frequency = SILENT, .duration = 5},
	{.frequency = NOTE_B5, .duration = 16},
	{.frequency = SILENT, .duration = 5},
	{.frequency = NOTE_FS6, .duration = 15},
	{.frequency = SILENT, .duration = 6},
	{.frequency = NOTE_DS6, .duration = 15},
	{.frequency = SILENT, .duration = 6},
	{.frequency = NOTE_E6, .duration = 114},
	{.frequency = SILENT, .duration = 15},
	{.frequency = NOTE_FS6, .duration = 15},
	{.frequency = SILENT, .duration = 6},
	{.frequency = NOTE_DS6, .duration = 15},
	{.frequency = SILENT, .duration = 6},
	{.frequency = NOTE_E6, .duration = 114},
	{.frequency = SILENT, .duration = 15},
	{.frequency = NOTE_FS6, .duration = 31},
	{.frequency = SILENT, .duration = 12},
	{.frequency = NOTE_G6, .duration = 16},
	{.frequency = SILENT, .duration = 5},
	{.frequency = NOTE_G6, .duration = 6},
	{.frequency = SILENT, .duration = 4},
	{.frequency = NOTE_G6, .duration = 6},
	{.frequency = SILENT, .duration = 4},
	{.frequency = NOTE_A6, .duration = 16},
	{.frequency = SILENT, .duration = 5},
	{.frequency = NOTE_FS6, .duration = 16},
	{.frequency = SILENT, .duration = 5},
	{.frequency = NOTE_G6, .duration = 16},
	{.frequency = SILENT, .duration = 5},
	{.frequency = NOTE_G6, .duration = 6},
	{.frequency = SILENT, .duration = 4},
	{.frequency = NOTE_G6, .duration = 6},
	{.frequency = SILENT, .duration = 4},
	{.frequency = NOTE_A6, .duration = 16},
	{.frequency = SILENT, .duration = 5},
	{.frequency = NOTE_FS6, .duration = 16},
	{.frequency = SILENT, .duration = 5},
	{.frequency = NOTE_G6, .duration = 114},
	{.frequency = SILENT, .duration = 15},
	{.frequency = NOTE_A6, .duration = 32},
	{.frequency = SILENT, .duration = 11},
	{.frequency = NOTE_B6, .duration = 16},
	{.frequency = SILENT, .duration = 5},
	{.frequency = NOTE_B6, .duration = 6},
	{.frequency = SILENT, .duration = 4},
	{.frequency = NOTE_B6, .duration = 7},
	{.frequency = SILENT, .duration = 3},
	{.frequency = NOTE_C7, .duration = 16},
	{.frequency = SILENT, .duration = 5},
	{.frequency = NOTE_A6, .duration = 16},
	{.frequency = SILENT, .duration = 5},
	{.frequency = NOTE_B6, .duration = 16},
	{.frequency = SILENT, .duration = 5},
	{.frequency = NOTE_B6, .duration = 6},
	{.frequency = SILENT, .duration = 4},
	{.frequency = NOTE_B6, .duration = 6},
	{.frequency = SILENT, .duration = 4},
	{.frequency = NOTE_C7, .duration = 16},
	{.frequency = SILENT, .duration = 5},
	{.frequency = NOTE_A6, .duration = 16},
	{.frequency = SILENT, .duration = 5},
	{.frequency = NOTE_B6, .duration = 114},
	{.frequency = SILENT, .duration = 15},
	{.frequency = NOTE_CS7, .duration = 32},
	{.frequency = SILENT, .duration = 11},
	{.frequency = NOTE_D7, .duration = 16},
	{.frequency = SILENT, .duration = 5},
	{.frequency = NOTE_D7, .duration = 6},
	{.frequency = SILENT, .duration = 4},
	{.frequency = NOTE_D7, .duration = 6},
	{.frequency = SILENT, .duration = 4},
	{.frequency = NOTE_D7, .duration = 16},
	{.frequency = SILENT, .duration = 5},
	{.frequency = NOTE_D7, .duration = 16},
	{.frequency = SILENT, .duration = 5},
	{.frequency = NOTE_E7, .duration = 16},
	{.frequency = SILENT, .duration = 5},
	{.frequency = NOTE_D7, .duration = 16},
	{.frequency = SILENT, .duration = 5},
	{.frequency = NOTE_D7, .duration = 16},
	{.frequency = SILENT, .duration = 5},
	{.frequency = NOTE_CS7, .duration = 16},
	{.frequency = SILENT, .duration = 5},
	{.frequency = NOTE_D7, .duration = 16},
	{.frequency = SILENT, .duration = 5},
	{.frequency = NOTE_D7, .duration = 6},
	{.frequency = SILENT, .duration = 4},
	{.frequency = NOTE_D7, .duration = 6},
	{.frequency = SILENT, .duration = 4},
	{.frequency = NOTE_D7, .duration = 16},
	{.frequency = SILENT, .duration = 5},
	{.frequency = NOTE_D7, .duration = 16},
	{.frequency = SILENT, .duration = 5},
	{.frequency = NOTE_E7, .duration = 16},
	{.frequency = SILENT, .duration = 5},
	{.frequency = NOTE_D7, .duration = 16},
	{.frequency = SILENT, .duration = 5},
	{.frequency = NOTE_D7, .duration = 16},
	{.frequency = SILENT, .duration = 5},
	{.frequency = NOTE_CS7, .duration = 16},
	{.frequency = SILENT, .duration = 5},
	{.frequency = NOTE_D7, .duration = 16},
	{.frequency = SILENT, .duration = 5},
	{.frequency = NOTE_D7, .duration = 7},
	{.frequency = SILENT, .duration = 3},
	{.frequency = NOTE_D7, .duration = 7},
	{.frequency = SILENT, .duration = 3},
	{.frequency = NOTE_D7, .duration = 15},
	{.frequency = SILENT, .duration = 6},
	{.frequency = NOTE_D7, .duration = 15},
	{.frequency = SILENT, .duration = 6},
	{.frequency = NOTE_CS7, .duration = 15},
	{.frequency = SILENT, .duration = 6},
	{.frequency = NOTE_CS7, .duration = 7},
	{.frequency = SILENT, .duration = 3},
	{.frequency = NOTE_CS7, .duration = 7},
	{.frequency = SILENT, .duration = 3},
	{.frequency = NOTE_CS7, .duration = 15},
	{.frequency = SILENT, .duration = 6},
	{.frequency = NOTE_CS7, .duration = 15},
	{.frequency = SILENT, .duration = 6},
	{.frequency = NOTE_C7, .duration = 15},
	{.frequency = SILENT, .duration = 6},
	{.frequency = NOTE_C7, .duration = 7},
	{.frequency = SILENT, .duration = 3},
	{.frequency = NOTE_C7, .duration = 7},
	{.frequency = SILENT, .duration = 3},
	{.frequency = NOTE_C7, .duration = 15},
	{.frequency = SILENT, .duration = 6},
	{.frequency = NOTE_A6, .duration = 16},
	{.frequency = SILENT, .duration = 5},
	{.frequency = NOTE_FS6, .duration = 16},
	{.frequency = SILENT, .duration = 5},
	{.frequency = NOTE_G6, .duration = 16},
	{.frequency = SILENT, .duration = 5},
	{.frequency = NOTE_A6, .duration = 16},
	{.frequency = SILENT, .duration = 26},
	{.frequency = NOTE_A6, .duration = 16},
	{.frequency = SILENT, .duration = 5},
	{.frequency = NOTE_G6, .duration = 16},
	{.frequency = SILENT, .duration = 5},
	{.frequency = NOTE_E6, .duration = 16},
	{.frequency = SILENT, .duration = 5},
	{.frequency = NOTE_G6, .duration = 24},
	{.frequency = SILENT, .duration = 6},
	{.frequency = NOTE_E6, .duration = 7},
	{.frequency = SILENT, .duration = 3},
	{.frequency = NOTE_A6, .duration = 7},
	{.frequency = SILENT, .duration = 3},
	{.frequency = NOTE_G6, .duration = 16},
	{.frequency = SILENT, .duration = 5},
	{.frequency = NOTE_E6, .duration = 16},
	{.frequency = SILENT, .duration = 5},
	{.frequency = NOTE_A6, .duration = 16},
	{.frequency = SILENT, .duration = 5},
	{.frequency = NOTE_G6, .duration = 16},
	{.frequency = SILENT, .duration = 5},
	{.frequency = NOTE_E6, .duration = 16},
	{.frequency = SILENT, .duration = 5},
	{.frequency = NOTE_G6, .duration = 24},
	{.frequency = SILENT, .duration = 6},
	{.frequency = NOTE_A6, .duration = 7},
	{.frequency = SILENT, .duration = 3},
	{.frequency = NOTE_A6, .duration = 7},
	{.frequency = SILENT, .duration = 3},
	{.frequency = NOTE_G6, .duration = 16},
	{.frequency = SILENT, .duration = 5},
	{.frequency = NOTE_FS6, .duration = 16},
	{.frequency = SILENT, .duration = 5},
	{.frequency = NOTE_D6, .duration = 157},
	{.frequency = SILENT, .duration = 0},
};

//the elders scroll III
const Note morrowind[] PROGMEM =
{
	{.frequency = NOTE_C5, .duration = 36},
	{.frequency = NOTE_D5, .duration = 36},
	{.frequency = NOTE_DS5, .duration = 141},
	{.frequency = SILENT, .duration = 3},
	{.frequency = NOTE_DS5, .duration = 36},
	{.frequency = NOTE_F5, .duration = 36},
	{.frequency = NOTE_G5, .duration = 141},
	{.frequency = SILENT, .duration = 3},
	{.frequency = NOTE_G5, .duration = 36},
	{.frequency = NOTE_AS5, .duration = 36},
	{.frequency = NOTE_F5, .duration = 108},
	{.frequency = NOTE_G5, .duration = 18},
	{.frequency = NOTE_F5, .duration = 18},
	{.frequency = NOTE_DS5, .duration = 36},
	{.frequency = NOTE_D5, .duration = 36},
	{.frequency = NOTE_C5, .duration = 141},
	{.frequency = SILENT, .duration = 3},
	{.frequency = NOTE_C5, .duration = 36},
	{.frequency = NOTE_D5, .duration = 36},
	{.frequency = NOTE_DS5, .duration = 141},
	{.frequency = SILENT, .duration = 3},
	{.frequency = NOTE_DS5, .duration = 36},
	{.frequency = NOTE_F5, .duration = 36},
	{.frequency = NOTE_G5, .duration = 141},
	{.frequency = SILENT, .duration = 3},
	{.frequency = NOTE_G5, .duration = 36},
	{.frequency = NOTE_AS5, .duration = 36},
	{.frequency = NOTE_C6, .duration = 141},
	{.frequency = SILENT, .duration = 3},
	{.frequency = NOTE_AS5, .duration = 36},
	{.frequency = NOTE_D6, .duration = 36},
	{.frequency = NOTE_C6, .duration = 141},
	{.frequency = SILENT, .duration = 3},
	{.frequency = NOTE_C6, .duration = 54},
	{.frequency = NOTE_D6, .duration = 18},
	{.frequency = NOTE_DS6, .duration = 72},
	{.frequency = NOTE_D6, .duration = 72},
	{.frequency = NOTE_C6, .duration = 72},
	{.frequency = NOTE_AS5, .duration = 72},
	{.frequency = NOTE_GS5, .duration = 72},
	{.frequency = NOTE_G5, .duration = 72},
	{.frequency = NOTE_F5, .duration = 141},
	{.frequency = SILENT, .duration = 3},
	{.frequency = NOTE_DS5, .duration = 108},
	{.frequency = NOTE_G5, .duration = 36},
	{.frequency = NOTE_F5, .duration = 141},
	{.frequency = SILENT, .duration = 3},
	{.frequency = NOTE_DS5, .duration = 36},
	{.frequency = NOTE_D5, .duration = 36},
	{.frequency = NOTE_C5, .duration = 180},
	{.frequency = NOTE_C5, .duration = 177},
	{.frequency = SILENT, .duration = 3},
	{.frequency = NOTE_C6, .duration = 36},
	{.frequency = NOTE_D6, .duration = 36},
	{.frequency = NOTE_DS6, .duration = 141},
	{.frequency = SILENT, .duration = 3},
	{.frequency = NOTE_DS6, .duration = 36},
	{.frequency = NOTE_F6, .duration = 36},
	{.frequency = NOTE_G6, .duration = 141},
	{.frequency = SILENT, .duration = 3},
	{.frequency = NOTE_G6, .duration = 36},
	{.frequency = NOTE_AS6, .duration = 36},
	{.frequency = NOTE_F6, .duration = 108},
	{.frequency = NOTE_G6, .duration = 18},
	{.frequency = NOTE_F6, .duration = 18},
	{.frequency = NOTE_DS6, .duration = 36},
	{.frequency = NOTE_D6, .duration = 36},
	{.frequency = NOTE_C6, .duration = 141},
	{.frequency = SILENT, .duration = 3},
	{.frequency = NOTE_C6, .duration = 36},
	{.frequency = NOTE_D6, .duration = 36},
	{.frequency = NOTE_DS6, .duration = 141},
	{.frequency = SILENT, .duration = 3},
	{.frequency = NOTE_DS6, .duration = 36},
	{.frequency = NOTE_F6, .duration = 36},
	{.frequency = NOTE_G6, .duration = 141},
	{.frequency = SILENT, .duration = 3},
	{.frequency = NOTE_G6, .duration = 36},
	{.frequency = NOTE_AS6, .duration = 36},
	{.frequency = NOTE_C7, .duration = 141},
	{.frequency = SILENT, .duration = 3},
	{.frequency = NOTE_AS6, .duration = 36},
	{.frequency = NOTE_D7, .duration = 36},
	{.frequency = NOTE_C7, .duration = 141},
	{.frequency = SILENT, .duration = 3},
	{.frequency = NOTE_C7, .duration = 54},
	{.frequency = NOTE_D7, .duration = 18},
	{.frequency = NOTE_DS7, .duration = 72},
	{.frequency = NOTE_D7, .duration = 72},
	{.frequency = NOTE_C7, .duration = 72},
	{.frequency = NOTE_AS6, .duration = 72},
	{.frequency = NOTE_GS6, .duration = 72},
	{.frequency = NOTE_G6, .duration = 72},
	{.frequency = NOTE_F6, .duration = 141},
	{.frequency = SILENT, .duration = 3},
	{.frequency = NOTE_DS6, .duration = 36},
	{.frequency = NOTE_G6, .duration = 36},
	{.frequency = NOTE_F6, .duration = 141},
	{.frequency = SILENT, .duration = 3},
	{.frequency = NOTE_DS5, .duration = 36},
	{.frequency = NOTE_D5, .duration = 36},
	{.frequency = NOTE_C5, .duration = 180},
	{.frequency = NOTE_C5, .duration = 177},
	{.frequency = SILENT, .duration = 3},
	{.frequency = NOTE_DS5, .duration = 36},
	{.frequency = NOTE_D5, .duration = 36},
	{.frequency = NOTE_C5, .duration = 216},
	{.frequency = NOTE_C5, .duration = 216},
	{.frequency = NOTE_C5, .duration = 213},
	{.frequency = SILENT, .duration = 0},
};

// todo : add harp part...
const Note tomb_raider[] PROGMEM =
{
	{.frequency = NOTE_C6, .duration = 150},
	{.frequency = NOTE_C6, .duration = 130},
	{.frequency = SILENT, .duration = 20},
	{.frequency = NOTE_D6, .duration = 50},
	{.frequency = NOTE_AS5, .duration = 50},
	{.frequency = NOTE_C6, .duration = 230},
	{.frequency = SILENT, .duration = 20},
	{.frequency = NOTE_DS6, .duration = 50},
	{.frequency = NOTE_D6, .duration = 100},
	{.frequency = NOTE_C6, .duration = 230},
	{.frequency = SILENT, .duration = 20},
	{.frequency = NOTE_D6, .duration = 50},
	{.frequency = NOTE_AS5, .duration = 50},
	{.frequency = NOTE_C6, .duration = 150},
	{.frequency = NOTE_C6, .duration = 130},
	{.frequency = SILENT, .duration = 20},
	{.frequency = NOTE_AS5, .duration = 100},
	{.frequency = NOTE_C6, .duration = 200},
	{.frequency = NOTE_C6, .duration = 200},
	{.frequency = SILENT, .duration = 0},
};

const Note bubble_booble_themeB[] PROGMEM =
{
	{.frequency = NOTE_C6, .duration = 25},
	{.frequency = NOTE_G5, .duration = 12},
	{.frequency = NOTE_G5, .duration = 12},
	{.frequency = NOTE_A5, .duration = 25},
	{.frequency = NOTE_B5, .duration = 25},
	{.frequency = NOTE_C6, .duration = 25},
	{.frequency = NOTE_D6, .duration = 25},
	{.frequency = NOTE_E6, .duration = 25},
	{.frequency = NOTE_C6, .duration = 25},
	{.frequency = NOTE_F6, .duration = 25},
	{.frequency = NOTE_E6, .duration = 25},
	{.frequency = NOTE_D6, .duration = 25},
	{.frequency = NOTE_C6, .duration = 25},
	{.frequency = NOTE_B5, .duration = 100},
	{.frequency = NOTE_C6, .duration = 25},
	{.frequency = NOTE_G5, .duration = 12},
	{.frequency = NOTE_G5, .duration = 12},
	{.frequency = NOTE_A5, .duration = 25},
	{.frequency = NOTE_B5, .duration = 25},
	{.frequency = NOTE_C6, .duration = 25},
	{.frequency = NOTE_D6, .duration = 25},
	{.frequency = NOTE_E6, .duration = 25},
	{.frequency = NOTE_C6, .duration = 25},
	{.frequency = NOTE_D6, .duration = 25},
	{.frequency = NOTE_C6, .duration = 25},
	{.frequency = NOTE_B5, .duration = 25},
	{.frequency = NOTE_D6, .duration = 25},
	{.frequency = NOTE_C6, .duration = 100},
	{.frequency = NOTE_C6, .duration = 25},
	{.frequency = NOTE_G5, .duration = 12},
	{.frequency = NOTE_G5, .duration = 12},
	{.frequency = NOTE_A5, .duration = 25},
	{.frequency = NOTE_B5, .duration = 25},
	{.frequency = NOTE_C6, .duration = 25},
	{.frequency = NOTE_D6, .duration = 25},
	{.frequency = NOTE_E6, .duration = 25},
	{.frequency = NOTE_C6, .duration = 25},
	{.frequency = NOTE_F6, .duration = 25},
	{.frequency = NOTE_E6, .duration = 25},
	{.frequency = NOTE_D6, .duration = 25},
	{.frequency = NOTE_C6, .duration = 25},
	{.frequency = NOTE_B5, .duration = 25},
	{.frequency = NOTE_A5, .duration = 25},
	{.frequency = NOTE_G5, .duration = 25},
	{.frequency = NOTE_F5, .duration = 25},
	{.frequency = NOTE_C6, .duration = 25},
	{.frequency = NOTE_G5, .duration = 12},
	{.frequency = NOTE_G5, .duration = 12},
	{.frequency = NOTE_A5, .duration = 25},
	{.frequency = NOTE_B5, .duration = 25},
	{.frequency = NOTE_C6, .duration = 25},
	{.frequency = NOTE_D6, .duration = 25},
	{.frequency = NOTE_E6, .duration = 25},
	{.frequency = NOTE_C6, .duration = 25},
	{.frequency = NOTE_D6, .duration = 25},
	{.frequency = NOTE_C6, .duration = 25},
	{.frequency = NOTE_B5, .duration = 25},
	{.frequency = NOTE_D6, .duration = 25},
	{.frequency = NOTE_C6, .duration = 100},
	{.frequency = NOTE_F6, .duration = 25},
	{.frequency = NOTE_C6, .duration = 25},
	{.frequency = NOTE_A5, .duration = 25},
	{.frequency = NOTE_F6, .duration = 25},
	{.frequency = NOTE_A5, .duration = 12},
	{.frequency = NOTE_C6, .duration = 12},
	{.frequency = NOTE_F6, .duration = 25},
	{.frequency = NOTE_G6, .duration = 25},
	{.frequency = NOTE_F6, .duration = 25},
	{.frequency = NOTE_E6, .duration = 25},
	{.frequency = NOTE_C6, .duration = 25},
	{.frequency = NOTE_G5, .duration = 25},
	{.frequency = NOTE_E6, .duration = 25},
	{.frequency = NOTE_G5, .duration = 12},
	{.frequency = NOTE_C6, .duration = 12},
	{.frequency = NOTE_E6, .duration = 25},
	{.frequency = NOTE_F6, .duration = 25},
	{.frequency = NOTE_E6, .duration = 25},
	{.frequency = NOTE_D6, .duration = 25},
	{.frequency = NOTE_B5, .duration = 25},
	{.frequency = NOTE_G5, .duration = 25},
	{.frequency = NOTE_D6, .duration = 25},
	{.frequency = NOTE_G5, .duration = 12},
	{.frequency = NOTE_B5, .duration = 12},
	{.frequency = NOTE_D6, .duration = 25},
	{.frequency = NOTE_G6, .duration = 25},
	{.frequency = NOTE_F6, .duration = 25},
	{.frequency = NOTE_E6, .duration = 25},
	{.frequency = NOTE_C6, .duration = 25},
	{.frequency = NOTE_G5, .duration = 25},
	{.frequency = NOTE_C6, .duration = 25},
	{.frequency = NOTE_E6, .duration = 100},
	{.frequency = NOTE_A6, .duration = 25},
	{.frequency = NOTE_F6, .duration = 25},
	{.frequency = NOTE_C6, .duration = 25},
	{.frequency = NOTE_A6, .duration = 25},
	{.frequency = NOTE_C6, .duration = 12},
	{.frequency = NOTE_F6, .duration = 12},
	{.frequency = NOTE_A6, .duration = 25},
	{.frequency = NOTE_B6, .duration = 25},
	{.frequency = NOTE_A6, .duration = 25},
	{.frequency = NOTE_G6, .duration = 25},
	{.frequency = NOTE_E6, .duration = 25},
	{.frequency = NOTE_C6, .duration = 25},
	{.frequency = NOTE_G6, .duration = 25},
	{.frequency = NOTE_C6, .duration = 12},
	{.frequency = NOTE_E6, .duration = 12},
	{.frequency = NOTE_G6, .duration = 25},
	{.frequency = NOTE_A6, .duration = 25},
	{.frequency = NOTE_G6, .duration = 25},
	{.frequency = NOTE_F6, .duration = 25},
	{.frequency = NOTE_D6, .duration = 25},
	{.frequency = NOTE_A5, .duration = 25},
	{.frequency = NOTE_E6, .duration = 25},
	{.frequency = NOTE_D6, .duration = 25},
	{.frequency = NOTE_C6, .duration = 25},
	{.frequency = NOTE_B5, .duration = 25},
	{.frequency = NOTE_D6, .duration = 25},
	{.frequency = NOTE_C6, .duration = 200},
	{.frequency = SILENT, .duration = 0},
};

const Note frogger[] PROGMEM =
{
	{.frequency = NOTE_FS6, .duration = 19},
	{.frequency = SILENT, .duration = 3},
	{.frequency = NOTE_D6, .duration = 19},
	{.frequency = SILENT, .duration = 3},
	{.frequency = NOTE_A5, .duration = 19},
	{.frequency = SILENT, .duration = 3},
	{.frequency = NOTE_D6, .duration = 19},
	{.frequency = SILENT, .duration = 3},
	{.frequency = NOTE_FS6, .duration = 19},
	{.frequency = SILENT, .duration = 3},
	{.frequency = NOTE_D6, .duration = 19},
	{.frequency = SILENT, .duration = 3},
	{.frequency = NOTE_A5, .duration = 19},
	{.frequency = SILENT, .duration = 3},
	{.frequency = NOTE_D6, .duration = 19},
	{.frequency = SILENT, .duration = 3},
	{.frequency = NOTE_G6, .duration = 19},
	{.frequency = SILENT, .duration = 3},
	{.frequency = NOTE_G6, .duration = 19},
	{.frequency = SILENT, .duration = 3},
	{.frequency = NOTE_FS6, .duration = 19},
	{.frequency = SILENT, .duration = 3},
	{.frequency = NOTE_FS6, .duration = 19},
	{.frequency = SILENT, .duration = 3},
	{.frequency = NOTE_E6, .duration = 44},
	{.frequency = SILENT, .duration = 73},
	{.frequency = NOTE_G6, .duration = 7},
	{.frequency = SILENT, .duration = 14},
	{.frequency = NOTE_G6, .duration = 19},
	{.frequency = SILENT, .duration = 7},
	{.frequency = NOTE_FS6, .duration = 7},
	{.frequency = SILENT, .duration = 14},
	{.frequency = NOTE_FS6, .duration = 7},
	{.frequency = SILENT, .duration = 10},
	{.frequency = NOTE_E6, .duration = 7},
	{.frequency = SILENT, .duration = 5},
	{.frequency = NOTE_E6, .duration = 7},
	{.frequency = SILENT, .duration = 5},
	{.frequency = NOTE_B6, .duration = 13},
	{.frequency = SILENT, .duration = 3},
	{.frequency = NOTE_B6, .duration = 19},
	{.frequency = SILENT, .duration = 3},
	{.frequency = NOTE_A6, .duration = 19},
	{.frequency = SILENT, .duration = 10},
	{.frequency = NOTE_G6, .duration = 2},
	{.frequency = SILENT, .duration = 14},
	{.frequency = NOTE_F6, .duration = 19},
	{.frequency = SILENT, .duration = 10},
	{.frequency = NOTE_E6, .duration = 7},
	{.frequency = SILENT, .duration = 2},
	{.frequency = NOTE_D6, .duration = 45},
	{.frequency = SILENT, .duration = 0},
};

const Note zelda[] PROGMEM =
{
	{.frequency = NOTE_AS5, .duration = 15},
	{.frequency = SILENT, .duration = 45},
	{.frequency = NOTE_F5, .duration = 60},
	{.frequency = SILENT, .duration = 30},
	{.frequency = NOTE_AS5, .duration = 15},
	{.frequency = SILENT, .duration = 5},
	{.frequency = NOTE_AS5, .duration = 15},
	{.frequency = SILENT, .duration = 5},
	{.frequency = NOTE_C6, .duration = 15},
	{.frequency = SILENT, .duration = 5},
	{.frequency = NOTE_D6, .duration = 15},
	{.frequency = SILENT, .duration = 5},
	{.frequency = NOTE_DS6, .duration = 15},
	{.frequency = SILENT, .duration = 5},
	{.frequency = NOTE_F6, .duration = 60},
	{.frequency = SILENT, .duration = 30},
	{.frequency = NOTE_F6, .duration = 10},
	{.frequency = SILENT, .duration = 10},
	{.frequency = NOTE_F6, .duration = 15},
	{.frequency = SILENT, .duration = 5},
	{.frequency = NOTE_FS6, .duration = 15},
	{.frequency = SILENT, .duration = 5},
	{.frequency = NOTE_GS6, .duration = 15},
	{.frequency = SILENT, .duration = 5},
	{.frequency = NOTE_AS6, .duration = 60},
	{.frequency = SILENT, .duration = 30},
	{.frequency = NOTE_AS6, .duration = 10},
	{.frequency = SILENT, .duration = 10},
	{.frequency = NOTE_AS6, .duration = 15},
	{.frequency = SILENT, .duration = 5},
	{.frequency = NOTE_GS6, .duration = 15},
	{.frequency = SILENT, .duration = 5},
	{.frequency = NOTE_FS6, .duration = 15},
	{.frequency = SILENT, .duration = 5},
	{.frequency = NOTE_GS6, .duration = 10},
	{.frequency = SILENT, .duration = 30},
	{.frequency = NOTE_FS6, .duration = 15},
	{.frequency = SILENT, .duration = 5},
	{.frequency = NOTE_F6, .duration = 60},
	{.frequency = SILENT, .duration = 30},
	{.frequency = NOTE_F6, .duration = 30},
	{.frequency = SILENT, .duration = 10},
	{.frequency = NOTE_DS6, .duration = 30},
	{.frequency = SILENT, .duration = 10},
	{.frequency = NOTE_DS6, .duration = 15},
	{.frequency = SILENT, .duration = 5},
	{.frequency = NOTE_F6, .duration = 15},
	{.frequency = SILENT, .duration = 5},
	{.frequency = NOTE_FS6, .duration = 60},
	{.frequency = SILENT, .duration = 30},
	{.frequency = NOTE_F6, .duration = 15},
	{.frequency = SILENT, .duration = 5},
	{.frequency = NOTE_DS6, .duration = 15},
	{.frequency = SILENT, .duration = 5},
	{.frequency = NOTE_CS6, .duration = 30},
	{.frequency = SILENT, .duration = 10},
	{.frequency = NOTE_CS6, .duration = 15},
	{.frequency = SILENT, .duration = 5},
	{.frequency = NOTE_DS6, .duration = 15},
	{.frequency = SILENT, .duration = 5},
	{.frequency = NOTE_F6, .duration = 30},
	{.frequency = SILENT, .duration = 10},
	{.frequency = NOTE_DS6, .duration = 15},
	{.frequency = SILENT, .duration = 5},
	{.frequency = NOTE_CS6, .duration = 15},
	{.frequency = SILENT, .duration = 5},
	{.frequency = NOTE_C6, .duration = 45},
	{.frequency = SILENT, .duration = 15},
	{.frequency = NOTE_CS6, .duration = 15},
	{.frequency = SILENT, .duration = 5},
	{.frequency = NOTE_DS6, .duration = 45},
	{.frequency = SILENT, .duration = 15},
	{.frequency = NOTE_C6, .duration = 35},
	{.frequency = SILENT, .duration = 5},
	{.frequency = NOTE_F6, .duration = 50},
	{.frequency = SILENT, .duration = 0},
};

const Note mario_main_theme[] PROGMEM =
{
	{.frequency = NOTE_E7, .duration = 17},
	{.frequency = SILENT, .duration = 8},
	{.frequency = NOTE_E6, .duration = 8},
	{.frequency = SILENT, .duration = 8},
	{.frequency = NOTE_C6, .duration = 8},
	{.frequency = NOTE_E6, .duration = 8},
	{.frequency = SILENT, .duration = 8},
	{.frequency = NOTE_G6, .duration = 8},
	{.frequency = SILENT, .duration = 25},
	{.frequency = NOTE_G5, .duration = 8},
	{.frequency = SILENT, .duration = 25},
	{.frequency = NOTE_C6, .duration = 8},
	{.frequency = SILENT, .duration = 17},
	{.frequency = NOTE_G5, .duration = 8},
	{.frequency = SILENT, .duration = 17},
	{.frequency = NOTE_E5, .duration = 8},
	{.frequency = SILENT, .duration = 17},
	{.frequency = NOTE_A5, .duration = 8},
	{.frequency = SILENT, .duration = 8},
	{.frequency = NOTE_B5, .duration = 8},
	{.frequency = SILENT, .duration = 8},
	{.frequency = NOTE_AS5, .duration = 8},
	{.frequency = NOTE_A5, .duration = 8},
	{.frequency = SILENT, .duration = 8},
	{.frequency = NOTE_G5, .duration = 11},
	{.frequency = NOTE_E6, .duration = 11},
	{.frequency = NOTE_G6, .duration = 11},
	{.frequency = NOTE_A6, .duration = 8},
	{.frequency = SILENT, .duration = 8},
	{.frequency = NOTE_F6, .duration = 8},
	{.frequency = NOTE_G6, .duration = 8},
	{.frequency = SILENT, .duration = 8},
	{.frequency = NOTE_E6, .duration = 8},
	{.frequency = SILENT, .duration = 8},
	{.frequency = NOTE_C6, .duration = 8},
	{.frequency = NOTE_D6, .duration = 8},
	{.frequency = NOTE_B5, .duration = 8},
	{.frequency = SILENT, .duration = 17},
	{.frequency = NOTE_C6, .duration = 8},
	{.frequency = SILENT, .duration = 17},
	{.frequency = NOTE_G5, .duration = 8},
	{.frequency = SILENT, .duration = 17},
	{.frequency = NOTE_E5, .duration = 8},
	{.frequency = SILENT, .duration = 17},
	{.frequency = NOTE_A5, .duration = 8},
	{.frequency = SILENT, .duration = 8},
	{.frequency = NOTE_B5, .duration = 8},
	{.frequency = SILENT, .duration = 8},
	{.frequency = NOTE_AS5, .duration = 8},
	{.frequency = NOTE_A5, .duration = 8},
	{.frequency = SILENT, .duration = 8},
	{.frequency = NOTE_G5, .duration = 11},
	{.frequency = NOTE_E6, .duration = 11},
	{.frequency = NOTE_G6, .duration = 11},
	{.frequency = NOTE_A6, .duration = 8},
	{.frequency = SILENT, .duration = 8},
	{.frequency = NOTE_F6, .duration = 8},
	{.frequency = NOTE_G6, .duration = 8},
	{.frequency = SILENT, .duration = 8},
	{.frequency = NOTE_E6, .duration = 8},
	{.frequency = SILENT, .duration = 8},
	{.frequency = NOTE_C6, .duration = 8},
	{.frequency = NOTE_D6, .duration = 8},
	{.frequency = NOTE_B5, .duration = 8},
	{.frequency = SILENT, .duration = 0},
};

const Note mario_underworld_melody[] PROGMEM =
{
	{.frequency = NOTE_C5, .duration = 8},
	{.frequency = NOTE_C6, .duration = 8},
	{.frequency = NOTE_A4, .duration = 8},
	{.frequency = NOTE_A5, .duration = 8},
	{.frequency = NOTE_AS4, .duration = 8},
	{.frequency = NOTE_AS5, .duration = 8},
	{.frequency = SILENT, .duration = 50},
	{.frequency = NOTE_C5, .duration = 8},
	{.frequency = NOTE_C6, .duration = 8},
	{.frequency = NOTE_A4, .duration = 8},
	{.frequency = NOTE_A5, .duration = 8},
	{.frequency = NOTE_AS4, .duration = 8},
	{.frequency = NOTE_AS5, .duration = 8},
	{.frequency = SILENT, .duration = 50},
	{.frequency = NOTE_F4, .duration = 8},
	{.frequency = NOTE_F5, .duration = 8},
	{.frequency = NOTE_D4, .duration = 8},
	{.frequency = NOTE_D5, .duration = 8},
	{.frequency = NOTE_DS4, .duration = 8},
	{.frequency = NOTE_DS5, .duration = 8},
	{.frequency = SILENT, .duration = 50},
	{.frequency = NOTE_F4, .duration = 8},
	{.frequency = NOTE_F5, .duration = 8},
	{.frequency = NOTE_D4, .duration = 8},
	{.frequency = NOTE_D5, .duration = 8},
	{.frequency = NOTE_DS4, .duration = 8},
	{.frequency = NOTE_DS5, .duration = 8},
	{.frequency = SILENT, .duration = 33},
	{.frequency = NOTE_DS5, .duration = 6},
	{.frequency = NOTE_CS5, .duration = 6},
	{.frequency = NOTE_D5, .duration = 6},
	{.frequency = NOTE_CS5, .duration = 17},
	{.frequency = NOTE_DS5, .duration = 33},
	{.frequency = NOTE_GS4, .duration = 17},
	{.frequency = NOTE_G4, .duration = 17},
	{.frequency = NOTE_CS5, .duration = 17},
	{.frequency = NOTE_C5, .duration = 6},
	{.frequency = NOTE_FS5, .duration = 6},
	{.frequency = NOTE_F5, .duration = 6},
	{.frequency = NOTE_E4, .duration = 6},
	{.frequency = NOTE_AS5, .duration = 6},
	{.frequency = NOTE_A5, .duration = 6},
	{.frequency = NOTE_GS5, .duration = 10},
	{.frequency = NOTE_DS5, .duration = 10},
	{.frequency = NOTE_B4, .duration = 10},
	{.frequency = NOTE_AS4, .duration = 10},
	{.frequency = NOTE_A4, .duration = 10},
	{.frequency = NOTE_GS4, .duration = 10},
	{.frequency = SILENT, .duration = 0},
};

const Note tetris[] PROGMEM =
{
	// note = joue sur 75 %, silence 25 %, execption : trilet double croche
	// 1 noir =0.428 s = 43*10 ms
	// 1double = 43/4 = 10.85 *10 ms = 11*10ms
	{.frequency = NOTE_A6, .duration = 33},
	{.frequency = SILENT, .duration = 11},
	{.frequency = NOTE_E6, .duration = 16},
	{.frequency = SILENT, .duration = 5},
	{.frequency = NOTE_F6, .duration = 16},
	{.frequency = SILENT, .duration = 5},
	{.frequency = NOTE_G6, .duration = 16},
	{.frequency = SILENT, .duration = 5},
	{.frequency = NOTE_A6, .duration = 8},
	{.frequency = SILENT, .duration = 2},
	{.frequency = NOTE_G6, .duration = 8},
	{.frequency = SILENT, .duration = 2},
	{.frequency = NOTE_F6, .duration = 16},
	{.frequency = SILENT, .duration = 5},
	{.frequency = NOTE_E6, .duration = 16},
	{.frequency = SILENT, .duration = 5},
	{.frequency = NOTE_D6, .duration = 33},
	{.frequency = SILENT, .duration = 11},
	{.frequency = NOTE_D6, .duration = 16},
	{.frequency = SILENT, .duration = 5},
	{.frequency = NOTE_F6, .duration = 16},
	{.frequency = SILENT, .duration = 5},
	{.frequency = NOTE_A6, .duration = 33},
	{.frequency = SILENT, .duration = 11},
	{.frequency = NOTE_G6, .duration = 16},
	{.frequency = SILENT, .duration = 5},
	{.frequency = NOTE_F6, .duration = 16},
	{.frequency = SILENT, .duration = 5},
	{.frequency = NOTE_E6, .duration = 49},
	{.frequency = SILENT, .duration = 16},
	{.frequency = NOTE_F6, .duration = 16},
	{.frequency = SILENT, .duration = 5},
	{.frequency = NOTE_G6, .duration = 33},
	{.frequency = SILENT, .duration = 11},
	{.frequency = NOTE_A6, .duration = 33},
	{.frequency = SILENT, .duration = 11},
	{.frequency = NOTE_F6, .duration = 33},
	{.frequency = SILENT, .duration = 11},
	{.frequency = NOTE_D6, .duration = 33},
	{.frequency = SILENT, .duration = 11},
	{.frequency = NOTE_D6, .duration = 66},
	{.frequency = SILENT, .duration = 43},
	{.frequency = NOTE_G6, .duration = 33},
	{.frequency = SILENT, .duration = 11},
	{.frequency = NOTE_AS6, .duration = 16},
	{.frequency = SILENT, .duration = 5},
	{.frequency = NOTE_D7, .duration = 33},
	{.frequency = SILENT, .duration = 11},
	{.frequency = NOTE_C7, .duration = 16},
	{.frequency = SILENT, .duration = 5},
	{.frequency = NOTE_AS6, .duration = 16},
	{.frequency = SILENT, .duration = 5},
	{.frequency = NOTE_A6, .duration = 49},
	{.frequency = SILENT, .duration = 16},
	{.frequency = NOTE_F6, .duration = 16},
	{.frequency = SILENT, .duration = 5},
	{.frequency = NOTE_A6, .duration = 33},
	{.frequency = SILENT, .duration = 11},
	{.frequency = NOTE_G6, .duration = 16},
	{.frequency = SILENT, .duration = 5},
	{.frequency = NOTE_F6, .duration = 16},
	{.frequency = SILENT, .duration = 5},
	{.frequency = NOTE_E6, .duration = 33},
	{.frequency = SILENT, .duration = 11},
	{.frequency = NOTE_E6, .duration = 16},
	{.frequency = SILENT, .duration = 5},
	{.frequency = NOTE_F6, .duration = 16},
	{.frequency = SILENT, .duration = 5},
	{.frequency = NOTE_G6, .duration = 33},
	{.frequency = SILENT, .duration = 11},
	{.frequency = NOTE_A6, .duration = 33},
	{.frequency = SILENT, .duration = 11},
	{.frequency = NOTE_F6, .duration = 33},
	{.frequency = SILENT, .duration = 11},
	{.frequency = NOTE_E6, .duration = 33},
	{.frequency = SILENT, .duration = 11},
	{.frequency = NOTE_E6, .duration = 33},
	{.frequency = SILENT, .duration = 55},
	{.frequency = NOTE_A5, .duration = 73},
	{.frequency = SILENT, .duration = 15},
	{.frequency = NOTE_F5, .duration = 73},
	{.frequency = SILENT, .duration = 15},
	{.frequency = NOTE_G5, .duration = 73},
	{.frequency = SILENT, .duration = 15},
	{.frequency = NOTE_E5, .duration = 73},
	{.frequency = SILENT, .duration = 15},
	{.frequency = NOTE_F5, .duration = 73},
	{.frequency = SILENT, .duration = 15},
	{.frequency = NOTE_D5, .duration = 73},
	{.frequency = SILENT, .duration = 15},
	{.frequency = NOTE_CS5, .duration = 73},
	{.frequency = SILENT, .duration = 15},
	{.frequency = NOTE_E5, .duration = 73},
	{.frequency = SILENT, .duration = 15},
	{.frequency = NOTE_A5, .duration = 73},
	{.frequency = SILENT, .duration = 15},
	{.frequency = NOTE_F5, .duration = 73},
	{.frequency = SILENT, .duration = 15},
	{.frequency = NOTE_G5, .duration = 73},
	{.frequency = SILENT, .duration = 15},
	{.frequency = NOTE_E5, .duration = 73},
	{.frequency = SILENT, .duration = 15},
	{.frequency = NOTE_F5, .duration = 33},
	{.frequency = SILENT, .duration = 11},
	{.frequency = NOTE_A5, .duration = 33},
	{.frequency = SILENT, .duration = 11},
	{.frequency = NOTE_D6, .duration = 73},
	{.frequency = SILENT, .duration = 15},
	{.frequency = NOTE_CS6, .duration = 124},
	{.frequency = SILENT, .duration = 0},
};

//from intellivision
const Note burger_time[] PROGMEM =
{
	{.frequency = NOTE_E6, .duration = 6},
	{.frequency = SILENT, .duration = 5},
	{.frequency = NOTE_E6, .duration = 6},
	{.frequency = SILENT, .duration = 5},
	{.frequency = NOTE_F6, .duration = 6},
	{.frequency = SILENT, .duration = 5},
	{.frequency = NOTE_F6, .duration = 6},
	{.frequency = SILENT, .duration = 5},
	{.frequency = NOTE_FS6, .duration = 6},
	{.frequency = SILENT, .duration = 5},
	{.frequency = NOTE_FS6, .duration = 6},
	{.frequency = SILENT, .duration = 5},
	{.frequency = NOTE_GS6, .duration = 6},
	{.frequency = SILENT, .duration = 5},
	{.frequency = NOTE_GS6, .duration = 6},
	{.frequency = SILENT, .duration = 5},
	{.frequency = NOTE_A6, .duration = 12},
	{.frequency = SILENT, .duration = 5},
	{.frequency = NOTE_E6, .duration = 12},
	{.frequency = SILENT, .duration = 5},
	{.frequency = NOTE_A6, .duration = 12},
	{.frequency = SILENT, .duration = 5},
	{.frequency = NOTE_E6, .duration = 12},
	{.frequency = SILENT, .duration = 5},
	{.frequency = NOTE_G6, .duration = 6},
	{.frequency = SILENT, .duration = 5},
	{.frequency = NOTE_C7, .duration = 6},
	{.frequency = SILENT, .duration = 5},
	{.frequency = NOTE_B6, .duration = 6},
	{.frequency = SILENT, .duration = 5},
	{.frequency = NOTE_A6, .duration = 6},
	{.frequency = SILENT, .duration = 5},
	{.frequency = NOTE_G6, .duration = 6},
	{.frequency = SILENT, .duration = 5},
	{.frequency = NOTE_A6, .duration = 6},
	{.frequency = SILENT, .duration = 5},
	{.frequency = NOTE_G6, .duration = 6},
	{.frequency = SILENT, .duration = 5},
	{.frequency = NOTE_FS6, .duration = 6},
	{.frequency = SILENT, .duration = 5},
	{.frequency = NOTE_G6, .duration = 12},
	{.frequency = SILENT, .duration = 5},
	{.frequency = NOTE_C7, .duration = 12},
	{.frequency = SILENT, .duration = 5},
	{.frequency = NOTE_G6, .duration = 12},
	{.frequency = SILENT, .duration = 5},
	{.frequency = NOTE_C7, .duration = 12},
	{.frequency = SILENT, .duration = 5},
	{.frequency = NOTE_G6, .duration = 12},
	{.frequency = SILENT, .duration = 5},
	{.frequency = NOTE_E7, .duration = 12},
	{.frequency = SILENT, .duration = 5},
	{.frequency = NOTE_G6, .duration = 12},
	{.frequency = SILENT, .duration = 5},
	{.frequency = NOTE_E7, .duration = 12},
	{.frequency = SILENT, .duration = 5},
	{.frequency = NOTE_A6, .duration = 12},
	{.frequency = SILENT, .duration = 5},
	{.frequency = NOTE_D7, .duration = 12},
	{.frequency = SILENT, .duration = 5},
	{.frequency = NOTE_G6, .duration = 12},
	{.frequency = SILENT, .duration = 5},
	{.frequency = NOTE_C7, .duration = 12},
	{.frequency = SILENT, .duration = 5},
	{.frequency = NOTE_A6, .duration = 12},
	{.frequency = SILENT, .duration = 5},
	{.frequency = NOTE_D7, .duration = 12},
	{.frequency = SILENT, .duration = 5},
	{.frequency = NOTE_G6, .duration = 12},
	{.frequency = SILENT, .duration = 5},
	{.frequency = NOTE_C7, .duration = 12},
	{.frequency = SILENT, .duration = 0},
};

// portal
const Note still_alive[] PROGMEM =
{
	// note joue = note + 50 millis de silence < durée
	// croche = 25
	// noire = 500
	// noire pointe = 750
	// blanche = 850 + 150 silence MAX à 800. 200 = rab
	{.frequency = NOTE_G6, .duration = 20},
	{.frequency = SILENT, .duration = 5},
	{.frequency = NOTE_FS6, .duration = 20},
	{.frequency = SILENT, .duration = 5},
	{.frequency = NOTE_E6, .duration = 20},
	{.frequency = SILENT, .duration = 5},
	{.frequency = NOTE_E6, .duration = 20},
	{.frequency = SILENT, .duration = 5},
	{.frequency = NOTE_FS6, .duration = 80},
	{.frequency = SILENT, .duration = 192},
	{.frequency = NOTE_A5, .duration = 20},
	{.frequency = SILENT, .duration = 5},
	{.frequency = NOTE_G6, .duration = 20},
	{.frequency = SILENT, .duration = 5},
	{.frequency = NOTE_FS6, .duration = 20},
	{.frequency = SILENT, .duration = 5},
	{.frequency = NOTE_E6, .duration = 20},
	{.frequency = SILENT, .duration = 5},
	{.frequency = NOTE_E6, .duration = 45},
	{.frequency = SILENT, .duration = 5},
	{.frequency = NOTE_FS6, .duration = 70},
	{.frequency = SILENT, .duration = 5},
	{.frequency = NOTE_D6, .duration = 45},
	{.frequency = SILENT, .duration = 5},
	{.frequency = NOTE_E6, .duration = 20},
	{.frequency = SILENT, .duration = 5},
	{.frequency = NOTE_A5, .duration = 80},
	{.frequency = SILENT, .duration = 120},
	{.frequency = NOTE_A5, .duration = 20},
	{.frequency = SILENT, .duration = 5},
	{.frequency = NOTE_E6, .duration = 45},
	{.frequency = SILENT, .duration = 5},
	{.frequency = NOTE_FS6, .duration = 20},
	{.frequency = SILENT, .duration = 5},
	{.frequency = NOTE_G6, .duration = 70},
	{.frequency = SILENT, .duration = 5},
	{.frequency = NOTE_E6, .duration = 20},
	{.frequency = SILENT, .duration = 5},
	{.frequency = NOTE_CS6, .duration = 45},
	{.frequency = SILENT, .duration = 5},
	{.frequency = NOTE_D6, .duration = 70},
	{.frequency = SILENT, .duration = 5},
	{.frequency = NOTE_E6, .duration = 45},
	{.frequency = SILENT, .duration = 5},
	{.frequency = NOTE_A5, .duration = 20},
	{.frequency = SILENT, .duration = 5},
	{.frequency = NOTE_A5, .duration = 45},
	{.frequency = SILENT, .duration = 5},
	{.frequency = NOTE_FS6, .duration = 80},
	{.frequency = SILENT, .duration = 185},
	{.frequency = NOTE_G6, .duration = 20},
	{.frequency = SILENT, .duration = 5},
	{.frequency = NOTE_FS6, .duration = 20},
	{.frequency = SILENT, .duration = 5},
	{.frequency = NOTE_E6, .duration = 20},
	{.frequency = SILENT, .duration = 5},
	{.frequency = NOTE_E6, .duration = 20},
	{.frequency = SILENT, .duration = 5},
	{.frequency = NOTE_FS6, .duration = 75},
	{.frequency = SILENT, .duration = 190},
	{.frequency = NOTE_A5, .duration = 20},
	{.frequency = SILENT, .duration = 5},
	{.frequency = NOTE_G6, .duration = 20},
	{.frequency = SILENT, .duration = 5},
	{.frequency = NOTE_FS6, .duration = 20},
	{.frequency = SILENT, .duration = 5},
	{.frequency = NOTE_E6, .duration = 20},
	{.frequency = SILENT, .duration = 5},
	{.frequency = NOTE_E6, .duration = 45},
	{.frequency = SILENT, .duration = 5},
	{.frequency = NOTE_FS6, .duration = 20},
	{.frequency = SILENT, .duration = 5},
	{.frequency = NOTE_D6, .duration = 70},
	{.frequency = SILENT, .duration = 5},
	{.frequency = NOTE_E6, .duration = 20},
	{.frequency = SILENT, .duration = 5},
	{.frequency = NOTE_A5, .duration = 80},
	{.frequency = SILENT, .duration = 185},
	{.frequency = NOTE_E6, .duration = 45},
	{.frequency = SILENT, .duration = 5},
	{.frequency = NOTE_FS6, .duration = 20},
	{.frequency = SILENT, .duration = 5},
	{.frequency = NOTE_G6, .duration = 70},
	{.frequency = SILENT, .duration = 5},
	{.frequency = NOTE_E6, .duration = 20},
	{.frequency = SILENT, .duration = 5},
	{.frequency = NOTE_CS6, .duration = 70},
	{.frequency = SILENT, .duration = 5},
	{.frequency = NOTE_D6, .duration = 20},
	{.frequency = SILENT, .duration = 5},
	{.frequency = NOTE_E6, .duration = 45},
	{.frequency = SILENT, .duration = 5},
	{.frequency = NOTE_A5, .duration = 20},
	{.frequency = SILENT, .duration = 5},
	{.frequency = NOTE_D6, .duration = 20},
	{.frequency = SILENT, .duration = 5},
	{.frequency = NOTE_E6, .duration = 20},
	{.frequency = SILENT, .duration = 5},
	{.frequency = NOTE_F6, .duration = 20},
	{.frequency = SILENT, .duration = 5},
	{.frequency = NOTE_E6, .duration = 20},
	{.frequency = SILENT, .duration = 5},
	{.frequency = NOTE_D6, .duration = 20},
	{.frequency = SILENT, .duration = 5},
	{.frequency = NOTE_C6, .duration = 20},
	{.frequency = SILENT, .duration = 55},
	{.frequency = NOTE_A5, .duration = 20},
	{.frequency = SILENT, .duration = 5},
	{.frequency = NOTE_AS5, .duration = 20},
	{.frequency = SILENT, .duration = 5},
	{.frequency = NOTE_C6, .duration = 45},
	{.frequency = SILENT, .duration = 5},
	{.frequency = NOTE_F6, .duration = 45},
	{.frequency = SILENT, .duration = 5},
	{.frequency = NOTE_E6, .duration = 20},
	{.frequency = SILENT, .duration = 5},
	{.frequency = NOTE_D6, .duration = 20},
	{.frequency = SILENT, .duration = 5},
	{.frequency = NOTE_D6, .duration = 20},
	{.frequency = SILENT, .duration = 5},
	{.frequency = NOTE_C6, .duration = 20},
	{.frequency = SILENT, .duration = 5},
	{.frequency = NOTE_D6, .duration = 20},
	{.frequency = SILENT, .duration = 5},
	{.frequency = NOTE_C6, .duration = 20},
	{.frequency = SILENT, .duration = 5},
	{.frequency = NOTE_C6, .duration = 45},
	{.frequency = SILENT, .duration = 5},
	{.frequency = NOTE_C6, .duration = 45},
	{.frequency = SILENT, .duration = 5},
	{.frequency = NOTE_A5, .duration = 20},
	{.frequency = SILENT, .duration = 5},
	{.frequency = NOTE_AS5, .duration = 20},
	{.frequency = SILENT, .duration = 5},
	{.frequency = NOTE_C6, .duration = 45},
	{.frequency = SILENT, .duration = 5},
	{.frequency = NOTE_F6, .duration = 45},
	{.frequency = SILENT, .duration = 5},
	{.frequency = NOTE_G6, .duration = 20},
	{.frequency = SILENT, .duration = 5},
	{.frequency = NOTE_F6, .duration = 20},
	{.frequency = SILENT, .duration = 5},
	{.frequency = NOTE_E6, .duration = 20},
	{.frequency = SILENT, .duration = 5},
	{.frequency = NOTE_D6, .duration = 20},
	{.frequency = SILENT, .duration = 5},
	{.frequency = NOTE_D6, .duration = 20},
	{.frequency = SILENT, .duration = 5},
	{.frequency = NOTE_E6, .duration = 20},
	{.frequency = SILENT, .duration = 5},
	{.frequency = NOTE_F6, .duration = 45},
	{.frequency = SILENT, .duration = 5},
	{.frequency = NOTE_F6, .duration = 45},
	{.frequency = SILENT, .duration = 5},
	{.frequency = NOTE_G6, .duration = 20},
	{.frequency = SILENT, .duration = 5},
	{.frequency = NOTE_A6, .duration = 20},
	{.frequency = SILENT, .duration = 5},
	{.frequency = NOTE_AS6, .duration = 20},
	{.frequency = SILENT, .duration = 5},
	{.frequency = NOTE_AS6, .duration = 20},
	{.frequency = SILENT, .duration = 5},
	{.frequency = NOTE_A6, .duration = 45},
	{.frequency = SILENT, .duration = 5},
	{.frequency = NOTE_G6, .duration = 45},
	{.frequency = SILENT, .duration = 5},
	{.frequency = NOTE_F6, .duration = 20},
	{.frequency = SILENT, .duration = 5},
	{.frequency = NOTE_G6, .duration = 20},
	{.frequency = SILENT, .duration = 5},
	{.frequency = NOTE_A6, .duration = 20},
	{.frequency = SILENT, .duration = 5},
	{.frequency = NOTE_A6, .duration = 20},
	{.frequency = SILENT, .duration = 5},
	{.frequency = NOTE_G6, .duration = 45},
	{.frequency = SILENT, .duration = 5},
	{.frequency = NOTE_F6, .duration = 45},
	{.frequency = SILENT, .duration = 5},
	{.frequency = NOTE_D6, .duration = 20},
	{.frequency = SILENT, .duration = 5},
	{.frequency = NOTE_C6, .duration = 20},
	{.frequency = SILENT, .duration = 5},
	{.frequency = NOTE_D6, .duration = 20},
	{.frequency = SILENT, .duration = 5},
	{.frequency = NOTE_F6, .duration = 20},
	{.frequency = SILENT, .duration = 5},
	{.frequency = NOTE_F6, .duration = 20},
	{.frequency = SILENT, .duration = 5},
	{.frequency = NOTE_E6, .duration = 45},
	{.frequency = SILENT, .duration = 5},
	{.frequency = NOTE_E6, .duration = 20},
	{.frequency = SILENT, .duration = 5},
	{.frequency = NOTE_FS6, .duration = 20},
	{.frequency = SILENT, .duration = 5},
	{.frequency = NOTE_FS6, .duration = 30},
	{.frequency = SILENT, .duration = 0},
};

const Note age_of_empire_II_A[] PROGMEM =
{
	{.frequency = NOTE_G5, .duration = 16},
	{.frequency = SILENT, .duration = 5},
	{.frequency = NOTE_D6, .duration = 16},
	{.frequency = SILENT, .duration = 5},
	{.frequency = NOTE_G6, .duration = 16},
	{.frequency = SILENT, .duration = 5},
	{.frequency = NOTE_F6, .duration = 16},
	{.frequency = SILENT, .duration = 5},
	{.frequency = NOTE_G6, .duration = 16},
	{.frequency = SILENT, .duration = 5},
	{.frequency = NOTE_A6, .duration = 16},
	{.frequency = SILENT, .duration = 5},
	{.frequency = NOTE_AS6, .duration = 16},
	{.frequency = SILENT, .duration = 5},
	{.frequency = NOTE_A6, .duration = 16},
	{.frequency = SILENT, .duration = 5},
	{.frequency = NOTE_G6, .duration = 16},
	{.frequency = SILENT, .duration = 5},
	{.frequency = NOTE_F6, .duration = 16},
	{.frequency = SILENT, .duration = 5},
	{.frequency = NOTE_D6, .duration = 16},
	{.frequency = SILENT, .duration = 5},
	{.frequency = NOTE_F6, .duration = 16},
	{.frequency = SILENT, .duration = 5},
	{.frequency = NOTE_C6, .duration = 16},
	{.frequency = SILENT, .duration = 5},
	{.frequency = NOTE_F6, .duration = 16},
	{.frequency = SILENT, .duration = 5},
	{.frequency = NOTE_D6, .duration = 16},
	{.frequency = SILENT, .duration = 5},
	{.frequency = NOTE_F6, .duration = 16},
	{.frequency = SILENT, .duration = 5},
	{.frequency = NOTE_G5, .duration = 16},
	{.frequency = SILENT, .duration = 5},
	{.frequency = NOTE_D6, .duration = 16},
	{.frequency = SILENT, .duration = 5},
	{.frequency = NOTE_G6, .duration = 16},
	{.frequency = SILENT, .duration = 5},
	{.frequency = NOTE_F6, .duration = 16},
	{.frequency = SILENT, .duration = 5},
	{.frequency = NOTE_G6, .duration = 16},
	{.frequency = SILENT, .duration = 5},
	{.frequency = NOTE_A6, .duration = 16},
	{.frequency = SILENT, .duration = 5},
	{.frequency = NOTE_AS6, .duration = 16},
	{.frequency = SILENT, .duration = 5},
	{.frequency = NOTE_A6, .duration = 16},
	{.frequency = SILENT, .duration = 5},
	{.frequency = NOTE_G6, .duration = 16},
	{.frequency = SILENT, .duration = 5},
	{.frequency = NOTE_F6, .duration = 16},
	{.frequency = SILENT, .duration = 5},
	{.frequency = NOTE_D6, .duration = 16},
	{.frequency = SILENT, .duration = 5},
	{.frequency = NOTE_F6, .duration = 16},
	{.frequency = SILENT, .duration = 5},
	{.frequency = NOTE_C6, .duration = 16},
	{.frequency = SILENT, .duration = 5},
	{.frequency = NOTE_F6, .duration = 16},
	{.frequency = SILENT, .duration = 5},
	{.frequency = NOTE_D6, .duration = 16},
	{.frequency = SILENT, .duration = 5},
	{.frequency = NOTE_F6, .duration = 16},
	{.frequency = SILENT, .duration = 5},
	{.frequency = NOTE_G5, .duration = 16},
	{.frequency = SILENT, .duration = 5},
	{.frequency = NOTE_D6, .duration = 16},
	{.frequency = SILENT, .duration = 5},
	{.frequency = NOTE_G6, .duration = 16},
	{.frequency = SILENT, .duration = 5},
	{.frequency = NOTE_F6, .duration = 16},
	{.frequency = SILENT, .duration = 5},
	{.frequency = NOTE_G6, .duration = 16},
	{.frequency = SILENT, .duration = 5},
	{.frequency = NOTE_A6, .duration = 16},
	{.frequency = SILENT, .duration = 5},
	{.frequency = NOTE_AS6, .duration = 16},
	{.frequency = SILENT, .duration = 5},
	{.frequency = NOTE_A6, .duration = 16},
	{.frequency = SILENT, .duration = 5},
	{.frequency = NOTE_G6, .duration = 16},
	{.frequency = SILENT, .duration = 5},
	{.frequency = NOTE_F6, .duration = 16},
	{.frequency = SILENT, .duration = 5},
	{.frequency = NOTE_D6, .duration = 16},
	{.frequency = SILENT, .duration = 5},
	{.frequency = NOTE_F6, .duration = 16},
	{.frequency = SILENT, .duration = 5},
	{.frequency = NOTE_C6, .duration = 16},
	{.frequency = SILENT, .duration = 5},
	{.frequency = NOTE_F6, .duration = 16},
	{.frequency = SILENT, .duration = 5},
	{.frequency = NOTE_D6, .duration = 16},
	{.frequency = SILENT, .duration = 5},
	{.frequency = NOTE_F6, .duration = 16},
	{.frequency = SILENT, .duration = 5},
	{.frequency = NOTE_G5, .duration = 16},
	{.frequency = SILENT, .duration = 5},
	{.frequency = NOTE_D6, .duration = 16},
	{.frequency = SILENT, .duration = 5},
	{.frequency = NOTE_G6, .duration = 16},
	{.frequency = SILENT, .duration = 5},
	{.frequency = NOTE_F6, .duration = 16},
	{.frequency = SILENT, .duration = 5},
	{.frequency = NOTE_G6, .duration = 16},
	{.frequency = SILENT, .duration = 5},
	{.frequency = NOTE_A6, .duration = 16},
	{.frequency = SILENT, .duration = 5},
	{.frequency = NOTE_AS6, .duration = 16},
	{.frequency = SILENT, .duration = 5},
	{.frequency = NOTE_A6, .duration = 16},
	{.frequency = SILENT, .duration = 5},
	{.frequency = NOTE_G6, .duration = 16},
	{.frequency = SILENT, .duration = 5},
	{.frequency = NOTE_F6, .duration = 16},
	{.frequency = SILENT, .duration = 5},
	{.frequency = NOTE_D6, .duration = 16},
	{.frequency = SILENT, .duration = 5},
	{.frequency = NOTE_F6, .duration = 16},
	{.frequency = SILENT, .duration = 5},
	{.frequency = NOTE_C6, .duration = 16},
	{.frequency = SILENT, .duration = 5},
	{.frequency = NOTE_F6, .duration = 16},
	{.frequency = SILENT, .duration = 5},
	{.frequency = NOTE_D6, .duration = 16},
	{.frequency = SILENT, .duration = 5},
	{.frequency = NOTE_F6, .duration = 16},
	{.frequency = SILENT, .duration = 5},
	{.frequency = NOTE_G6, .duration = 133},
	{.frequency = SILENT, .duration = 0},
};

// Pour instrument en LA.
const Note age_of_empire_II_B[] PROGMEM =
{
	{.frequency = NOTE_F6, .duration = 110},
	{.frequency = NOTE_DS6, .duration = 22},
	{.frequency = NOTE_CS6, .duration = 22},
	{.frequency = NOTE_DS6, .duration = 110},
	{.frequency = NOTE_CS6, .duration = 22},
	{.frequency = NOTE_C6, .duration = 22},
	{.frequency = NOTE_AS5, .duration = 22},
	{.frequency = NOTE_GS5, .duration = 22},
	{.frequency = NOTE_AS5, .duration = 110},
	{.frequency = NOTE_CS6, .duration = 22},
	{.frequency = NOTE_C6, .duration = 22},
	{.frequency = NOTE_AS5, .duration = 199},
	{.frequency = NOTE_GS5, .duration = 88},
	{.frequency = NOTE_F5, .duration = 22},
	{.frequency = NOTE_GS5, .duration = 22},
	{.frequency = NOTE_AS5, .duration = 22},
	{.frequency = NOTE_C6, .duration = 44},
	{.frequency = NOTE_GS5, .duration = 22},
	{.frequency = NOTE_AS5, .duration = 22},
	{.frequency = NOTE_C6, .duration = 22},
	{.frequency = NOTE_AS5, .duration = 11},
	{.frequency = NOTE_C6, .duration = 11},
	{.frequency = NOTE_CS6, .duration = 11},
	{.frequency = NOTE_C6, .duration = 11},
	{.frequency = NOTE_CS6, .duration = 11},
	{.frequency = NOTE_DS6, .duration = 11},
	{.frequency = NOTE_CS6, .duration = 11},
	{.frequency = NOTE_DS6, .duration = 11},
	{.frequency = NOTE_F6, .duration = 177},
	{.frequency = NOTE_F6, .duration = 88},
	{.frequency = SILENT, .duration = 66},
	{.frequency = NOTE_CS6, .duration = 7},
	{.frequency = NOTE_DS6, .duration = 7},
	{.frequency = NOTE_F6, .duration = 7},
	{.frequency = NOTE_AS6, .duration = 22},
	{.frequency = NOTE_GS6, .duration = 22},
	{.frequency = NOTE_F6, .duration = 22},
	{.frequency = NOTE_AS6, .duration = 22},
	{.frequency = NOTE_GS6, .duration = 22},
	{.frequency = NOTE_F6, .duration = 22},
	{.frequency = NOTE_GS6, .duration = 22},
	{.frequency = NOTE_AS6, .duration = 22},
	{.frequency = NOTE_GS6, .duration = 11},
	{.frequency = NOTE_AS6, .duration = 11},
	{.frequency = NOTE_C7, .duration = 11},
	{.frequency = NOTE_CS7, .duration = 11},
	{.frequency = NOTE_C7, .duration = 11},
	{.frequency = NOTE_AS6, .duration = 11},
	{.frequency = NOTE_GS6, .duration = 11},
	{.frequency = NOTE_AS6, .duration = 11},
	{.frequency = NOTE_F6, .duration = 88},
	{.frequency = NOTE_DS6, .duration = 44},
	{.frequency = NOTE_F6, .duration = 44},
	{.frequency = NOTE_DS6, .duration = 22},
	{.frequency = NOTE_CS6, .duration = 7},
	{.frequency = NOTE_DS6, .duration = 7},
	{.frequency = NOTE_CS6, .duration = 7},
	{.frequency = NOTE_C6, .duration = 22},
	{.frequency = NOTE_CS6, .duration = 44},
	{.frequency = NOTE_AS5, .duration = 22},
	{.frequency = NOTE_C6, .duration = 22},
	{.frequency = NOTE_CS6, .duration = 44},
	{.frequency = NOTE_C6, .duration = 22},
	{.frequency = NOTE_AS5, .duration = 22},
	{.frequency = NOTE_GS5, .duration = 22},
	{.frequency = NOTE_AS5, .duration = 155},
	{.frequency = NOTE_F5, .duration = 110},
	{.frequency = NOTE_DS5, .duration = 22},
	{.frequency = NOTE_CS5, .duration = 22},
	{.frequency = NOTE_C5, .duration = 44},
	{.frequency = NOTE_CS5, .duration = 177},
	{.frequency = NOTE_CS5, .duration = 177},
	{.frequency = SILENT, .duration = 0},
};

const Note comodore_moutainking_mini_medley[] PROGMEM =
{
	{.frequency = NOTE_DS5, .duration = 50},
	{.frequency = NOTE_GS5, .duration = 25},
	{.frequency = NOTE_G5, .duration = 25},
	{.frequency = NOTE_GS5, .duration = 25},
	{.frequency = NOTE_AS5, .duration = 25},
	{.frequency = NOTE_C6, .duration = 25},
	{.frequency = NOTE_CS6, .duration = 25},
	{.frequency = NOTE_DS6, .duration = 25},
	{.frequency = NOTE_GS6, .duration = 25},
	{.frequency = NOTE_DS6, .duration = 6},
	{.frequency = NOTE_GS6, .duration = 6},
	{.frequency = NOTE_DS6, .duration = 37},
	{.frequency = NOTE_CS6, .duration = 50},
	{.frequency = NOTE_C6, .duration = 25},
	{.frequency = NOTE_GS6, .duration = 25},
	{.frequency = NOTE_C6, .duration = 6},
	{.frequency = NOTE_DS6, .duration = 6},
	{.frequency = NOTE_C6, .duration = 37},
	{.frequency = NOTE_AS5, .duration = 50},
	{.frequency = NOTE_GS5, .duration = 100},
	{.frequency = SILENT, .duration = 50},
	{.frequency = NOTE_GS5, .duration = 25},
	{.frequency = NOTE_C6, .duration = 25},
	{.frequency = NOTE_GS5, .duration = 50},
	{.frequency = NOTE_FS5, .duration = 50},
	{.frequency = NOTE_F5, .duration = 25},
	{.frequency = NOTE_C6, .duration = 25},
	{.frequency = NOTE_F5, .duration = 100},
	{.frequency = NOTE_E5, .duration = 25},
	{.frequency = NOTE_C6, .duration = 25},
	{.frequency = NOTE_F5, .duration = 50},
	{.frequency = NOTE_DS5, .duration = 50},
	{.frequency = NOTE_D5, .duration = 25},
	{.frequency = NOTE_AS5, .duration = 25},
	{.frequency = NOTE_D5, .duration = 100},
	{.frequency = NOTE_AS5, .duration = 25},
	{.frequency = NOTE_A5, .duration = 25},
	{.frequency = NOTE_F5, .duration = 25},
	{.frequency = NOTE_AS5, .duration = 25},
	{.frequency = NOTE_GS5, .duration = 25},
	{.frequency = NOTE_F5, .duration = 25},
	{.frequency = NOTE_AS5, .duration = 25},
	{.frequency = NOTE_G5, .duration = 25},
	{.frequency = NOTE_DS5, .duration = 25},
	{.frequency = NOTE_AS5, .duration = 25},
	{.frequency = NOTE_FS5, .duration = 25},
	{.frequency = NOTE_D5, .duration = 25},
	{.frequency = NOTE_AS5, .duration = 25},
	{.frequency = NOTE_F5, .duration = 25},
	{.frequency = NOTE_CS5, .duration = 25},
	{.frequency = NOTE_AS5, .duration = 25},
	{.frequency = NOTE_E5, .duration = 25},
	{.frequency = NOTE_C5, .duration = 25},
	{.frequency = NOTE_AS5, .duration = 25},
	{.frequency = NOTE_DS5, .duration = 25},
	{.frequency = NOTE_F5, .duration = 25},
	{.frequency = NOTE_AS5, .duration = 25},
	{.frequency = NOTE_D5, .duration = 25},
	{.frequency = NOTE_AS4, .duration = 25},
	{.frequency = NOTE_DS5, .duration = 25},
	{.frequency = NOTE_D5, .duration = 25},
	{.frequency = NOTE_DS5, .duration = 25},
	{.frequency = NOTE_F5, .duration = 25},
	{.frequency = NOTE_FS5, .duration = 25},
	{.frequency = NOTE_GS5, .duration = 25},
	{.frequency = NOTE_AS5, .duration = 25},
	{.frequency = NOTE_DS6, .duration = 25},
	{.frequency = NOTE_AS5, .duration = 25},
	{.frequency = NOTE_GS5, .duration = 25},
	{.frequency = NOTE_FS5, .duration = 25},
	{.frequency = NOTE_F5, .duration = 25},
	{.frequency = NOTE_DS5, .duration = 25},
	{.frequency = NOTE_F5, .duration = 25},
	{.frequency = NOTE_FS5, .duration = 25},
	{.frequency = NOTE_GS5, .duration = 25},
	{.frequency = NOTE_AS5, .duration = 50},
	{.frequency = NOTE_DS6, .duration = 100},
	{.frequency = SILENT, .duration = 0},
};

//from intellivision
const Note buzzBomber[] PROGMEM =
{
	{.frequency = NOTE_B5, .duration = 8},
	{.frequency = NOTE_AS5, .duration = 8},
	{.frequency = NOTE_A5, .duration = 8},
	{.frequency = NOTE_GS5, .duration = 8},
	{.frequency = NOTE_G5, .duration = 8},
	{.frequency = NOTE_C6, .duration = 8},
	{.frequency = NOTE_B5, .duration = 8},
	{.frequency = NOTE_AS5, .duration = 8},
	{.frequency = NOTE_B5, .duration = 8},
	{.frequency = NOTE_AS5, .duration = 8},
	{.frequency = NOTE_GS5, .duration = 8},
	{.frequency = NOTE_GS5, .duration = 8},
	{.frequency = NOTE_FS5, .duration = 8},
	{.frequency = NOTE_GS5, .duration = 8},
	{.frequency = NOTE_GS5, .duration = 8},
	{.frequency = NOTE_AS5, .duration = 8},
	{.frequency = NOTE_B5, .duration = 8},
	{.frequency = NOTE_AS5, .duration = 8},
	{.frequency = NOTE_A5, .duration = 8},
	{.frequency = NOTE_GS5, .duration = 8},
	{.frequency = NOTE_G5, .duration = 8},
	{.frequency = NOTE_C6, .duration = 8},
	{.frequency = NOTE_B5, .duration = 8},
	{.frequency = NOTE_AS5, .duration = 8},
	{.frequency = NOTE_B5, .duration = 8},
	{.frequency = NOTE_AS5, .duration = 8},
	{.frequency = NOTE_GS5, .duration = 8},
	{.frequency = NOTE_GS5, .duration = 8},
	{.frequency = NOTE_G5, .duration = 8},
	{.frequency = NOTE_GS5, .duration = 8},
	{.frequency = NOTE_GS5, .duration = 8},
	{.frequency = NOTE_AS5, .duration = 8},
	{.frequency = NOTE_B5, .duration = 8},
	{.frequency = NOTE_AS5, .duration = 8},
	{.frequency = NOTE_GS5, .duration = 8},
	{.frequency = NOTE_GS5, .duration = 8},
	{.frequency = NOTE_A5, .duration = 8},
	{.frequency = NOTE_GS5, .duration = 8},
	{.frequency = NOTE_FS5, .duration = 8},
	{.frequency = NOTE_FS5, .duration = 8},
	{.frequency = NOTE_F5, .duration = 8},
	{.frequency = NOTE_FS5, .duration = 8},
	{.frequency = NOTE_G5, .duration = 8},
	{.frequency = NOTE_GS5, .duration = 8},
	{.frequency = NOTE_G5, .duration = 8},
	{.frequency = NOTE_GS5, .duration = 8},
	{.frequency = NOTE_GS5, .duration = 8},
	{.frequency = NOTE_AS5, .duration = 8},
	{.frequency = NOTE_B5, .duration = 8},
	{.frequency = NOTE_AS5, .duration = 8},
	{.frequency = NOTE_A5, .duration = 8},
	{.frequency = NOTE_GS5, .duration = 8},
	{.frequency = NOTE_A5, .duration = 8},
	{.frequency = NOTE_GS5, .duration = 8},
	{.frequency = NOTE_FS5, .duration = 8},
	{.frequency = NOTE_FS5, .duration = 8},
	{.frequency = NOTE_F5, .duration = 8},
	{.frequency = NOTE_FS5, .duration = 8},
	{.frequency = NOTE_FS5, .duration = 8},
	{.frequency = NOTE_GS5, .duration = 8},
	{.frequency = NOTE_FS5, .duration = 8},
	{.frequency = NOTE_GS5, .duration = 8},
	{.frequency = NOTE_GS5, .duration = 8},
	{.frequency = NOTE_AS5, .duration = 8},
	{.frequency = NOTE_E6, .duration = 8},
	{.frequency = NOTE_DS6, .duration = 8},
	{.frequency = NOTE_D6, .duration = 8},
	{.frequency = NOTE_CS6, .duration = 8},
	{.frequency = NOTE_C6, .duration = 8},
	{.frequency = NOTE_F6, .duration = 8},
	{.frequency = NOTE_E6, .duration = 8},
	{.frequency = NOTE_DS6, .duration = 8},
	{.frequency = NOTE_E6, .duration = 8},
	{.frequency = NOTE_DS6, .duration = 8},
	{.frequency = NOTE_CS6, .duration = 8},
	{.frequency = NOTE_CS6, .duration = 8},
	{.frequency = NOTE_C6, .duration = 8},
	{.frequency = NOTE_CS6, .duration = 8},
	{.frequency = NOTE_CS6, .duration = 8},
	{.frequency = NOTE_DS6, .duration = 8},
	{.frequency = NOTE_E6, .duration = 8},
	{.frequency = NOTE_DS6, .duration = 8},
	{.frequency = NOTE_D6, .duration = 8},
	{.frequency = NOTE_CS6, .duration = 8},
	{.frequency = NOTE_C6, .duration = 8},
	{.frequency = NOTE_F6, .duration = 8},
	{.frequency = NOTE_E6, .duration = 8},
	{.frequency = NOTE_DS6, .duration = 8},
	{.frequency = NOTE_E6, .duration = 8},
	{.frequency = NOTE_DS6, .duration = 8},
	{.frequency = NOTE_CS6, .duration = 8},
	{.frequency = NOTE_CS6, .duration = 8},
	{.frequency = NOTE_C6, .duration = 8},
	{.frequency = NOTE_CS6, .duration = 8},
	{.frequency = NOTE_CS6, .duration = 8},
	{.frequency = NOTE_DS6, .duration = 8},
	{.frequency = NOTE_E6, .duration = 8},
	{.frequency = NOTE_DS6, .duration = 8},
	{.frequency = NOTE_D6, .duration = 8},
	{.frequency = NOTE_CS6, .duration = 8},
	{.frequency = NOTE_D6, .duration = 8},
	{.frequency = NOTE_CS6, .duration = 8},
	{.frequency = NOTE_C6, .duration = 8},
	{.frequency = NOTE_B5, .duration = 8},
	{.frequency = NOTE_AS5, .duration = 8},
	{.frequency = NOTE_B5, .duration = 8},
	{.frequency = NOTE_C6, .duration = 8},
	{.frequency = NOTE_CS6, .duration = 8},
	{.frequency = NOTE_C6, .duration = 8},
	{.frequency = NOTE_CS6, .duration = 8},
	{.frequency = NOTE_CS6, .duration = 8},
	{.frequency = NOTE_DS6, .duration = 8},
	{.frequency = NOTE_E6, .duration = 8},
	{.frequency = NOTE_DS6, .duration = 8},
	{.frequency = NOTE_D6, .duration = 8},
	{.frequency = NOTE_CS6, .duration = 8},
	{.frequency = NOTE_D6, .duration = 8},
	{.frequency = NOTE_CS6, .duration = 8},
	{.frequency = NOTE_C6, .duration = 8},
	{.frequency = NOTE_B5, .duration = 8},
	{.frequency = NOTE_AS5, .duration = 8},
	{.frequency = NOTE_B5, .duration = 8},
	{.frequency = NOTE_C6, .duration = 8},
	{.frequency = NOTE_CS6, .duration = 8},
	{.frequency = NOTE_C6, .duration = 8},
	{.frequency = NOTE_CS6, .duration = 8},
	{.frequency = NOTE_CS6, .duration = 8},
	{.frequency = NOTE_DS6, .duration = 8},
	{.frequency = SILENT, .duration = 0},
};

//from intellivision
const Note bumpNJump[] PROGMEM =
{
	{.frequency = NOTE_E5, .duration = 15},
	{.frequency = SILENT, .duration = 5},
	{.frequency = NOTE_E5, .duration = 15},
	{.frequency = SILENT, .duration = 5},
	{.frequency = NOTE_C5, .duration = 15},
	{.frequency = SILENT, .duration = 5},
	{.frequency = NOTE_C5, .duration = 15},
	{.frequency = SILENT, .duration = 5},
	{.frequency = NOTE_D5, .duration = 15},
	{.frequency = SILENT, .duration = 5},
	{.frequency = NOTE_D5, .duration = 15},
	{.frequency = SILENT, .duration = 5},
	{.frequency = NOTE_F5, .duration = 30},
	{.frequency = SILENT, .duration = 10},
	{.frequency = NOTE_E5, .duration = 15},
	{.frequency = SILENT, .duration = 5},
	{.frequency = NOTE_E5, .duration = 15},
	{.frequency = SILENT, .duration = 5},
	{.frequency = NOTE_C5, .duration = 15},
	{.frequency = SILENT, .duration = 5},
	{.frequency = NOTE_C5, .duration = 15},
	{.frequency = SILENT, .duration = 5},
	{.frequency = NOTE_D5, .duration = 15},
	{.frequency = SILENT, .duration = 5},
	{.frequency = NOTE_D5, .duration = 15},
	{.frequency = SILENT, .duration = 5},
	{.frequency = NOTE_G4, .duration = 30},
	{.frequency = SILENT, .duration = 10},
	{.frequency = NOTE_E5, .duration = 15},
	{.frequency = SILENT, .duration = 5},
	{.frequency = NOTE_E5, .duration = 15},
	{.frequency = SILENT, .duration = 5},
	{.frequency = NOTE_C5, .duration = 15},
	{.frequency = SILENT, .duration = 5},
	{.frequency = NOTE_C5, .duration = 15},
	{.frequency = SILENT, .duration = 5},
	{.frequency = NOTE_D5, .duration = 15},
	{.frequency = SILENT, .duration = 5},
	{.frequency = NOTE_D5, .duration = 15},
	{.frequency = SILENT, .duration = 5},
	{.frequency = NOTE_E5, .duration = 15},
	{.frequency = SILENT, .duration = 5},
	{.frequency = NOTE_F5, .duration = 15},
	{.frequency = SILENT, .duration = 5},
	{.frequency = NOTE_G5, .duration = 15},
	{.frequency = SILENT, .duration = 5},
	{.frequency = NOTE_G5, .duration = 15},
	{.frequency = SILENT, .duration = 5},
	{.frequency = NOTE_C6, .duration = 15},
	{.frequency = SILENT, .duration = 5},
	{.frequency = NOTE_G5, .duration = 15},
	{.frequency = SILENT, .duration = 5},
	{.frequency = NOTE_E5, .duration = 15},
	{.frequency = SILENT, .duration = 5},
	{.frequency = NOTE_G5, .duration = 15},
	{.frequency = SILENT, .duration = 5},
	{.frequency = NOTE_C6, .duration = 30},
	{.frequency = SILENT, .duration = 10},
	{.frequency = NOTE_C6, .duration = 15},
	{.frequency = SILENT, .duration = 5},
	{.frequency = NOTE_A5, .duration = 30},
	{.frequency = SILENT, .duration = 10},
	{.frequency = NOTE_F5, .duration = 15},
	{.frequency = SILENT, .duration = 5},
	{.frequency = NOTE_B5, .duration = 15},
	{.frequency = SILENT, .duration = 5},
	{.frequency = NOTE_G5, .duration = 30},
	{.frequency = SILENT, .duration = 10},
	{.frequency = NOTE_E5, .duration = 15},
	{.frequency = SILENT, .duration = 5},
	{.frequency = NOTE_A5, .duration = 15},
	{.frequency = SILENT, .duration = 5},
	{.frequency = NOTE_F5, .duration = 30},
	{.frequency = SILENT, .duration = 10},
	{.frequency = NOTE_D5, .duration = 15},
	{.frequency = SILENT, .duration = 5},
	{.frequency = NOTE_G5, .duration = 15},
	{.frequency = SILENT, .duration = 5},
	{.frequency = NOTE_E5, .duration = 30},
	{.frequency = SILENT, .duration = 10},
	{.frequency = NOTE_C5, .duration = 15},
	{.frequency = SILENT, .duration = 5},
	{.frequency = NOTE_C5, .duration = 15},
	{.frequency = SILENT, .duration = 5},
	{.frequency = NOTE_E5, .duration = 15},
	{.frequency = SILENT, .duration = 5},
	{.frequency = NOTE_G5, .duration = 15},
	{.frequency = SILENT, .duration = 5},
	{.frequency = NOTE_G5, .duration = 15},
	{.frequency = SILENT, .duration = 5},
	{.frequency = NOTE_D5, .duration = 15},
	{.frequency = SILENT, .duration = 5},
	{.frequency = NOTE_F5, .duration = 15},
	{.frequency = SILENT, .duration = 5},
	{.frequency = NOTE_A5, .duration = 15},
	{.frequency = SILENT, .duration = 5},
	{.frequency = NOTE_A5, .duration = 15},
	{.frequency = SILENT, .duration = 5},
	{.frequency = NOTE_G5, .duration = 15},
	{.frequency = SILENT, .duration = 5},
	{.frequency = NOTE_B5, .duration = 15},
	{.frequency = SILENT, .duration = 5},
	{.frequency = NOTE_D6, .duration = 15},
	{.frequency = SILENT, .duration = 5},
	{.frequency = NOTE_E6, .duration = 15},
	{.frequency = SILENT, .duration = 5},
	{.frequency = NOTE_C6, .duration = 60},
	{.frequency = SILENT, .duration = 0},
};

// form comodore
const Note MULE_theme[] PROGMEM =
{
	{.frequency = NOTE_C5, .duration = 15},
	{.frequency = SILENT, .duration = 3},
	{.frequency = NOTE_C5, .duration = 7},
	{.frequency = SILENT, .duration = 1},
	{.frequency = NOTE_C5, .duration = 7},
	{.frequency = SILENT, .duration = 1},
	{.frequency = NOTE_F5, .duration = 45},
	{.frequency = SILENT, .duration = 3},
	{.frequency = NOTE_C5, .duration = 7},
	{.frequency = SILENT, .duration = 1},
	{.frequency = NOTE_F5, .duration = 7},
	{.frequency = SILENT, .duration = 1},
	{.frequency = NOTE_A5, .duration = 7},
	{.frequency = SILENT, .duration = 1},
	{.frequency = NOTE_G5, .duration = 7},
	{.frequency = SILENT, .duration = 1},
	{.frequency = NOTE_F5, .duration = 15},
	{.frequency = SILENT, .duration = 3},
	{.frequency = NOTE_DS5, .duration = 15},
	{.frequency = SILENT, .duration = 3},
	{.frequency = NOTE_DS5, .duration = 7},
	{.frequency = SILENT, .duration = 1},
	{.frequency = NOTE_DS5, .duration = 7},
	{.frequency = SILENT, .duration = 1},
	{.frequency = NOTE_AS5, .duration = 45},
	{.frequency = SILENT, .duration = 3},
	{.frequency = NOTE_DS5, .duration = 7},
	{.frequency = SILENT, .duration = 1},
	{.frequency = NOTE_G5, .duration = 7},
	{.frequency = SILENT, .duration = 1},
	{.frequency = NOTE_AS5, .duration = 7},
	{.frequency = SILENT, .duration = 1},
	{.frequency = NOTE_A5, .duration = 7},
	{.frequency = SILENT, .duration = 1},
	{.frequency = NOTE_G5, .duration = 15},
	{.frequency = SILENT, .duration = 3},
	{.frequency = NOTE_C5, .duration = 15},
	{.frequency = SILENT, .duration = 3},
	{.frequency = NOTE_C5, .duration = 7},
	{.frequency = SILENT, .duration = 1},
	{.frequency = NOTE_C5, .duration = 7},
	{.frequency = SILENT, .duration = 1},
	{.frequency = NOTE_F5, .duration = 45},
	{.frequency = SILENT, .duration = 3},
	{.frequency = NOTE_C5, .duration = 7},
	{.frequency = SILENT, .duration = 1},
	{.frequency = NOTE_F5, .duration = 7},
	{.frequency = SILENT, .duration = 1},
	{.frequency = NOTE_A5, .duration = 7},
	{.frequency = SILENT, .duration = 1},
	{.frequency = NOTE_G5, .duration = 7},
	{.frequency = SILENT, .duration = 1},
	{.frequency = NOTE_F5, .duration = 15},
	{.frequency = SILENT, .duration = 3},
	{.frequency = NOTE_DS5, .duration = 123},
	{.frequency = SILENT, .duration = 30},
	{.frequency = NOTE_C5, .duration = 15},
	{.frequency = SILENT, .duration = 3},
	{.frequency = NOTE_C5, .duration = 7},
	{.frequency = SILENT, .duration = 1},
	{.frequency = NOTE_C5, .duration = 7},
	{.frequency = SILENT, .duration = 1},
	{.frequency = NOTE_F5, .duration = 45},
	{.frequency = SILENT, .duration = 3},
	{.frequency = NOTE_C5, .duration = 7},
	{.frequency = SILENT, .duration = 1},
	{.frequency = NOTE_F5, .duration = 7},
	{.frequency = SILENT, .duration = 1},
	{.frequency = NOTE_A5, .duration = 7},
	{.frequency = SILENT, .duration = 1},
	{.frequency = NOTE_G5, .duration = 7},
	{.frequency = SILENT, .duration = 1},
	{.frequency = NOTE_F5, .duration = 15},
	{.frequency = SILENT, .duration = 3},
	{.frequency = NOTE_DS5, .duration = 15},
	{.frequency = SILENT, .duration = 3},
	{.frequency = NOTE_DS5, .duration = 7},
	{.frequency = SILENT, .duration = 1},
	{.frequency = NOTE_DS5, .duration = 7},
	{.frequency = SILENT, .duration = 1},
	{.frequency = NOTE_AS5, .duration = 45},
	{.frequency = SILENT, .duration = 3},
	{.frequency = NOTE_DS5, .duration = 7},
	{.frequency = SILENT, .duration = 1},
	{.frequency = NOTE_G5, .duration = 7},
	{.frequency = SILENT, .duration = 1},
	{.frequency = NOTE_AS5, .duration = 7},
	{.frequency = SILENT, .duration = 1},
	{.frequency = NOTE_A5, .duration = 7},
	{.frequency = SILENT, .duration = 1},
	{.frequency = NOTE_G5, .duration = 15},
	{.frequency = SILENT, .duration = 3},
	{.frequency = NOTE_F5, .duration = 15},
	{.frequency = SILENT, .duration = 3},
	{.frequency = NOTE_F5, .duration = 7},
	{.frequency = SILENT, .duration = 1},
	{.frequency = NOTE_F5, .duration = 7},
	{.frequency = SILENT, .duration = 1},
	{.frequency = NOTE_C6, .duration = 45},
	{.frequency = SILENT, .duration = 3},
	{.frequency = NOTE_F5, .duration = 7},
	{.frequency = SILENT, .duration = 1},
	{.frequency = NOTE_A5, .duration = 7},
	{.frequency = SILENT, .duration = 1},
	{.frequency = NOTE_C6, .duration = 7},
	{.frequency = SILENT, .duration = 1},
	{.frequency = NOTE_AS5, .duration = 7},
	{.frequency = SILENT, .duration = 1},
	{.frequency = NOTE_A5, .duration = 15},
	{.frequency = SILENT, .duration = 3},
	{.frequency = NOTE_G5, .duration = 92},
	{.frequency = SILENT, .duration = 0},
};

// NB note pour instrument en FA
const Note age_of_empireI[] PROGMEM =
{
	{.frequency = NOTE_AS5, .duration = 203},
	{.frequency = NOTE_C6, .duration = 101},
	{.frequency = NOTE_F6, .duration = 101},
	{.frequency = NOTE_D6, .duration = 177},
	{.frequency = NOTE_DS6, .duration = 12},
	{.frequency = NOTE_D6, .duration = 12},
	{.frequency = NOTE_C6, .duration = 203},
	{.frequency = SILENT, .duration = 6},
	{.frequency = NOTE_DS6, .duration = 177},
	{.frequency = NOTE_D6, .duration = 12},
	{.frequency = NOTE_DS6, .duration = 12},
	{.frequency = NOTE_G6, .duration = 101},
	{.frequency = NOTE_DS6, .duration = 76},
	{.frequency = NOTE_D6, .duration = 12},
	{.frequency = NOTE_DS6, .duration = 12},
	{.frequency = NOTE_D6, .duration = 203},
	{.frequency = NOTE_C6, .duration = 203},
	{.frequency = SILENT, .duration = 0},
};

const Note donkey_kong[] PROGMEM =
{
	{.frequency = NOTE_C5, .duration = 17},
	{.frequency = SILENT, .duration = 5},
	{.frequency = NOTE_C5, .duration = 17},
	{.frequency = SILENT, .duration = 5},
	{.frequency = NOTE_A5, .duration = 34},
	{.frequency = SILENT, .duration = 78},
	{.frequency = NOTE_F5, .duration = 17},
	{.frequency = SILENT, .duration = 5},
	{.frequency = NOTE_G5, .duration = 17},
	{.frequency = SILENT, .duration = 5},
	{.frequency = NOTE_F5, .duration = 17},
	{.frequency = SILENT, .duration = 5},
	{.frequency = NOTE_D5, .duration = 34},
	{.frequency = SILENT, .duration = 101},
	{.frequency = NOTE_D5, .duration = 17},
	{.frequency = SILENT, .duration = 5},
	{.frequency = NOTE_D5, .duration = 17},
	{.frequency = SILENT, .duration = 5},
	{.frequency = NOTE_AS5, .duration = 34},
	{.frequency = SILENT, .duration = 78},
	{.frequency = NOTE_G5, .duration = 17},
	{.frequency = SILENT, .duration = 5},
	{.frequency = NOTE_A5, .duration = 17},
	{.frequency = SILENT, .duration = 5},
	{.frequency = NOTE_G5, .duration = 17},
	{.frequency = SILENT, .duration = 5},
	{.frequency = NOTE_E5, .duration = 34},
	{.frequency = SILENT, .duration = 101},
	{.frequency = NOTE_E5, .duration = 17},
	{.frequency = SILENT, .duration = 5},
	{.frequency = NOTE_E5, .duration = 17},
	{.frequency = SILENT, .duration = 5},
	{.frequency = NOTE_C6, .duration = 34},
	{.frequency = SILENT, .duration = 78},
	{.frequency = NOTE_A5, .duration = 17},
	{.frequency = SILENT, .duration = 5},
	{.frequency = NOTE_AS5, .duration = 17},
	{.frequency = SILENT, .duration = 5},
	{.frequency = NOTE_C6, .duration = 17},
	{.frequency = SILENT, .duration = 5},
	{.frequency = NOTE_D6, .duration = 34},
	{.frequency = SILENT, .duration = 78},
	{.frequency = NOTE_F5, .duration = 17},
	{.frequency = SILENT, .duration = 5},
	{.frequency = NOTE_G5, .duration = 17},
	{.frequency = SILENT, .duration = 5},
	{.frequency = NOTE_A5, .duration = 34},
	{.frequency = SILENT, .duration = 11},
	{.frequency = NOTE_F5, .duration = 34},
	{.frequency = SILENT, .duration = 33},
	{.frequency = NOTE_E5, .duration = 17},
	{.frequency = SILENT, .duration = 5},
	{.frequency = NOTE_F5, .duration = 17},
	{.frequency = SILENT, .duration = 5},
	{.frequency = NOTE_G5, .duration = 17},
	{.frequency = SILENT, .duration = 5},
	{.frequency = NOTE_D5, .duration = 34},
	{.frequency = SILENT, .duration = 0},
};

const Note fzero_maximum_velocity[] PROGMEM =
{
	{.frequency = NOTE_FS4, .duration = 25},
	{.frequency = NOTE_G4, .duration = 25},
	{.frequency = NOTE_A4, .duration = 25},
	{.frequency = NOTE_D5, .duration = 25},
	{.frequency = NOTE_D5, .duration = 100},
	{.frequency = SILENT, .duration = 25},
	{.frequency = NOTE_F5, .duration = 25},
	{.frequency = NOTE_E5, .duration = 25},
	{.frequency = NOTE_C5, .duration = 25},
	{.frequency = NOTE_A4, .duration = 25},
	{.frequency = NOTE_F4, .duration = 25},
	{.frequency = NOTE_G4, .duration = 25},
	{.frequency = NOTE_C5, .duration = 25},
	{.frequency = NOTE_A4, .duration = 75},
	{.frequency = NOTE_G4, .duration = 12},
	{.frequency = NOTE_A4, .duration = 12},
	{.frequency = NOTE_D4, .duration = 100},
	{.frequency = NOTE_D4, .duration = 150},
	{.frequency = SILENT, .duration = 50},
	{.frequency = NOTE_FS4, .duration = 25},
	{.frequency = NOTE_G4, .duration = 25},
	{.frequency = NOTE_A4, .duration = 25},
	{.frequency = NOTE_D5, .duration = 25},
	{.frequency = NOTE_D5, .duration = 100},
	{.frequency = SILENT, .duration = 25},
	{.frequency = NOTE_F5, .duration = 25},
	{.frequency = NOTE_E5, .duration = 25},
	{.frequency = NOTE_C5, .duration = 25},
	{.frequency = NOTE_A4, .duration = 25},
	{.frequency = NOTE_F4, .duration = 25},
	{.frequency = NOTE_G4, .duration = 25},
	{.frequency = NOTE_C5, .duration = 25},
	{.frequency = NOTE_A4, .duration = 75},
	{.frequency = NOTE_D5, .duration = 12},
	{.frequency = NOTE_E4, .duration = 12},
	{.frequency = NOTE_D5, .duration = 100},
	{.frequency = NOTE_D5, .duration = 200},
	{.frequency = SILENT, .duration = 0},
};

const Note popcorn[] PROGMEM =
{
	{.frequency = NOTE_C6, .duration = 12},
	{.frequency = SILENT, .duration = 9},
	{.frequency = NOTE_AS5, .duration = 12},
	{.frequency = SILENT, .duration = 9},
	{.frequency = NOTE_C6, .duration = 12},
	{.frequency = SILENT, .duration = 9},
	{.frequency = NOTE_G5, .duration = 12},
	{.frequency = SILENT, .duration = 9},
	{.frequency = NOTE_DS5, .duration = 12},
	{.frequency = SILENT, .duration = 9},
	{.frequency = NOTE_G5, .duration = 12},
	{.frequency = SILENT, .duration = 9},
	{.frequency = NOTE_C5, .duration = 25},
	{.frequency = SILENT, .duration = 19},
	{.frequency = NOTE_C6, .duration = 12},
	{.frequency = SILENT, .duration = 9},
	{.frequency = NOTE_AS5, .duration = 12},
	{.frequency = SILENT, .duration = 9},
	{.frequency = NOTE_C6, .duration = 12},
	{.frequency = SILENT, .duration = 9},
	{.frequency = NOTE_G5, .duration = 12},
	{.frequency = SILENT, .duration = 9},
	{.frequency = NOTE_DS5, .duration = 12},
	{.frequency = SILENT, .duration = 9},
	{.frequency = NOTE_G5, .duration = 12},
	{.frequency = SILENT, .duration = 9},
	{.frequency = NOTE_C5, .duration = 25},
	{.frequency = SILENT, .duration = 19},
	{.frequency = NOTE_C6, .duration = 12},
	{.frequency = SILENT, .duration = 9},
	{.frequency = NOTE_D6, .duration = 12},
	{.frequency = SILENT, .duration = 9},
	{.frequency = NOTE_DS6, .duration = 12},
	{.frequency = SILENT, .duration = 9},
	{.frequency = NOTE_D6, .duration = 12},
	{.frequency = SILENT, .duration = 9},
	{.frequency = NOTE_DS6, .duration = 12},
	{.frequency = SILENT, .duration = 9},
	{.frequency = NOTE_C6, .duration = 12},
	{.frequency = SILENT, .duration = 9},
	{.frequency = NOTE_D6, .duration = 12},
	{.frequency = SILENT, .duration = 9},
	{.frequency = NOTE_C6, .duration = 12},
	{.frequency = SILENT, .duration = 9},
	{.frequency = NOTE_D6, .duration = 12},
	{.frequency = SILENT, .duration = 9},
	{.frequency = NOTE_AS5, .duration = 12},
	{.frequency = SILENT, .duration = 9},
	{.frequency = NOTE_C6, .duration = 12},
	{.frequency = SILENT, .duration = 9},
	{.frequency = NOTE_AS5, .duration = 12},
	{.frequency = SILENT, .duration = 9},
	{.frequency = NOTE_C6, .duration = 12},
	{.frequency = SILENT, .duration = 9},
	{.frequency = NOTE_GS5, .duration = 12},
	{.frequency = SILENT, .duration = 9},
	{.frequency = NOTE_C6, .duration = 25},
	{.frequency = SILENT, .duration = 18},
	{.frequency = NOTE_C6, .duration = 12},
	{.frequency = SILENT, .duration = 9},
	{.frequency = NOTE_AS5, .duration = 12},
	{.frequency = SILENT, .duration = 9},
	{.frequency = NOTE_C6, .duration = 12},
	{.frequency = SILENT, .duration = 9},
	{.frequency = NOTE_G5, .duration = 12},
	{.frequency = SILENT, .duration = 9},
	{.frequency = NOTE_DS5, .duration = 12},
	{.frequency = SILENT, .duration = 9},
	{.frequency = NOTE_G5, .duration = 12},
	{.frequency = SILENT, .duration = 9},
	{.frequency = NOTE_C5, .duration = 25},
	{.frequency = SILENT, .duration = 18},
	{.frequency = NOTE_C6, .duration = 12},
	{.frequency = SILENT, .duration = 9},
	{.frequency = NOTE_AS5, .duration = 12},
	{.frequency = SILENT, .duration = 9},
	{.frequency = NOTE_C6, .duration = 12},
	{.frequency = SILENT, .duration = 9},
	{.frequency = NOTE_G5, .duration = 12},
	{.frequency = SILENT, .duration = 9},
	{.frequency = NOTE_DS5, .duration = 12},
	{.frequency = SILENT, .duration = 9},
	{.frequency = NOTE_G5, .duration = 12},
	{.frequency = SILENT, .duration = 9},
	{.frequency = NOTE_C5, .duration = 25},
	{.frequency = SILENT, .duration = 18},
	{.frequency = NOTE_C6, .duration = 12},
	{.frequency = SILENT, .duration = 9},
	{.frequency = NOTE_D6, .duration = 12},
	{.frequency = SILENT, .duration = 9},
	{.frequency = NOTE_DS6, .duration = 12},
	{.frequency = SILENT, .duration = 9},
	{.frequency = NOTE_D6, .duration = 12},
	{.frequency = SILENT, .duration = 9},
	{.frequency = NOTE_DS6, .duration = 12},
	{.frequency = SILENT, .duration = 9},
	{.frequency = NOTE_C6, .duration = 12},
	{.frequency = SILENT, .duration = 9},
	{.frequency = NOTE_D6, .duration = 12},
	{.frequency = SILENT, .duration = 9},
	{.frequency = NOTE_C6, .duration = 12},
	{.frequency = SILENT, .duration = 9},
	{.frequency = NOTE_D6, .duration = 12},
	{.frequency = SILENT, .duration = 9},
	{.frequency = NOTE_AS5, .duration = 12},
	{.frequency = SILENT, .duration = 9},
	{.frequency = NOTE_C6, .duration = 12},
	{.frequency = SILENT, .duration = 9},
	{.frequency = NOTE_AS5, .duration = 12},
	{.frequency = SILENT, .duration = 9},
	{.frequency = NOTE_C6, .duration = 12},
	{.frequency = SILENT, .duration = 9},
	{.frequency = NOTE_D6, .duration = 12},
	{.frequency = SILENT, .duration = 9},
	{.frequency = NOTE_DS6, .duration = 25},
	{.frequency = SILENT, .duration = 18},
	{.frequency = NOTE_G6, .duration = 12},
	{.frequency = SILENT, .duration = 9},
	{.frequency = NOTE_F6, .duration = 12},
	{.frequency = SILENT, .duration = 9},
	{.frequency = NOTE_G6, .duration = 12},
	{.frequency = SILENT, .duration = 9},
	{.frequency = NOTE_DS6, .duration = 12},
	{.frequency = SILENT, .duration = 9},
	{.frequency = NOTE_AS5, .duration = 12},
	{.frequency = SILENT, .duration = 9},
	{.frequency = NOTE_DS6, .duration = 12},
	{.frequency = SILENT, .duration = 9},
	{.frequency = NOTE_G5, .duration = 25},
	{.frequency = SILENT, .duration = 0},
};

const Note angry_birds[] PROGMEM =
{
	{.frequency = NOTE_E6, .duration = 9},
	{.frequency = SILENT, .duration = 3},
	{.frequency = NOTE_FS5, .duration = 9},
	{.frequency = SILENT, .duration = 3},
	{.frequency = NOTE_G5, .duration = 16},
	{.frequency = SILENT, .duration = 8},
	{.frequency = NOTE_E5, .duration = 16},
	{.frequency = SILENT, .duration = 8},
	{.frequency = NOTE_B5, .duration = 18},
	{.frequency = SILENT, .duration = 6},
	{.frequency = NOTE_E5, .duration = 9},
	{.frequency = SILENT, .duration = 3},
	{.frequency = NOTE_FS5, .duration = 9},
	{.frequency = SILENT, .duration = 3},
	{.frequency = NOTE_G5, .duration = 16},
	{.frequency = SILENT, .duration = 8},
	{.frequency = NOTE_E5, .duration = 16},
	{.frequency = SILENT, .duration = 8},
	{.frequency = NOTE_B5, .duration = 18},
	{.frequency = SILENT, .duration = 6},
	{.frequency = NOTE_B4, .duration = 18},
	{.frequency = SILENT, .duration = 6},
	{.frequency = NOTE_B5, .duration = 9},
	{.frequency = SILENT, .duration = 3},
	{.frequency = NOTE_C6, .duration = 9},
	{.frequency = SILENT, .duration = 3},
	{.frequency = NOTE_B5, .duration = 9},
	{.frequency = SILENT, .duration = 3},
	{.frequency = NOTE_A5, .duration = 9},
	{.frequency = SILENT, .duration = 3},
	{.frequency = NOTE_G5, .duration = 18},
	{.frequency = SILENT, .duration = 6},
	{.frequency = NOTE_G5, .duration = 9},
	{.frequency = SILENT, .duration = 3},
	{.frequency = NOTE_FS5, .duration = 9},
	{.frequency = SILENT, .duration = 3},
	{.frequency = NOTE_E5, .duration = 37},
	{.frequency = SILENT, .duration = 37},
	{.frequency = NOTE_E5, .duration = 9},
	{.frequency = SILENT, .duration = 3},
	{.frequency = NOTE_FS5, .duration = 9},
	{.frequency = SILENT, .duration = 3},
	{.frequency = NOTE_G5, .duration = 16},
	{.frequency = SILENT, .duration = 8},
	{.frequency = NOTE_E5, .duration = 16},
	{.frequency = SILENT, .duration = 33},
	{.frequency = NOTE_G5, .duration = 9},
	{.frequency = SILENT, .duration = 3},
	{.frequency = NOTE_A5, .duration = 9},
	{.frequency = SILENT, .duration = 3},
	{.frequency = NOTE_B5, .duration = 16},
	{.frequency = SILENT, .duration = 8},
	{.frequency = NOTE_G5, .duration = 16},
	{.frequency = SILENT, .duration = 33},
	{.frequency = NOTE_B5, .duration = 9},
	{.frequency = SILENT, .duration = 3},
	{.frequency = NOTE_CS6, .duration = 9},
	{.frequency = SILENT, .duration = 3},
	{.frequency = NOTE_D6, .duration = 9},
	{.frequency = SILENT, .duration = 3},
	{.frequency = NOTE_CS6, .duration = 9},
	{.frequency = SILENT, .duration = 3},
	{.frequency = NOTE_D6, .duration = 9},
	{.frequency = SILENT, .duration = 3},
	{.frequency = NOTE_CS6, .duration = 9},
	{.frequency = SILENT, .duration = 3},
	{.frequency = NOTE_D6, .duration = 9},
	{.frequency = SILENT, .duration = 3},
	{.frequency = NOTE_E6, .duration = 9},
	{.frequency = SILENT, .duration = 3},
	{.frequency = NOTE_D6, .duration = 9},
	{.frequency = SILENT, .duration = 3},
	{.frequency = NOTE_CS6, .duration = 9},
	{.frequency = SILENT, .duration = 3},
	{.frequency = NOTE_B5, .duration = 16},
	{.frequency = SILENT, .duration = 8},
	{.frequency = NOTE_AS5, .duration = 16},
	{.frequency = SILENT, .duration = 8},
	{.frequency = NOTE_B5, .duration = 16},
	{.frequency = SILENT, .duration = 8},
	{.frequency = NOTE_E5, .duration = 9},
	{.frequency = SILENT, .duration = 3},
	{.frequency = NOTE_FS5, .duration = 9},
	{.frequency = SILENT, .duration = 3},
	{.frequency = NOTE_G5, .duration = 16},
	{.frequency = SILENT, .duration = 8},
	{.frequency = NOTE_E5, .duration = 16},
	{.frequency = SILENT, .duration = 33},
	{.frequency = NOTE_G5, .duration = 9},
	{.frequency = SILENT, .duration = 3},
	{.frequency = NOTE_A5, .duration = 9},
	{.frequency = SILENT, .duration = 3},
	{.frequency = NOTE_B5, .duration = 16},
	{.frequency = SILENT, .duration = 8},
	{.frequency = NOTE_G5, .duration = 16},
	{.frequency = SILENT, .duration = 33},
	{.frequency = NOTE_B5, .duration = 9},
	{.frequency = SILENT, .duration = 3},
	{.frequency = NOTE_CS6, .duration = 9},
	{.frequency = SILENT, .duration = 3},
	{.frequency = NOTE_D6, .duration = 9},
	{.frequency = SILENT, .duration = 3},
	{.frequency = NOTE_CS6, .duration = 9},
	{.frequency = SILENT, .duration = 3},
	{.frequency = NOTE_D6, .duration = 9},
	{.frequency = SILENT, .duration = 3},
	{.frequency = NOTE_CS6, .duration = 9},
	{.frequency = SILENT, .duration = 3},
	{.frequency = NOTE_D6, .duration = 9},
	{.frequency = SILENT, .duration = 3},
	{.frequency = NOTE_E6, .duration = 9},
	{.frequency = SILENT, .duration = 3},
	{.frequency = NOTE_D6, .duration = 9},
	{.frequency = SILENT, .duration = 3},
	{.frequency = NOTE_CS6, .duration = 9},
	{.frequency = SILENT, .duration = 3},
	{.frequency = NOTE_B5, .duration = 37},
	{.frequency = SILENT, .duration = 12},
	{.frequency = NOTE_E5, .duration = 18},
	{.frequency = SILENT, .duration = 6},
	{.frequency = NOTE_B5, .duration = 9},
	{.frequency = SILENT, .duration = 3},
	{.frequency = NOTE_CS6, .duration = 9},
	{.frequency = SILENT, .duration = 3},
	{.frequency = NOTE_D6, .duration = 16},
	{.frequency = SILENT, .duration = 8},
	{.frequency = NOTE_D6, .duration = 16},
	{.frequency = SILENT, .duration = 8},
	{.frequency = NOTE_D6, .duration = 16},
	{.frequency = SILENT, .duration = 8},
	{.frequency = NOTE_D6, .duration = 16},
	{.frequency = SILENT, .duration = 8},
	{.frequency = NOTE_D6, .duration = 9},
	{.frequency = SILENT, .duration = 3},
	{.frequency = NOTE_E6, .duration = 9},
	{.frequency = SILENT, .duration = 3},
	{.frequency = NOTE_D6, .duration = 9},
	{.frequency = SILENT, .duration = 3},
	{.frequency = NOTE_CS6, .duration = 9},
	{.frequency = SILENT, .duration = 3},
	{.frequency = NOTE_D6, .duration = 37},
	{.frequency = SILENT, .duration = 12},
	{.frequency = NOTE_D6, .duration = 18},
	{.frequency = SILENT, .duration = 6},
	{.frequency = NOTE_B5, .duration = 18},
	{.frequency = SILENT, .duration = 6},
	{.frequency = NOTE_D6, .duration = 16},
	{.frequency = SILENT, .duration = 8},
	{.frequency = NOTE_D6, .duration = 9},
	{.frequency = SILENT, .duration = 3},
	{.frequency = NOTE_CS6, .duration = 9},
	{.frequency = SILENT, .duration = 3},
	{.frequency = NOTE_B5, .duration = 18},
	{.frequency = SILENT, .duration = 6},
	{.frequency = NOTE_G5, .duration = 18},
	{.frequency = SILENT, .duration = 6},
	{.frequency = NOTE_G5, .duration = 18},
	{.frequency = SILENT, .duration = 6},
	{.frequency = NOTE_B5, .duration = 9},
	{.frequency = SILENT, .duration = 3},
	{.frequency = NOTE_CS6, .duration = 9},
	{.frequency = SILENT, .duration = 3},
	{.frequency = NOTE_D6, .duration = 16},
	{.frequency = SILENT, .duration = 8},
	{.frequency = NOTE_D6, .duration = 16},
	{.frequency = SILENT, .duration = 8},
	{.frequency = NOTE_D6, .duration = 16},
	{.frequency = SILENT, .duration = 8},
	{.frequency = NOTE_D6, .duration = 16},
	{.frequency = SILENT, .duration = 8},
	{.frequency = NOTE_D6, .duration = 9},
	{.frequency = SILENT, .duration = 3},
	{.frequency = NOTE_E6, .duration = 9},
	{.frequency = SILENT, .duration = 3},
	{.frequency = NOTE_D6, .duration = 9},
	{.frequency = SILENT, .duration = 3},
	{.frequency = NOTE_CS6, .duration = 9},
	{.frequency = SILENT, .duration = 3},
	{.frequency = NOTE_D6, .duration = 37},
	{.frequency = SILENT, .duration = 12},
	{.frequency = NOTE_D6, .duration = 18},
	{.frequency = SILENT, .duration = 6},
	{.frequency = NOTE_B5, .duration = 18},
	{.frequency = SILENT, .duration = 6},
	{.frequency = NOTE_D6, .duration = 18},
	{.frequency = SILENT, .duration = 6},
	{.frequency = NOTE_D6, .duration = 9},
	{.frequency = SILENT, .duration = 3},
	{.frequency = NOTE_CS6, .duration = 9},
	{.frequency = SILENT, .duration = 3},
	{.frequency = NOTE_B5, .duration = 18},
	{.frequency = SILENT, .duration = 6},
	{.frequency = NOTE_G5, .duration = 18},
	{.frequency = SILENT, .duration = 6},
	{.frequency = NOTE_G5, .duration = 33},
	{.frequency = SILENT, .duration = 0},
};

const Note sonic_the_hedgdog3_title[] PROGMEM =
{
	{.frequency = NOTE_G6, .duration = 16},
	{.frequency = SILENT, .duration = 6},
	{.frequency = NOTE_G6, .duration = 19},
	{.frequency = SILENT, .duration = 3},
	{.frequency = NOTE_A6, .duration = 16},
	{.frequency = SILENT, .duration = 6},
	{.frequency = NOTE_A6, .duration = 19},
	{.frequency = SILENT, .duration = 3},
	{.frequency = NOTE_B6, .duration = 39},
	{.frequency = SILENT, .duration = 6},
	{.frequency = NOTE_B6, .duration = 9},
	{.frequency = SILENT, .duration = 6},
	{.frequency = NOTE_FS6, .duration = 4},
	{.frequency = NOTE_G6, .duration = 41},
	{.frequency = SILENT, .duration = 3},
	{.frequency = NOTE_G6, .duration = 16},
	{.frequency = SILENT, .duration = 6},
	{.frequency = NOTE_A6, .duration = 16},
	{.frequency = SILENT, .duration = 6},
	{.frequency = NOTE_B6, .duration = 31},
	{.frequency = SILENT, .duration = 12},
	{.frequency = NOTE_B6, .duration = 16},
	{.frequency = SILENT, .duration = 6},
	{.frequency = NOTE_B6, .duration = 39},
	{.frequency = SILENT, .duration = 6},
	{.frequency = NOTE_A6, .duration = 36},
	{.frequency = SILENT, .duration = 9},
	{.frequency = NOTE_A6, .duration = 36},
	{.frequency = SILENT, .duration = 9},
	{.frequency = NOTE_A6, .duration = 19},
	{.frequency = SILENT, .duration = 3},
	{.frequency = NOTE_G6, .duration = 19},
	{.frequency = SILENT, .duration = 3},
	{.frequency = NOTE_A6, .duration = 19},
	{.frequency = SILENT, .duration = 3},
	{.frequency = NOTE_E6, .duration = 3},
	{.frequency = NOTE_FS6, .duration = 172},
	{.frequency = SILENT, .duration = 27},
	{.frequency = NOTE_G6, .duration = 16},
	{.frequency = SILENT, .duration = 6},
	{.frequency = NOTE_G6, .duration = 19},
	{.frequency = SILENT, .duration = 3},
	{.frequency = NOTE_A6, .duration = 16},
	{.frequency = SILENT, .duration = 6},
	{.frequency = NOTE_A6, .duration = 19},
	{.frequency = SILENT, .duration = 3},
	{.frequency = NOTE_B6, .duration = 39},
	{.frequency = SILENT, .duration = 6},
	{.frequency = NOTE_B6, .duration = 9},
	{.frequency = SILENT, .duration = 6},
	{.frequency = NOTE_FS6, .duration = 45},
	{.frequency = SILENT, .duration = 3},
	{.frequency = NOTE_G6, .duration = 16},
	{.frequency = SILENT, .duration = 6},
	{.frequency = NOTE_A6, .duration = 16},
	{.frequency = SILENT, .duration = 6},
	{.frequency = NOTE_B6, .duration = 31},
	{.frequency = SILENT, .duration = 12},
	{.frequency = NOTE_B6, .duration = 16},
	{.frequency = SILENT, .duration = 6},
	{.frequency = NOTE_B6, .duration = 39},
	{.frequency = SILENT, .duration = 6},
	{.frequency = NOTE_C7, .duration = 36},
	{.frequency = SILENT, .duration = 9},
	{.frequency = NOTE_C7, .duration = 36},
	{.frequency = SILENT, .duration = 9},
	{.frequency = NOTE_C7, .duration = 19},
	{.frequency = SILENT, .duration = 3},
	{.frequency = NOTE_B6, .duration = 19},
	{.frequency = SILENT, .duration = 3},
	{.frequency = NOTE_C7, .duration = 19},
	{.frequency = SILENT, .duration = 3},
	{.frequency = NOTE_C7, .duration = 3},
	{.frequency = NOTE_D7, .duration = 174},
	{.frequency = SILENT, .duration = 0},
};

const Note sonic_the_hedgdog2_title[] PROGMEM =
{
	{.frequency = NOTE_E6, .duration = 24},
	{.frequency = SILENT, .duration = 6},
	{.frequency = NOTE_E6, .duration = 24},
	{.frequency = SILENT, .duration = 6},
	{.frequency = NOTE_CS6, .duration = 24},
	{.frequency = SILENT, .duration = 6},
	{.frequency = NOTE_CS6, .duration = 24},
	{.frequency = SILENT, .duration = 6},
	{.frequency = NOTE_D6, .duration = 36},
	{.frequency = SILENT, .duration = 8},
	{.frequency = NOTE_D6, .duration = 69},
	{.frequency = SILENT, .duration = 6},
	{.frequency = NOTE_E6, .duration = 24},
	{.frequency = SILENT, .duration = 6},
	{.frequency = NOTE_E6, .duration = 24},
	{.frequency = SILENT, .duration = 6},
	{.frequency = NOTE_CS6, .duration = 24},
	{.frequency = SILENT, .duration = 6},
	{.frequency = NOTE_CS6, .duration = 24},
	{.frequency = SILENT, .duration = 6},
	{.frequency = NOTE_G6, .duration = 36},
	{.frequency = SILENT, .duration = 8},
	{.frequency = NOTE_G6, .duration = 69},
	{.frequency = SILENT, .duration = 6},
	{.frequency = NOTE_E6, .duration = 24},
	{.frequency = SILENT, .duration = 36},
	{.frequency = NOTE_E6, .duration = 24},
	{.frequency = SILENT, .duration = 51},
	{.frequency = NOTE_DS6, .duration = 39},
	{.frequency = SILENT, .duration = 6},
	{.frequency = NOTE_E6, .duration = 24},
	{.frequency = SILENT, .duration = 0},
};

const Note final_fantasy7_begin[] PROGMEM =
{
	{.frequency = NOTE_B6, .duration = 26},
	{.frequency = SILENT, .duration = 8},
	{.frequency = NOTE_B5, .duration = 26},
	{.frequency = SILENT, .duration = 8},
	{.frequency = NOTE_A5, .duration = 26},
	{.frequency = SILENT, .duration = 8},
	{.frequency = NOTE_CS6, .duration = 26},
	{.frequency = SILENT, .duration = 8},
	{.frequency = NOTE_D6, .duration = 26},
	{.frequency = SILENT, .duration = 8},
	{.frequency = NOTE_D6, .duration = 26},
	{.frequency = SILENT, .duration = 8},
	{.frequency = NOTE_CS6, .duration = 57},
	{.frequency = SILENT, .duration = 12},
	{.frequency = NOTE_B5, .duration = 57},
	{.frequency = SILENT, .duration = 12},
	{.frequency = NOTE_B5, .duration = 26},
	{.frequency = SILENT, .duration = 8},
	{.frequency = NOTE_AS5, .duration = 26},
	{.frequency = SILENT, .duration = 8},
	{.frequency = NOTE_B5, .duration = 57},
	{.frequency = SILENT, .duration = 12},
	{.frequency = NOTE_B5, .duration = 30},
	{.frequency = SILENT, .duration = 38},
	{.frequency = NOTE_B5, .duration = 26},
	{.frequency = SILENT, .duration = 8},
	{.frequency = NOTE_B5, .duration = 26},
	{.frequency = SILENT, .duration = 8},
	{.frequency = NOTE_A5, .duration = 26},
	{.frequency = SILENT, .duration = 8},
	{.frequency = NOTE_CS6, .duration = 26},
	{.frequency = SILENT, .duration = 8},
	{.frequency = NOTE_D6, .duration = 26},
	{.frequency = SILENT, .duration = 8},
	{.frequency = NOTE_D6, .duration = 26},
	{.frequency = SILENT, .duration = 8},
	{.frequency = NOTE_CS6, .duration = 57},
	{.frequency = SILENT, .duration = 12},
	{.frequency = NOTE_D6, .duration = 57},
	{.frequency = SILENT, .duration = 12},
	{.frequency = NOTE_CS6, .duration = 13},
	{.frequency = SILENT, .duration = 4},
	{.frequency = NOTE_D6, .duration = 13},
	{.frequency = SILENT, .duration = 4},
	{.frequency = NOTE_E6, .duration = 13},
	{.frequency = SILENT, .duration = 4},
	{.frequency = NOTE_CS6, .duration = 13},
	{.frequency = SILENT, .duration = 4},
	{.frequency = NOTE_D6, .duration = 114},
	{.frequency = SILENT, .duration = 24},
	{.frequency = NOTE_D6, .duration = 26},
	{.frequency = SILENT, .duration = 8},
	{.frequency = NOTE_D6, .duration = 26},
	{.frequency = SILENT, .duration = 8},
	{.frequency = NOTE_CS6, .duration = 26},
	{.frequency = SILENT, .duration = 8},
	{.frequency = NOTE_E6, .duration = 26},
	{.frequency = SILENT, .duration = 8},
	{.frequency = NOTE_FS6, .duration = 26},
	{.frequency = SILENT, .duration = 8},
	{.frequency = NOTE_E6, .duration = 13},
	{.frequency = SILENT, .duration = 4},
	{.frequency = NOTE_D6, .duration = 13},
	{.frequency = SILENT, .duration = 4},
	{.frequency = NOTE_CS6, .duration = 57},
	{.frequency = SILENT, .duration = 12},
	{.frequency = NOTE_B5, .duration = 13},
	{.frequency = SILENT, .duration = 4},
	{.frequency = NOTE_CS6, .duration = 13},
	{.frequency = SILENT, .duration = 4},
	{.frequency = NOTE_D6, .duration = 13},
	{.frequency = SILENT, .duration = 4},
	{.frequency = NOTE_FS6, .duration = 13},
	{.frequency = SILENT, .duration = 4},
	{.frequency = NOTE_E6, .duration = 13},
	{.frequency = SILENT, .duration = 4},
	{.frequency = NOTE_D6, .duration = 13},
	{.frequency = SILENT, .duration = 4},
	{.frequency = NOTE_CS6, .duration = 13},
	{.frequency = SILENT, .duration = 4},
	{.frequency = NOTE_B5, .duration = 13},
	{.frequency = SILENT, .duration = 4},
	{.frequency = NOTE_AS5, .duration = 30},
	{.frequency = SILENT, .duration = 4},
	{.frequency = NOTE_B5, .duration = 30},
	{.frequency = SILENT, .duration = 73},
	{.frequency = NOTE_B5, .duration = 26},
	{.frequency = SILENT, .duration = 8},
	{.frequency = NOTE_B5, .duration = 26},
	{.frequency = SILENT, .duration = 8},
	{.frequency = NOTE_A5, .duration = 26},
	{.frequency = SILENT, .duration = 8},
	{.frequency = NOTE_CS6, .duration = 26},
	{.frequency = SILENT, .duration = 8},
	{.frequency = NOTE_D6, .duration = 26},
	{.frequency = SILENT, .duration = 8},
	{.frequency = NOTE_D6, .duration = 26},
	{.frequency = SILENT, .duration = 8},
	{.frequency = NOTE_CS6, .duration = 57},
	{.frequency = SILENT, .duration = 12},
	{.frequency = NOTE_B5, .duration = 57},
	{.frequency = SILENT, .duration = 12},
	{.frequency = NOTE_AS5, .duration = 13},
	{.frequency = SILENT, .duration = 4},
	{.frequency = NOTE_B5, .duration = 13},
	{.frequency = SILENT, .duration = 4},
	{.frequency = NOTE_CS6, .duration = 13},
	{.frequency = SILENT, .duration = 4},
	{.frequency = NOTE_AS5, .duration = 13},
	{.frequency = SILENT, .duration = 4},
	{.frequency = NOTE_B5, .duration = 114},
	{.frequency = SILENT, .duration = 0},
};


const Note the_monkey_island_island[] PROGMEM =
{
	{.frequency = NOTE_G6, .duration = 40},
	{.frequency = SILENT, .duration = 10},
	{.frequency = NOTE_G6, .duration = 40},
	{.frequency = SILENT, .duration = 10},
	{.frequency = NOTE_E6, .duration = 30},
	{.frequency = SILENT, .duration = 7},
	{.frequency = NOTE_F6, .duration = 10},
	{.frequency = SILENT, .duration = 2},
	{.frequency = NOTE_G6, .duration = 30},
	{.frequency = SILENT, .duration = 7},
	{.frequency = NOTE_E6, .duration = 10},
	{.frequency = SILENT, .duration = 2},
	{.frequency = NOTE_F6, .duration = 40},
	{.frequency = SILENT, .duration = 10},
	{.frequency = NOTE_E6, .duration = 80},
	{.frequency = SILENT, .duration = 20},
	{.frequency = SILENT, .duration = 50},
	{.frequency = NOTE_DS6, .duration = 40},
	{.frequency = SILENT, .duration = 10},
	{.frequency = NOTE_DS6, .duration = 60},
	{.frequency = SILENT, .duration = 15},
	{.frequency = SILENT, .duration = 12},
	{.frequency = NOTE_F6, .duration = 10},
	{.frequency = SILENT, .duration = 2},
	{.frequency = NOTE_DS6, .duration = 40},
	{.frequency = SILENT, .duration = 10},
	{.frequency = NOTE_D6, .duration = 40},
	{.frequency = SILENT, .duration = 10},
	{.frequency = NOTE_C6, .duration = 80},
	{.frequency = SILENT, .duration = 20},
	{.frequency = SILENT, .duration = 50},
	{.frequency = NOTE_G6, .duration = 40},
	{.frequency = SILENT, .duration = 10},
	{.frequency = NOTE_G6, .duration = 40},
	{.frequency = SILENT, .duration = 10},
	{.frequency = NOTE_E6, .duration = 30},
	{.frequency = SILENT, .duration = 7},
	{.frequency = NOTE_F6, .duration = 10},
	{.frequency = SILENT, .duration = 2},
	{.frequency = NOTE_G6, .duration = 30},
	{.frequency = SILENT, .duration = 7},
	{.frequency = NOTE_E6, .duration = 10},
	{.frequency = SILENT, .duration = 2},
	{.frequency = NOTE_F6, .duration = 40},
	{.frequency = SILENT, .duration = 10},
	{.frequency = NOTE_E6, .duration = 80},
	{.frequency = SILENT, .duration = 20},
	{.frequency = NOTE_C6, .duration = 80},
	{.frequency = SILENT, .duration = 20},
	{.frequency = NOTE_G5, .duration = 30},
	{.frequency = SILENT, .duration = 7},
	{.frequency = NOTE_A5, .duration = 10},
	{.frequency = SILENT, .duration = 2},
	{.frequency = NOTE_B5, .duration = 40},
	{.frequency = SILENT, .duration = 10},
	{.frequency = NOTE_C6, .duration = 40},
	{.frequency = SILENT, .duration = 10},
	{.frequency = NOTE_D6, .duration = 40},
	{.frequency = SILENT, .duration = 10},
	{.frequency = NOTE_C6, .duration = 80},
	{.frequency = SILENT, .duration = 20},
	{.frequency = NOTE_G5, .duration = 40},
	{.frequency = SILENT, .duration = 10},
	{.frequency = NOTE_G5, .duration = 40},
	{.frequency = SILENT, .duration = 10},
	{.frequency = NOTE_G5, .duration = 40},
	{.frequency = SILENT, .duration = 10},
	{.frequency = NOTE_A5, .duration = 20},
	{.frequency = SILENT, .duration = 5},
	{.frequency = NOTE_B5, .duration = 20},
	{.frequency = SILENT, .duration = 5},
	{.frequency = NOTE_C6, .duration = 40},
	{.frequency = SILENT, .duration = 10},
	{.frequency = NOTE_C6, .duration = 40},
	{.frequency = SILENT, .duration = 10},
	{.frequency = NOTE_D6, .duration = 40},
	{.frequency = SILENT, .duration = 10},
	{.frequency = NOTE_C6, .duration = 40},
	{.frequency = SILENT, .duration = 10},
	{.frequency = NOTE_D6, .duration = 40},
	{.frequency = SILENT, .duration = 10},
	{.frequency = NOTE_E6, .duration = 20},
	{.frequency = SILENT, .duration = 5},
	{.frequency = NOTE_D6, .duration = 20},
	{.frequency = SILENT, .duration = 5},
	{.frequency = NOTE_D6, .duration = 10},
	{.frequency = SILENT, .duration = 2},
	{.frequency = SILENT, .duration = 12},
	{.frequency = NOTE_E6, .duration = 20},
	{.frequency = SILENT, .duration = 5},
	{.frequency = NOTE_G5, .duration = 40},
	{.frequency = SILENT, .duration = 10},
	{.frequency = NOTE_C6, .duration = 160},
	{.frequency = SILENT, .duration = 0},
};

const Note the_monkey_island_scummbar[] PROGMEM =
{
	{.frequency = NOTE_G5, .duration = 26},
	{.frequency = SILENT, .duration = 6},
	{.frequency = NOTE_G5, .duration = 13},
	{.frequency = SILENT, .duration = 3},
	{.frequency = NOTE_A5, .duration = 13},
	{.frequency = SILENT, .duration = 3},
	{.frequency = NOTE_AS5, .duration = 26},
	{.frequency = SILENT, .duration = 6},
	{.frequency = NOTE_A5, .duration = 13},
	{.frequency = SILENT, .duration = 3},
	{.frequency = NOTE_G5, .duration = 13},
	{.frequency = SILENT, .duration = 3},
	{.frequency = NOTE_C6, .duration = 26},
	{.frequency = SILENT, .duration = 6},
	{.frequency = NOTE_C6, .duration = 26},
	{.frequency = SILENT, .duration = 6},
	{.frequency = NOTE_C6, .duration = 26},
	{.frequency = SILENT, .duration = 6},
	{.frequency = NOTE_AS5, .duration = 13},
	{.frequency = SILENT, .duration = 3},
	{.frequency = NOTE_A5, .duration = 13},
	{.frequency = SILENT, .duration = 3},
	{.frequency = NOTE_G5, .duration = 26},
	{.frequency = SILENT, .duration = 6},
	{.frequency = NOTE_G5, .duration = 13},
	{.frequency = SILENT, .duration = 3},
	{.frequency = NOTE_A5, .duration = 13},
	{.frequency = SILENT, .duration = 3},
	{.frequency = NOTE_AS5, .duration = 26},
	{.frequency = SILENT, .duration = 6},
	{.frequency = NOTE_A5, .duration = 13},
	{.frequency = SILENT, .duration = 3},
	{.frequency = NOTE_G5, .duration = 13},
	{.frequency = SILENT, .duration = 3},
	{.frequency = NOTE_D6, .duration = 26},
	{.frequency = SILENT, .duration = 6},
	{.frequency = NOTE_D6, .duration = 26},
	{.frequency = SILENT, .duration = 6},
	{.frequency = NOTE_D6, .duration = 53},
	{.frequency = SILENT, .duration = 13},
	{.frequency = NOTE_D6, .duration = 106},
	{.frequency = SILENT, .duration = 26},
	{.frequency = NOTE_D6, .duration = 26},
	{.frequency = SILENT, .duration = 6},
	{.frequency = NOTE_D6, .duration = 13},
	{.frequency = SILENT, .duration = 3},
	{.frequency = NOTE_DS6, .duration = 13},
	{.frequency = SILENT, .duration = 3},
	{.frequency = NOTE_F6, .duration = 26},
	{.frequency = SILENT, .duration = 6},
	{.frequency = NOTE_F6, .duration = 26},
	{.frequency = SILENT, .duration = 6},
	{.frequency = NOTE_D6, .duration = 26},
	{.frequency = SILENT, .duration = 6},
	{.frequency = NOTE_D6, .duration = 13},
	{.frequency = SILENT, .duration = 3},
	{.frequency = NOTE_DS6, .duration = 13},
	{.frequency = SILENT, .duration = 3},
	{.frequency = NOTE_F6, .duration = 26},
	{.frequency = SILENT, .duration = 6},
	{.frequency = NOTE_FS6, .duration = 26},
	{.frequency = SILENT, .duration = 6},
	{.frequency = NOTE_G6, .duration = 26},
	{.frequency = SILENT, .duration = 6},
	{.frequency = NOTE_D6, .duration = 26},
	{.frequency = SILENT, .duration = 6},
	{.frequency = NOTE_DS6, .duration = 26},
	{.frequency = SILENT, .duration = 6},
	{.frequency = NOTE_D6, .duration = 13},
	{.frequency = SILENT, .duration = 3},
	{.frequency = NOTE_C6, .duration = 13},
	{.frequency = SILENT, .duration = 3},
	{.frequency = NOTE_D6, .duration = 26},
	{.frequency = SILENT, .duration = 6},
	{.frequency = NOTE_C6, .duration = 13},
	{.frequency = SILENT, .duration = 3},
	{.frequency = NOTE_AS5, .duration = 13},
	{.frequency = SILENT, .duration = 3},
	{.frequency = NOTE_C6, .duration = 26},
	{.frequency = SILENT, .duration = 6},
	{.frequency = NOTE_AS5, .duration = 13},
	{.frequency = SILENT, .duration = 3},
	{.frequency = NOTE_A5, .duration = 13},
	{.frequency = SILENT, .duration = 3},
	{.frequency = NOTE_G5, .duration = 40},
	{.frequency = SILENT, .duration = 10},
	{.frequency = NOTE_A5, .duration = 13},
	{.frequency = SILENT, .duration = 3},
	{.frequency = NOTE_AS5, .duration = 40},
	{.frequency = SILENT, .duration = 10},
	{.frequency = NOTE_C6, .duration = 13},
	{.frequency = SILENT, .duration = 3},
	{.frequency = NOTE_D6, .duration = 13},
	{.frequency = SILENT, .duration = 3},
	{.frequency = NOTE_DS6, .duration = 13},
	{.frequency = SILENT, .duration = 3},
	{.frequency = NOTE_D6, .duration = 13},
	{.frequency = SILENT, .duration = 3},
	{.frequency = NOTE_C6, .duration = 13},
	{.frequency = SILENT, .duration = 3},
	{.frequency = NOTE_AS5, .duration = 26},
	{.frequency = SILENT, .duration = 6},
	{.frequency = NOTE_G5, .duration = 26},
	{.frequency = SILENT, .duration = 6},
	{.frequency = NOTE_G6, .duration = 26},
	{.frequency = SILENT, .duration = 6},
	{.frequency = NOTE_D6, .duration = 26},
	{.frequency = SILENT, .duration = 6},
	{.frequency = NOTE_DS6, .duration = 26},
	{.frequency = SILENT, .duration = 6},
	{.frequency = NOTE_D6, .duration = 13},
	{.frequency = SILENT, .duration = 3},
	{.frequency = NOTE_C6, .duration = 13},
	{.frequency = SILENT, .duration = 3},
	{.frequency = NOTE_AS5, .duration = 26},
	{.frequency = SILENT, .duration = 6},
	{.frequency = NOTE_A5, .duration = 26},
	{.frequency = SILENT, .duration = 6},
	{.frequency = NOTE_AS5, .duration = 26},
	{.frequency = SILENT, .duration = 6},
	{.frequency = NOTE_G5, .duration = 26},
	{.frequency = SILENT, .duration = 6},
	{.frequency = NOTE_G5, .duration = 106},
	{.frequency = SILENT, .duration = 26},
	{.frequency = NOTE_G5, .duration = 106},
	{.frequency = SILENT, .duration = 0},
};

const Note rescue_n_dales_rescues_ranger_happy_cat_factory[] PROGMEM =
{
	{.frequency = NOTE_DS6, .duration = 20},
	{.frequency = SILENT, .duration = 5},
	{.frequency = NOTE_G6, .duration = 20},
	{.frequency = SILENT, .duration = 5},
	{.frequency = NOTE_AS6, .duration = 20},
	{.frequency = SILENT, .duration = 5},
	{.frequency = NOTE_C7, .duration = 20},
	{.frequency = SILENT, .duration = 5},
	{.frequency = SILENT, .duration = 25},
	{.frequency = NOTE_AS6, .duration = 20},
	{.frequency = SILENT, .duration = 5},
	{.frequency = NOTE_GS6, .duration = 20},
	{.frequency = SILENT, .duration = 5},
	{.frequency = NOTE_AS6, .duration = 20},
	{.frequency = SILENT, .duration = 5},
	{.frequency = NOTE_AS6, .duration = 20},
	{.frequency = SILENT, .duration = 5},
	{.frequency = NOTE_GS6, .duration = 20},
	{.frequency = SILENT, .duration = 5},
	{.frequency = NOTE_G6, .duration = 20},
	{.frequency = SILENT, .duration = 5},
	{.frequency = NOTE_GS6, .duration = 20},
	{.frequency = SILENT, .duration = 5},
	{.frequency = SILENT, .duration = 25},
	{.frequency = NOTE_G6, .duration = 20},
	{.frequency = SILENT, .duration = 5},
	{.frequency = NOTE_F6, .duration = 20},
	{.frequency = SILENT, .duration = 5},
	{.frequency = NOTE_G6, .duration = 20},
	{.frequency = SILENT, .duration = 5},
	{.frequency = NOTE_DS6, .duration = 20},
	{.frequency = SILENT, .duration = 5},
	{.frequency = NOTE_G6, .duration = 20},
	{.frequency = SILENT, .duration = 5},
	{.frequency = NOTE_AS6, .duration = 20},
	{.frequency = SILENT, .duration = 5},
	{.frequency = NOTE_C7, .duration = 20},
	{.frequency = SILENT, .duration = 5},
	{.frequency = SILENT, .duration = 25},
	{.frequency = NOTE_AS6, .duration = 20},
	{.frequency = SILENT, .duration = 5},
	{.frequency = NOTE_GS6, .duration = 20},
	{.frequency = SILENT, .duration = 5},
	{.frequency = NOTE_AS6, .duration = 20},
	{.frequency = SILENT, .duration = 5},
	{.frequency = NOTE_AS6, .duration = 20},
	{.frequency = SILENT, .duration = 5},
	{.frequency = NOTE_GS6, .duration = 20},
	{.frequency = SILENT, .duration = 5},
	{.frequency = NOTE_G6, .duration = 20},
	{.frequency = SILENT, .duration = 5},
	{.frequency = NOTE_GS6, .duration = 20},
	{.frequency = SILENT, .duration = 5},
	{.frequency = SILENT, .duration = 25},
	{.frequency = NOTE_CS6, .duration = 20},
	{.frequency = SILENT, .duration = 5},
	{.frequency = NOTE_B5, .duration = 20},
	{.frequency = SILENT, .duration = 5},
	{.frequency = NOTE_AS5, .duration = 20},
	{.frequency = SILENT, .duration = 5},
	{.frequency = NOTE_AS5, .duration = 80},
	{.frequency = SILENT, .duration = 20},
	{.frequency = NOTE_AS5, .duration = 20},
	{.frequency = SILENT, .duration = 5},
	{.frequency = NOTE_GS5, .duration = 20},
	{.frequency = SILENT, .duration = 5},
	{.frequency = NOTE_FS5, .duration = 20},
	{.frequency = SILENT, .duration = 5},
	{.frequency = NOTE_GS5, .duration = 20},
	{.frequency = SILENT, .duration = 5},
	{.frequency = NOTE_GS5, .duration = 20},
	{.frequency = SILENT, .duration = 5},
	{.frequency = NOTE_GS5, .duration = 40},
	{.frequency = SILENT, .duration = 10},
	{.frequency = NOTE_GS5, .duration = 20},
	{.frequency = SILENT, .duration = 5},
	{.frequency = NOTE_GS5, .duration = 20},
	{.frequency = SILENT, .duration = 5},
	{.frequency = NOTE_FS5, .duration = 20},
	{.frequency = SILENT, .duration = 5},
	{.frequency = NOTE_F5, .duration = 20},
	{.frequency = SILENT, .duration = 5},
	{.frequency = NOTE_DS5, .duration = 20},
	{.frequency = SILENT, .duration = 5},
	{.frequency = NOTE_DS5, .duration = 160},
	{.frequency = SILENT, .duration = 40},
	{.frequency = NOTE_DS5, .duration = 80},
	{.frequency = SILENT, .duration = 20},
	{.frequency = NOTE_DS5, .duration = 20},
	{.frequency = SILENT, .duration = 5},
	{.frequency = NOTE_CS6, .duration = 20},
	{.frequency = SILENT, .duration = 5},
	{.frequency = NOTE_B5, .duration = 20},
	{.frequency = SILENT, .duration = 5},
	{.frequency = NOTE_AS5, .duration = 20},
	{.frequency = SILENT, .duration = 5},
	{.frequency = NOTE_AS5, .duration = 80},
	{.frequency = SILENT, .duration = 20},
	{.frequency = NOTE_AS5, .duration = 20},
	{.frequency = SILENT, .duration = 5},
	{.frequency = NOTE_GS5, .duration = 20},
	{.frequency = SILENT, .duration = 5},
	{.frequency = NOTE_FS5, .duration = 20},
	{.frequency = SILENT, .duration = 5},
	{.frequency = NOTE_GS5, .duration = 20},
	{.frequency = SILENT, .duration = 5},
	{.frequency = NOTE_GS5, .duration = 20},
	{.frequency = SILENT, .duration = 5},
	{.frequency = NOTE_GS5, .duration = 20},
	{.frequency = SILENT, .duration = 5},
	{.frequency = NOTE_AS5, .duration = 20},
	{.frequency = SILENT, .duration = 5},
	{.frequency = NOTE_GS5, .duration = 20},
	{.frequency = SILENT, .duration = 5},
	{.frequency = NOTE_FS5, .duration = 40},
	{.frequency = SILENT, .duration = 10},
	{.frequency = NOTE_F5, .duration = 20},
	{.frequency = SILENT, .duration = 5},
	{.frequency = NOTE_DS5, .duration = 20},
	{.frequency = SILENT, .duration = 5},
	{.frequency = NOTE_DS5, .duration = 160},
	{.frequency = SILENT, .duration = 40},
	{.frequency = NOTE_DS5, .duration = 160},
	{.frequency = SILENT, .duration = 0},
};

const Note start_trek_the_motion_picture_main_theme[] PROGMEM =
{
	{.frequency = NOTE_F5, .duration = 44},
	{.frequency = SILENT, .duration = 26},
	{.frequency = NOTE_AS5, .duration = 14},
	{.frequency = NOTE_D6, .duration = 14},
	{.frequency = NOTE_C6, .duration = 44},
	{.frequency = SILENT, .duration = 26},
	{.frequency = NOTE_GS5, .duration = 14},
	{.frequency = NOTE_G6, .duration = 14},
	{.frequency = NOTE_F6, .duration = 89},
	{.frequency = SILENT, .duration = 37},
	{.frequency = NOTE_AS5, .duration = 14},
	{.frequency = NOTE_DS6, .duration = 14},
	{.frequency = NOTE_F6, .duration = 14},
	{.frequency = NOTE_G6, .duration = 14},
	{.frequency = NOTE_DS6, .duration = 14},
	{.frequency = NOTE_F6, .duration = 44},
	{.frequency = SILENT, .duration = 8},
	{.frequency = NOTE_DS6, .duration = 44},
	{.frequency = SILENT, .duration = 8},
	{.frequency = NOTE_D6, .duration = 44},
	{.frequency = SILENT, .duration = 8},
	{.frequency = NOTE_D6, .duration = 14},
	{.frequency = NOTE_AS5, .duration = 14},
	{.frequency = NOTE_D6, .duration = 14},
	{.frequency = NOTE_C6, .duration = 89},
	{.frequency = SILENT, .duration = 131},
	{.frequency = NOTE_F5, .duration = 44},
	{.frequency = SILENT, .duration = 26},
	{.frequency = NOTE_AS5, .duration = 14},
	{.frequency = NOTE_D6, .duration = 14},
	{.frequency = NOTE_C6, .duration = 44},
	{.frequency = SILENT, .duration = 26},
	{.frequency = NOTE_GS5, .duration = 14},
	{.frequency = NOTE_G6, .duration = 14},
	{.frequency = NOTE_F6, .duration = 89},
	{.frequency = SILENT, .duration = 37},
	{.frequency = NOTE_AS5, .duration = 14},
	{.frequency = NOTE_DS6, .duration = 14},
	{.frequency = NOTE_F6, .duration = 14},
	{.frequency = NOTE_G6, .duration = 14},
	{.frequency = NOTE_DS6, .duration = 14},
	{.frequency = NOTE_F6, .duration = 44},
	{.frequency = SILENT, .duration = 8},
	{.frequency = NOTE_DS6, .duration = 44},
	{.frequency = SILENT, .duration = 8},
	{.frequency = NOTE_D6, .duration = 67},
	{.frequency = SILENT, .duration = 13},
	{.frequency = NOTE_D6, .duration = 11},
	{.frequency = NOTE_AS5, .duration = 11},
	{.frequency = NOTE_C6, .duration = 89},
	{.frequency = SILENT, .duration = 47},
	{.frequency = NOTE_A4, .duration = 22},
	{.frequency = SILENT, .duration = 2},
	{.frequency = NOTE_C5, .duration = 22},
	{.frequency = SILENT, .duration = 2},
	{.frequency = NOTE_G5, .duration = 22},
	{.frequency = SILENT, .duration = 2},
	{.frequency = NOTE_A5, .duration = 89},
	{.frequency = SILENT, .duration = 19},
	{.frequency = NOTE_FS5, .duration = 89},
	{.frequency = SILENT, .duration = 19},
	{.frequency = NOTE_A5, .duration = 89},
	{.frequency = SILENT, .duration = 19},
	{.frequency = NOTE_FS5, .duration = 67},
	{.frequency = SILENT, .duration = 41},
	{.frequency = NOTE_A4, .duration = 44},
	{.frequency = SILENT, .duration = 8},
	{.frequency = NOTE_B4, .duration = 44},
	{.frequency = SILENT, .duration = 8},
	{.frequency = NOTE_C5, .duration = 44},
	{.frequency = SILENT, .duration = 8},
	{.frequency = NOTE_B4, .duration = 44},
	{.frequency = SILENT, .duration = 8},
	{.frequency = NOTE_A4, .duration = 14},
	{.frequency = NOTE_D4, .duration = 14},
	{.frequency = NOTE_A4, .duration = 14},
	{.frequency = NOTE_G5, .duration = 89},
	{.frequency = SILENT, .duration = 75},
	{.frequency = NOTE_G5, .duration = 89},
	{.frequency = SILENT, .duration = 19},
	{.frequency = NOTE_F5, .duration = 44},
	{.frequency = SILENT, .duration = 8},
	{.frequency = NOTE_C5, .duration = 22},
	{.frequency = SILENT, .duration = 2},
	{.frequency = NOTE_A5, .duration = 22},
	{.frequency = SILENT, .duration = 2},
	{.frequency = NOTE_A5, .duration = 22},
	{.frequency = SILENT, .duration = 30},
	{.frequency = NOTE_F5, .duration = 89},
	{.frequency = SILENT, .duration = 75},
	{.frequency = NOTE_G5, .duration = 44},
	{.frequency = SILENT, .duration = 8},
	{.frequency = NOTE_A5, .duration = 44},
	{.frequency = SILENT, .duration = 8},
	{.frequency = NOTE_AS5, .duration = 44},
	{.frequency = SILENT, .duration = 8},
	{.frequency = NOTE_GS5, .duration = 44},
	{.frequency = SILENT, .duration = 8},
	{.frequency = NOTE_GS5, .duration = 14},
	{.frequency = NOTE_G5, .duration = 14},
	{.frequency = NOTE_DS5, .duration = 14},
	{.frequency = NOTE_F5, .duration = 89},
	{.frequency = SILENT, .duration = 75},
	{.frequency = NOTE_F5, .duration = 44},
	{.frequency = SILENT, .duration = 26},
	{.frequency = NOTE_AS5, .duration = 14},
	{.frequency = NOTE_D6, .duration = 14},
	{.frequency = NOTE_C6, .duration = 44},
	{.frequency = SILENT, .duration = 26},
	{.frequency = NOTE_GS5, .duration = 14},
	{.frequency = NOTE_G6, .duration = 14},
	{.frequency = NOTE_F6, .duration = 89},
	{.frequency = SILENT, .duration = 37},
	{.frequency = NOTE_AS5, .duration = 14},
	{.frequency = NOTE_DS6, .duration = 14},
	{.frequency = NOTE_F6, .duration = 14},
	{.frequency = NOTE_G6, .duration = 14},
	{.frequency = NOTE_DS6, .duration = 14},
	{.frequency = NOTE_F6, .duration = 44},
	{.frequency = SILENT, .duration = 8},
	{.frequency = NOTE_DS6, .duration = 44},
	{.frequency = SILENT, .duration = 8},
	{.frequency = NOTE_D6, .duration = 44},
	{.frequency = SILENT, .duration = 8},
	{.frequency = NOTE_D6, .duration = 14},
	{.frequency = NOTE_AS5, .duration = 14},
	{.frequency = NOTE_D6, .duration = 14},
	{.frequency = NOTE_C6, .duration = 44},
	{.frequency = SILENT, .duration = 0},
};

const Note snow_white_and_the_seven_darfs[] PROGMEM =
{
	{.frequency = NOTE_B6, .duration = 31},
	{.frequency = SILENT, .duration = 3},
	{.frequency = NOTE_D6, .duration = 31},
	{.frequency = SILENT, .duration = 3},
	{.frequency = NOTE_D6, .duration = 31},
	{.frequency = SILENT, .duration = 3},
	{.frequency = NOTE_D6, .duration = 31},
	{.frequency = SILENT, .duration = 3},
	{.frequency = NOTE_D6, .duration = 31},
	{.frequency = SILENT, .duration = 3},
	{.frequency = NOTE_B5, .duration = 31},
	{.frequency = SILENT, .duration = 3},
	{.frequency = NOTE_B5, .duration = 31},
	{.frequency = SILENT, .duration = 3},
	{.frequency = NOTE_B5, .duration = 31},
	{.frequency = SILENT, .duration = 3},
	{.frequency = NOTE_B5, .duration = 15},
	{.frequency = SILENT, .duration = 1},
	{.frequency = NOTE_B5, .duration = 15},
	{.frequency = SILENT, .duration = 1},
	{.frequency = NOTE_A5, .duration = 47},
	{.frequency = SILENT, .duration = 5},
	{.frequency = NOTE_B5, .duration = 15},
	{.frequency = SILENT, .duration = 1},
	{.frequency = NOTE_C6, .duration = 31},
	{.frequency = SILENT, .duration = 3},
	{.frequency = NOTE_E6, .duration = 31},
	{.frequency = SILENT, .duration = 3},
	{.frequency = NOTE_D6, .duration = 95},
	{.frequency = SILENT, .duration = 10},
	{.frequency = NOTE_B5, .duration = 31},
	{.frequency = SILENT, .duration = 3},
	{.frequency = NOTE_D6, .duration = 31},
	{.frequency = SILENT, .duration = 3},
	{.frequency = NOTE_D6, .duration = 31},
	{.frequency = SILENT, .duration = 3},
	{.frequency = NOTE_D6, .duration = 31},
	{.frequency = SILENT, .duration = 3},
	{.frequency = NOTE_D6, .duration = 31},
	{.frequency = SILENT, .duration = 3},
	{.frequency = NOTE_B5, .duration = 31},
	{.frequency = SILENT, .duration = 3},
	{.frequency = NOTE_B5, .duration = 31},
	{.frequency = SILENT, .duration = 3},
	{.frequency = NOTE_B5, .duration = 31},
	{.frequency = SILENT, .duration = 3},
	{.frequency = NOTE_B5, .duration = 31},
	{.frequency = SILENT, .duration = 3},
	{.frequency = NOTE_A5, .duration = 47},
	{.frequency = SILENT, .duration = 5},
	{.frequency = NOTE_B5, .duration = 15},
	{.frequency = SILENT, .duration = 1},
	{.frequency = NOTE_A5, .duration = 31},
	{.frequency = SILENT, .duration = 3},
	{.frequency = NOTE_D5, .duration = 31},
	{.frequency = SILENT, .duration = 3},
	{.frequency = NOTE_G5, .duration = 95},
	{.frequency = SILENT, .duration = 27},
	{.frequency = NOTE_G5, .duration = 15},
	{.frequency = SILENT, .duration = 1},
	{.frequency = NOTE_FS5, .duration = 31},
	{.frequency = SILENT, .duration = 3},
	{.frequency = NOTE_G5, .duration = 31},
	{.frequency = SILENT, .duration = 3},
	{.frequency = NOTE_A5, .duration = 47},
	{.frequency = SILENT, .duration = 5},
	{.frequency = NOTE_B5, .duration = 15},
	{.frequency = SILENT, .duration = 1},
	{.frequency = NOTE_G5, .duration = 31},
	{.frequency = SILENT, .duration = 3},
	{.frequency = NOTE_FS5, .duration = 31},
	{.frequency = SILENT, .duration = 3},
	{.frequency = NOTE_E5, .duration = 31},
	{.frequency = SILENT, .duration = 3},
	{.frequency = NOTE_G5, .duration = 15},
	{.frequency = SILENT, .duration = 1},
	{.frequency = NOTE_G5, .duration = 15},
	{.frequency = SILENT, .duration = 1},
	{.frequency = NOTE_FS5, .duration = 31},
	{.frequency = SILENT, .duration = 3},
	{.frequency = NOTE_G5, .duration = 31},
	{.frequency = SILENT, .duration = 3},
	{.frequency = NOTE_A5, .duration = 47},
	{.frequency = SILENT, .duration = 5},
	{.frequency = NOTE_B5, .duration = 15},
	{.frequency = SILENT, .duration = 1},
	{.frequency = NOTE_G5, .duration = 15},
	{.frequency = SILENT, .duration = 1},
	{.frequency = NOTE_A5, .duration = 15},
	{.frequency = SILENT, .duration = 1},
	{.frequency = NOTE_FS5, .duration = 15},
	{.frequency = SILENT, .duration = 1},
	{.frequency = NOTE_G5, .duration = 15},
	{.frequency = SILENT, .duration = 1},
	{.frequency = NOTE_E5, .duration = 31},
	{.frequency = SILENT, .duration = 3},
	{.frequency = NOTE_G5, .duration = 15},
	{.frequency = SILENT, .duration = 1},
	{.frequency = NOTE_A5, .duration = 15},
	{.frequency = SILENT, .duration = 1},
	{.frequency = NOTE_B5, .duration = 95},
	{.frequency = SILENT, .duration = 10},
	{.frequency = NOTE_G5, .duration = 15},
	{.frequency = SILENT, .duration = 1},
	{.frequency = NOTE_A5, .duration = 15},
	{.frequency = SILENT, .duration = 1},
	{.frequency = NOTE_B5, .duration = 95},
	{.frequency = SILENT, .duration = 10},
	{.frequency = NOTE_B5, .duration = 15},
	{.frequency = SILENT, .duration = 1},
	{.frequency = NOTE_C6, .duration = 15},
	{.frequency = SILENT, .duration = 1},
	{.frequency = NOTE_D6, .duration = 63},
	{.frequency = SILENT, .duration = 7},
	{.frequency = NOTE_D6, .duration = 63},
	{.frequency = SILENT, .duration = 7},
	{.frequency = NOTE_D6, .duration = 63},
	{.frequency = SILENT, .duration = 7},
	{.frequency = NOTE_D6, .duration = 63},
	{.frequency = SILENT, .duration = 7},
	{.frequency = NOTE_D6, .duration = 127},
	{.frequency = SILENT, .duration = 14},
	{.frequency = NOTE_D6, .duration = 95},
	{.frequency = SILENT, .duration = 10},
	{.frequency = NOTE_D5, .duration = 31},
	{.frequency = SILENT, .duration = 3},
	{.frequency = NOTE_G5, .duration = 95},
	{.frequency = SILENT, .duration = 10},
	{.frequency = NOTE_FS5, .duration = 31},
	{.frequency = SILENT, .duration = 3},
	{.frequency = NOTE_E5, .duration = 95},
	{.frequency = SILENT, .duration = 10},
	{.frequency = NOTE_G5, .duration = 31},
	{.frequency = SILENT, .duration = 3},
	{.frequency = NOTE_A5, .duration = 47},
	{.frequency = SILENT, .duration = 5},
	{.frequency = NOTE_B5, .duration = 15},
	{.frequency = SILENT, .duration = 1},
	{.frequency = NOTE_A5, .duration = 31},
	{.frequency = SILENT, .duration = 3},
	{.frequency = NOTE_G5, .duration = 31},
	{.frequency = SILENT, .duration = 3},
	{.frequency = NOTE_FS5, .duration = 95},
	{.frequency = SILENT, .duration = 10},
	{.frequency = NOTE_D5, .duration = 31},
	{.frequency = SILENT, .duration = 3},
	{.frequency = NOTE_E5, .duration = 31},
	{.frequency = SILENT, .duration = 3},
	{.frequency = NOTE_G5, .duration = 31},
	{.frequency = SILENT, .duration = 3},
	{.frequency = NOTE_D5, .duration = 31},
	{.frequency = SILENT, .duration = 3},
	{.frequency = NOTE_D5, .duration = 31},
	{.frequency = SILENT, .duration = 3},
	{.frequency = NOTE_E5, .duration = 31},
	{.frequency = SILENT, .duration = 3},
	{.frequency = NOTE_FS5, .duration = 31},
	{.frequency = SILENT, .duration = 3},
	{.frequency = NOTE_G5, .duration = 31},
	{.frequency = SILENT, .duration = 3},
	{.frequency = NOTE_C6, .duration = 31},
	{.frequency = SILENT, .duration = 3},
	{.frequency = NOTE_B5, .duration = 95},
	{.frequency = SILENT, .duration = 10},
	{.frequency = NOTE_G5, .duration = 31},
	{.frequency = SILENT, .duration = 3},
	{.frequency = NOTE_A5, .duration = 31},
	{.frequency = SILENT, .duration = 3},
	{.frequency = NOTE_D5, .duration = 31},
	{.frequency = SILENT, .duration = 3},
	{.frequency = NOTE_E5, .duration = 31},
	{.frequency = SILENT, .duration = 3},
	{.frequency = NOTE_FS5, .duration = 31},
	{.frequency = SILENT, .duration = 3},
	{.frequency = NOTE_G5, .duration = 95},
	{.frequency = SILENT, .duration = 0},
};

// ole
const Note en_er_mundo[] PROGMEM =
{
	{.frequency = NOTE_D7, .duration = 12},
	{.frequency = SILENT, .duration = 4},
	{.frequency = NOTE_DS6, .duration = 12},
	{.frequency = SILENT, .duration = 4},
	{.frequency = NOTE_F6, .duration = 12},
	{.frequency = SILENT, .duration = 4},
	{.frequency = NOTE_DS6, .duration = 12},
	{.frequency = SILENT, .duration = 4},
	{.frequency = NOTE_D6, .duration = 12},
	{.frequency = SILENT, .duration = 4},
	{.frequency = NOTE_C6, .duration = 9},
	{.frequency = SILENT, .duration = 3},
	{.frequency = NOTE_D6, .duration = 18},
	{.frequency = SILENT, .duration = 6},
	{.frequency = NOTE_D6, .duration = 9},
	{.frequency = SILENT, .duration = 6},
	{.frequency = NOTE_D6, .duration = 6},
	{.frequency = SILENT, .duration = 2},
	{.frequency = NOTE_C6, .duration = 4},
	{.frequency = SILENT, .duration = 1},
	{.frequency = NOTE_D6, .duration = 238},
	{.frequency = SILENT, .duration = 0},
};


// Knight quest
const Note knight_quest_map_theme[] PROGMEM =
{
	{.frequency = NOTE_E5, .duration = 17},
	{.frequency = SILENT, .duration = 3},
	{.frequency = NOTE_E5, .duration = 17},
	{.frequency = SILENT, .duration = 3},
	{.frequency = NOTE_A5, .duration = 34},
	{.frequency = SILENT, .duration = 6},
	{.frequency = NOTE_E5, .duration = 34},
	{.frequency = SILENT, .duration = 6},
	{.frequency = NOTE_F5, .duration = 17},
	{.frequency = SILENT, .duration = 3},
	{.frequency = NOTE_E5, .duration = 17},
	{.frequency = SILENT, .duration = 3},
	{.frequency = NOTE_F5, .duration = 34},
	{.frequency = SILENT, .duration = 6},
	{.frequency = NOTE_D5, .duration = 34},
	{.frequency = SILENT, .duration = 6},
	{.frequency = NOTE_E5, .duration = 8},
	{.frequency = SILENT, .duration = 1},
	{.frequency = NOTE_F5, .duration = 8},
	{.frequency = SILENT, .duration = 1},
	{.frequency = NOTE_E5, .duration = 8},
	{.frequency = SILENT, .duration = 1},
	{.frequency = NOTE_D5, .duration = 8},
	{.frequency = SILENT, .duration = 1},
	{.frequency = NOTE_E5, .duration = 17},
	{.frequency = SILENT, .duration = 3},
	{.frequency = NOTE_D5, .duration = 17},
	{.frequency = SILENT, .duration = 3},
	{.frequency = NOTE_E5, .duration = 34},
	{.frequency = SILENT, .duration = 6},
	{.frequency = NOTE_D5, .duration = 17},
	{.frequency = SILENT, .duration = 3},
	{.frequency = NOTE_C5, .duration = 17},
	{.frequency = SILENT, .duration = 3},
	{.frequency = NOTE_D5, .duration = 34},
	{.frequency = SILENT, .duration = 6},
	{.frequency = NOTE_B4, .duration = 34},
	{.frequency = SILENT, .duration = 6},
	{.frequency = NOTE_E5, .duration = 17},
	{.frequency = SILENT, .duration = 3},
	{.frequency = NOTE_E5, .duration = 17},
	{.frequency = SILENT, .duration = 3},
	{.frequency = NOTE_A5, .duration = 34},
	{.frequency = SILENT, .duration = 6},
	{.frequency = NOTE_E5, .duration = 34},
	{.frequency = SILENT, .duration = 6},
	{.frequency = NOTE_F5, .duration = 17},
	{.frequency = SILENT, .duration = 3},
	{.frequency = NOTE_E5, .duration = 17},
	{.frequency = SILENT, .duration = 3},
	{.frequency = NOTE_F5, .duration = 34},
	{.frequency = SILENT, .duration = 6},
	{.frequency = NOTE_D5, .duration = 34},
	{.frequency = SILENT, .duration = 6},
	{.frequency = NOTE_C5, .duration = 17},
	{.frequency = SILENT, .duration = 3},
	{.frequency = NOTE_F5, .duration = 17},
	{.frequency = SILENT, .duration = 3},
	{.frequency = NOTE_C5, .duration = 17},
	{.frequency = SILENT, .duration = 3},
	{.frequency = NOTE_D5, .duration = 17},
	{.frequency = SILENT, .duration = 3},
	{.frequency = NOTE_E5, .duration = 17},
	{.frequency = SILENT, .duration = 3},
	{.frequency = NOTE_D5, .duration = 17},
	{.frequency = SILENT, .duration = 3},
	{.frequency = NOTE_C5, .duration = 17},
	{.frequency = SILENT, .duration = 3},
	{.frequency = NOTE_B4, .duration = 17},
	{.frequency = SILENT, .duration = 3},
	{.frequency = NOTE_A4, .duration = 34},
	{.frequency = SILENT, .duration = 6},
	{.frequency = NOTE_A4, .duration = 34},
	{.frequency = SILENT, .duration = 6},
	{.frequency = NOTE_E5, .duration = 34},
	{.frequency = SILENT, .duration = 6},
	{.frequency = NOTE_E5, .duration = 34},
	{.frequency = SILENT, .duration = 6},
	{.frequency = NOTE_E5, .duration = 34},
	{.frequency = SILENT, .duration = 6},
	{.frequency = NOTE_D5, .duration = 17},
	{.frequency = SILENT, .duration = 3},
	{.frequency = NOTE_CS5, .duration = 17},
	{.frequency = SILENT, .duration = 3},
	{.frequency = NOTE_D5, .duration = 17},
	{.frequency = SILENT, .duration = 3},
	{.frequency = NOTE_E5, .duration = 17},
	{.frequency = SILENT, .duration = 3},
	{.frequency = NOTE_FS5, .duration = 17},
	{.frequency = SILENT, .duration = 3},
	{.frequency = NOTE_A5, .duration = 17},
	{.frequency = SILENT, .duration = 3},
	{.frequency = NOTE_E5, .duration = 34},
	{.frequency = SILENT, .duration = 6},
	{.frequency = NOTE_DS5, .duration = 34},
	{.frequency = SILENT, .duration = 6},
	{.frequency = NOTE_D5, .duration = 34},
	{.frequency = SILENT, .duration = 86},
	{.frequency = NOTE_D5, .duration = 17},
	{.frequency = SILENT, .duration = 3},
	{.frequency = NOTE_E5, .duration = 17},
	{.frequency = SILENT, .duration = 3},
	{.frequency = NOTE_FS5, .duration = 17},
	{.frequency = SILENT, .duration = 3},
	{.frequency = NOTE_A5, .duration = 17},
	{.frequency = SILENT, .duration = 3},
	{.frequency = NOTE_E5, .duration = 34},
	{.frequency = SILENT, .duration = 6},
	{.frequency = NOTE_E5, .duration = 34},
	{.frequency = SILENT, .duration = 6},
	{.frequency = NOTE_E5, .duration = 34},
	{.frequency = SILENT, .duration = 6},
	{.frequency = NOTE_CS5, .duration = 34},
	{.frequency = SILENT, .duration = 6},
	{.frequency = NOTE_C5, .duration = 34},
	{.frequency = SILENT, .duration = 6},
	{.frequency = NOTE_CS5, .duration = 34},
	{.frequency = SILENT, .duration = 0},
} ;

const Note* const melodies[] PROGMEM =
{
	zelda,
	mario_main_theme,
	mario_underworld_melody,
	tetris,
	burger_time,
	still_alive,
	pacman,
	tetrisB,
	morrowind,
	tomb_raider,
	bubble_booble_themeB,
	frogger,
	age_of_empire_II_A,
	age_of_empire_II_B,
	comodore_moutainking_mini_medley,
	buzzBomber,
	bumpNJump,
	MULE_theme,
	age_of_empireI,
	donkey_kong,
	fzero_maximum_velocity,
	popcorn,
	angry_birds,
	sonic_the_hedgdog3_title,
	sonic_the_hedgdog2_title,
	final_fantasy7_begin,
	the_monkey_island_island,
	the_monkey_island_scummbar,
	rescue_n_dales_rescues_ranger_happy_cat_factory,
	start_trek_the_motion_picture_main_theme,
	snow_white_and_the_seven_darfs,
	en_er_mundo,
	knight_quest_map_theme,
};

#ifdef __cplusplus
}
#endif
